<?xml version="1.0" encoding="UTF-8"?>
<svg width="256px" height="50px" viewBox="0 0 256 50" version="1.1" xmlns="http://www.w3.org/2000/svg" xmlns:xlink="http://www.w3.org/1999/xlink">
    <!-- Generator: Sketch 42 (36781) - http://www.bohemiancoding.com/sketch -->
    <title>Logo</title>
    <desc>Created with Sketch.</desc>
    <defs></defs>
    <g id="Desktop" stroke="none" stroke-width="1" fill="none" fill-rule="evenodd">
        <g id="Pagina" transform="translate(-160.000000, -44.000000)" fill-rule="nonzero">
            <g id="Header-Alt" transform="translate(0.000000, 29.000000)">
                <g id="Logo" transform="translate(160.000000, 15.000000)">
                    <g id="pinetacity-payoff" transform="translate(93.307087, 33.858268)" fill="#164871">
                        <path d="M0,0.24015748 L6.24015748,0.24015748 L6.24015748,1.18110236 L3.62992126,1.18110236 L3.62992126,7.77559055 L2.5984252,7.77559055 L2.5984252,1.18503937 L0,1.18503937 L0,0.24015748 Z M13.8661417,7.77559055 L12.8228346,7.77559055 L12.8228346,4.53543307 L8.49212598,4.53543307 L8.49212598,7.77559055 L7.46062992,7.77559055 L7.46062992,0.24015748 L8.49212598,0.24015748 L8.49212598,3.62204724 L12.8228346,3.62204724 L12.8228346,0.24015748 L13.8661417,0.24015748 L13.8661417,7.77559055 Z M20.9330709,4.51181102 L16.9645669,4.51181102 L16.9645669,6.83464567 L21.5354331,6.83464567 L21.5354331,7.77559055 L15.9370079,7.77559055 L15.9370079,0.24015748 L21.5393701,0.24015748 L21.5393701,1.18110236 L16.9645669,1.18110236 L16.9645669,3.59055118 L20.9330709,3.59055118 L20.9330709,4.51181102 Z M29.2480315,2.77952756 C29.2916799,3.86307556 28.5919595,4.83716419 27.5511811,5.14173228 L27.5511811,5.19685039 L29.496063,7.59448819 L29.496063,7.79527559 L28.3464567,7.79527559 L26.3779528,5.34645669 L24.0787402,5.34645669 L24.0787402,7.79527559 L23.0472441,7.79527559 L23.0472441,0.24015748 L26.1968504,0.24015748 C28.0944882,0.24015748 29.2480315,1.13385827 29.2480315,2.77952756 Z M26.1850394,1.18503937 L24.0866142,1.18503937 L24.0866142,4.40944882 L26.2834646,4.40944882 C27.3897638,4.40944882 28.1653543,3.90551181 28.1653543,2.81496063 C28.1653543,1.72440945 27.3897638,1.18503937 26.1850394,1.18503937 Z M33.5944882,0.24015748 L33.8070866,0.24015748 L37.5629921,7.77559055 L36.3818898,7.77559055 L35.7677165,6.54330709 L31.6338583,6.54330709 L31.019685,7.77559055 L29.8385827,7.77559055 L33.5944882,0.24015748 Z M33.7559055,2.27559055 L33.6299213,2.27559055 L32.1614173,5.50393701 L32.0866142,5.62992126 L35.3149606,5.62992126 L35.2401575,5.50393701 L33.7559055,2.27559055 Z M38.5826772,0.24015748 L41.7322835,0.24015748 C43.6141732,0.24015748 44.7598425,1.12992126 44.7598425,2.77559055 C44.7598425,4.48425197 43.5275591,5.4015748 41.6692913,5.4015748 L39.5984252,5.4015748 L39.5984252,7.76377953 L38.5826772,7.76377953 L38.5826772,0.24015748 Z M41.7086614,1.18110236 L39.6102362,1.18110236 L39.6102362,4.47244094 L41.7086614,4.47244094 C42.9251969,4.47244094 43.7047244,3.96850394 43.7047244,2.80314961 C43.7007874,1.71259843 42.9133858,1.18503937 41.7086614,1.18503937 L41.7086614,1.18110236 Z M50.6102362,0.24015748 L51.7913386,0.24015748 L48.8897638,4.88582677 L48.8897638,7.77559055 L47.8464567,7.77559055 L47.8464567,4.9015748 L44.9566929,0.244094488 L46.1614173,0.244094488 L48.1299213,3.43307087 L48.3425197,3.8976378 L48.4251969,3.8976378 L48.6496063,3.43307087 L50.6102362,0.24015748 Z M56.2244094,3.66929134 L56.1220472,3.56692913 C55.633361,3.13666769 55.3476934,2.52105413 55.3346457,1.87007874 C55.3346457,0.81496063 56.1496063,0.0748031496 57.3818898,0.0748031496 C58.7401575,0.0748031496 59.492126,0.88976378 59.492126,1.84645669 C59.492126,2.94094488 58.6496063,3.48031496 57.7598425,3.91732283 L59.6811024,5.76377953 C59.9463739,5.2435031 60.0814708,4.66663957 60.0748031,4.08267717 L60.0748031,3.81889764 L61.0787402,3.81889764 L61.0787402,4.07086614 C61.0776223,4.90991008 60.8327944,5.73056238 60.3740157,6.43307087 L61.6692913,7.67716535 L61.6692913,7.77952756 L60.488189,7.77952756 L59.7992126,7.11417323 C59.1509789,7.67107958 58.3188827,7.96715429 57.4645669,7.94488189 C55.5826772,7.94488189 54.5629921,7.03937008 54.5629921,5.75984252 C54.5433071,4.6496063 55.3464567,4.0984252 56.2244094,3.66929134 L56.2244094,3.66929134 Z M59.1141732,6.46850394 L56.9055118,4.33464567 C56.2283465,4.68503937 55.6732283,5.06299213 55.6732283,5.71653543 C55.6732283,6.45669291 56.3622047,7.03543307 57.4448819,7.03543307 C58.0517782,7.06058843 58.6464767,6.86001795 59.1141732,6.47244094 L59.1141732,6.46850394 Z M57.0669291,3.29133858 C57.8346457,2.95275591 58.484252,2.6023622 58.484252,1.93307087 C58.484252,1.41732283 58.1968504,0.940944882 57.3779528,0.940944882 C57.0946865,0.913387131 56.8133587,1.00979329 56.606532,1.20529745 C56.3997052,1.40080161 56.2876295,1.67626214 56.2992126,1.96062992 C56.351608,2.49510878 56.6312561,2.98126616 57.0669291,3.29527559 L57.0669291,3.29133858 Z M65.2795276,6.25590551 C65.9290015,6.74680906 66.725471,7.00351092 67.5393701,6.98425197 C68.8070866,6.98425197 69.3464567,6.49606299 69.3464567,5.80314961 C69.3464567,5.16141732 68.9212598,4.83464567 67.3779528,4.3976378 C65.5708661,3.88188976 64.7519685,3.33070866 64.7519685,2.16141732 C64.7519685,0.866141732 65.8070866,0.0905511811 67.5787402,0.0905511811 C69.4606299,0.0905511811 70.2913386,0.818897638 70.2913386,0.818897638 L69.7125984,1.65354331 C69.0803112,1.22708559 68.329102,1.01206057 67.5669291,1.03937008 C66.5511811,1.03937008 65.8346457,1.43307087 65.8346457,2.13385827 C65.8346457,2.7007874 66.2992126,2.98818898 67.8031496,3.4015748 C69.7716535,3.94094488 70.4409449,4.60629921 70.4409449,5.76377953 C70.4409449,7.00787402 69.5629921,7.96062992 67.5393701,7.96062992 C65.5944882,7.96062992 64.7007874,7.04330709 64.7007874,7.04330709 L65.2795276,6.25590551 Z M71.9724409,0.24015748 L75.1220472,0.24015748 C77.003937,0.24015748 78.1496063,1.12992126 78.1496063,2.77559055 C78.1496063,4.48425197 76.9173228,5.4015748 75.0590551,5.4015748 L72.988189,5.4015748 L72.988189,7.76377953 L71.9566929,7.76377953 L71.9724409,0.24015748 Z M75.0984252,1.18110236 L73,1.18110236 L73,4.47244094 L75.0984252,4.47244094 C76.3149606,4.47244094 77.0944882,3.96850394 77.0944882,2.80314961 C77.0984252,1.71259843 76.3070866,1.18503937 75.1023622,1.18503937 L75.0984252,1.18110236 Z M79.0314961,4.01574803 C79.0314961,1.80708661 80.5511811,0.0787401575 82.9370079,0.0787401575 C85.3228346,0.0787401575 86.8740157,1.81102362 86.8740157,4.01574803 C86.9190706,5.07307674 86.5187673,6.10086187 85.7704445,6.84918464 C85.0221217,7.59750741 83.9943366,7.99781075 82.9370079,7.95275591 C80.5511811,7.95275591 79.0314961,6.20866142 79.0314961,4.01574803 L79.0314961,4.01574803 Z M85.8267717,4.01574803 C85.8267717,2.37007874 84.7086614,1.0511811 82.9527559,1.0511811 C81.1968504,1.0511811 80.1023622,2.37007874 80.1023622,4.01574803 C80.1023622,5.66141732 81.2204724,6.95275591 82.9527559,6.95275591 C83.7325559,6.97456344 84.486082,6.66997242 85.0316878,6.11240816 C85.5772936,5.5548439 85.8654783,4.79489203 85.8267717,4.01574803 Z M94.6181102,2.77952756 C94.6617586,3.86307556 93.9620383,4.83716419 92.9212598,5.14173228 L92.9212598,5.19685039 L94.8818898,7.55905512 L94.8818898,7.75984252 L93.7401575,7.75984252 L91.7716535,5.31102362 L89.4724409,5.31102362 L89.4724409,7.75984252 L88.4251969,7.75984252 L88.4251969,0.24015748 L91.5748031,0.24015748 C93.4606299,0.24015748 94.6181102,1.13385827 94.6181102,2.77952756 L94.6181102,2.77952756 Z M91.5551181,1.18503937 L89.4566929,1.18503937 L89.4566929,4.40944882 L91.6535433,4.40944882 C92.7598425,4.40944882 93.5354331,3.90551181 93.5354331,2.81496063 C93.5354331,1.72440945 92.7598425,1.18503937 91.5511811,1.18503937 L91.5551181,1.18503937 Z M95.3582677,0.24015748 L101.598425,0.24015748 L101.598425,1.18110236 L98.988189,1.18110236 L98.988189,7.77559055 L97.9566929,7.77559055 L97.9566929,1.18503937 L95.3582677,1.18503937 L95.3582677,0.24015748 Z" id="Shape"></path>
                    </g>
                    <g id="pinetacity-brand" transform="translate(93.307087, 7.086614)" fill="#164871">
                        <path d="M1.42108547e-14,0.472440945 L7.91338583,0.472440945 C12.6377953,0.472440945 15.480315,2.7007874 15.480315,6.81496063 C15.480315,11.0866142 12.4015748,13.3779528 7.75590551,13.3779528 L2.57480315,13.3779528 L2.57480315,19.3228346 L1.42108547e-14,19.3228346 L1.42108547e-14,0.472440945 Z M7.81889764,2.83464567 L2.57480315,2.83464567 L2.57480315,11.0669291 L7.81889764,11.0669291 C10.8661417,11.0669291 12.8110236,9.81102362 12.8110236,6.88976378 C12.8110236,4.16141732 10.8307087,2.83464567 7.81889764,2.83464567 Z M21.5393701,19.3228346 L18.9645669,19.3228346 L18.9645669,0.472440945 L21.5393701,0.472440945 L21.5393701,19.3228346 Z M43.4212598,19.3228346 L42.7007874,19.3228346 L29.3149606,5.79133858 L29.3149606,19.3228346 L26.7401575,19.3228346 L26.7401575,0.472440945 L27.4606299,0.472440945 L40.8031496,13.8582677 L40.8031496,0.472440945 L43.4094488,0.472440945 L43.4212598,19.3228346 Z M61.0984252,11.1614173 L51.1811024,11.1614173 L51.1811024,16.9685039 L62.5984252,16.9685039 L62.5984252,19.3307087 L48.6023622,19.3307087 L48.6023622,0.472440945 L62.5984252,0.472440945 L62.5984252,2.83464567 L51.1811024,2.83464567 L51.1811024,8.87007874 L61.1023622,8.87007874 L61.0984252,11.1614173 Z M64.2677165,0.472440945 L79.8700787,0.472440945 L79.8700787,2.83464567 L73.3425197,2.83464567 L73.3425197,19.3228346 L70.7677165,19.3228346 L70.7677165,2.83464567 L64.2677165,2.83464567 L64.2677165,0.472440945 Z M87.6574803,0.472440945 L88.1889764,0.472440945 L97.5748031,19.3110236 L94.6220472,19.3110236 L93.0826772,16.2322835 L82.7598425,16.2322835 L81.2204724,19.3110236 L78.2992126,19.3110236 L87.6574803,0.472440945 Z M88.0511811,5.55905512 L87.7362205,5.55905512 L84.0629921,13.6259843 L83.8740157,13.9409449 L91.9409449,13.9409449 L91.7519685,13.6259843 L88.0511811,5.55905512 Z M120.472441,17.3779528 C120.472441,17.3779528 118.366142,19.7637795 113.905512,19.7637795 C108,19.7637795 104.062992,15.4015748 104.062992,9.92125984 C104.062992,4.40944882 108,0.0787401575 113.905512,0.0787401575 C118.393701,0.0787401575 120.468504,2.46456693 120.468504,2.46456693 L118.992126,4.47244094 C117.596872,3.23556759 115.80149,2.54482097 113.937008,2.52755906 C109.669291,2.52755906 106.692913,5.82283465 106.692913,9.92125984 C106.692913,14.019685 109.677165,17.2992126 113.944882,17.2992126 C115.814486,17.3093828 117.619331,16.6149953 119,15.3543307 L120.472441,17.3779528 Z M126.433071,19.3228346 L123.858268,19.3228346 L123.858268,0.472440945 L126.433071,0.472440945 L126.433071,19.3228346 Z M129.527559,0.472440945 L145.129921,0.472440945 L145.129921,2.83464567 L138.582677,2.83464567 L138.582677,19.3228346 L136.007874,19.3228346 L136.007874,2.83464567 L129.527559,2.83464567 L129.527559,0.472440945 Z M159.744094,0.472440945 L162.728346,0.472440945 L155.476378,12.1023622 L155.476378,19.3228346 L152.870079,19.3228346 L152.870079,12.1338583 L145.649606,0.472440945 L148.665354,0.472440945 L153.594488,8.4488189 L154.129921,9.62992126 L154.330709,9.62992126 L154.897638,8.4488189 L159.744094,0.472440945 Z" id="Shape"></path>
                    </g>
                    <g id="pinetacity-icona" transform="translate(0.000000, 0.000000)">
                        <g id="albero" transform="translate(3.149606, 2.362205)">
                            <g id="chioma" fill="#ADDE5D">
                                <path d="M31.5984252,0.385826772 C13.5787402,1.83070866 0,8.19291339 0,15.8267717 C0,23.5433071 13.8818898,29.9645669 32.2047244,31.3149606 C30.8700787,21.2362205 29.9606299,9.04724409 31.5984252,0.385826772 L31.5984252,0.385826772 Z" id="pino-sinistro"></path>
                                <path d="M78.7401575,15.8267717 C78.7401575,7.42519685 62.2952756,0.562992126 41.5826772,0.102362205 C41.3016163,0.566808313 41.1006519,1.07520836 40.988189,1.60629921 C39.3307087,9.48031496 40.3897638,21.6850394 41.7755906,31.5275591 C62.3976378,31.0472441 78.7401575,24.2007874 78.7401575,15.8267717 Z" id="pino-destro"></path>
                            </g>
                            <path d="M32.2047244,31.3149606 C33.5,41.0984252 34.503937,46.6692913 34.6456693,47.3228346 L44.0944882,47.3228346 C44.0629921,47.1771654 43.023622,40.4133858 41.7755906,31.5433071 C40.988189,31.5616798 40.1863517,31.5721785 39.3700787,31.5748031 C36.9212598,31.5748031 34.5275591,31.484252 32.2047244,31.3149606 Z" id="tronco" fill="#B2BCA2"></path>
                        </g>
                        <g id="iniziali" fill="#164871">
                            <path d="M40.1574803,31.5748031 L39.1377953,31.6062992 C38.4724409,31.6338583 37.5,31.6535433 36.2559055,31.6535433 L34.2007874,31.6220472 C33.4527559,31.5944882 32.6259843,31.5669291 31.7795276,31.515748 C30.0511811,31.4212598 28.1023622,31.2519685 25.984252,30.976378 C23.6997918,30.6876977 21.4317007,30.281649 19.1889764,29.7598425 C16.6700936,29.1891075 14.1973407,28.4310949 11.7913386,27.492126 C10.5127222,26.9876794 9.26280476,26.413322 8.04724409,25.7716535 C6.78274806,25.1146033 5.58318756,24.3395027 4.46456693,23.4566929 C3.2877761,22.5479224 2.25970697,21.4614101 1.41732283,20.2362205 C0.534421549,18.9314588 0.0426824266,17.4016037 0,15.8267717 L0.0354330709,15.2480315 L0.0354330709,14.984252 C0.0354330709,14.8858268 0.0708661417,14.7795276 0.0866141732,14.6771654 L0.204724409,14.0629921 C0.255905512,13.8700787 0.322834646,13.6692913 0.377952756,13.5 C0.498747916,13.1302643 0.646113606,12.7697446 0.818897638,12.4212598 C0.992125984,12.0748031 1.19291339,11.7480315 1.38976378,11.4212598 C2.23214792,10.1960703 3.26021704,9.10955793 4.43700787,8.2007874 C5.55516201,7.31619033 6.75476921,6.53974127 8.01968504,5.88188976 C9.2352808,5.24029247 10.4851943,4.66593684 11.7637795,4.16141732 C14.1709357,3.2219004 16.6450386,2.46387738 19.1653543,1.89370079 C21.4158091,1.37081442 23.6918196,0.96475943 25.984252,0.677165354 C28.1023622,0.401574803 30.0511811,0.228346457 31.7795276,0.137795276 C32.6456693,0.0787401575 33.4645669,0.0551181102 34.2007874,0.031496063 L36.2598425,0 C37.5,0 38.476378,0.0196850394 39.1417323,0.0472440945 L40.1574803,0.0787401575 L39.1417323,0.12992126 C38.480315,0.153543307 37.507874,0.232283465 36.2716535,0.311023622 L34.2283465,0.472440945 C33.488189,0.55511811 32.6850394,0.622047244 31.8307087,0.724409449 C30.1220472,0.917322835 28.2007874,1.2007874 26.1181102,1.55905512 C24.0354331,1.91732283 21.7874016,2.40551181 19.4685039,3.02362205 C17.0312538,3.66933576 14.6389799,4.47421295 12.3070866,5.43307087 C9.83799369,6.42496164 7.51599595,7.74954677 5.40551181,9.37007874 C4.36072526,10.1952688 3.45086632,11.1781821 2.70866142,12.2834646 C2.54330709,12.5590551 2.37401575,12.8385827 2.23622047,13.1220472 C2.09690189,13.4070385 1.97847973,13.7017781 1.88188976,14.003937 C1.83858268,14.1535433 1.78346457,14.3070866 1.74409449,14.4527559 L1.66535433,14.8818898 C1.66535433,14.9527559 1.63385827,15.019685 1.62204724,15.0984252 L1.62204724,15.8267717 C1.62204724,15.8267717 1.62204724,15.8976378 1.62204724,15.8267717 C1.65882776,17.0910757 2.05185943,18.3192997 2.75590551,19.3700787 C3.50220464,20.4630643 4.4132628,21.4338857 5.45669291,22.2480315 C7.56662923,23.8693875 9.88874429,25.1940396 12.3582677,26.1850394 C14.6739617,27.151687 17.0504302,27.9657623 19.4724409,28.6220472 C21.8031496,29.2401575 24.0393701,29.7165354 26.1220472,30.0866142 C28.2047244,30.4566929 30.1220472,30.7244094 31.8346457,30.9212598 C32.6889764,31.023622 33.492126,31.0905512 34.2322835,31.1732283 L36.2755906,31.3464567 C37.507874,31.4251969 38.480315,31.5 39.1456693,31.5275591 L40.1574803,31.5748031 Z" id="C"></path>
                            <path d="M37.7952756,49.6850394 L37.4409449,48.1929134 C37.2204724,47.2165354 36.8858268,45.7874016 36.5275591,43.9566929 C36.1692913,42.1259843 35.7401575,39.8976378 35.3188976,37.3267717 C34.8976378,34.7559055 34.476378,31.8503937 34.1377953,28.6653543 C33.7603335,25.2230668 33.5789383,21.7620986 33.5944882,18.2992126 C33.6220472,17.3740157 33.5944882,16.4370079 33.6929134,15.484252 L33.8031496,14.0511811 C33.8267717,13.8110236 33.8307087,13.5669291 33.8661417,13.3267717 L33.976378,12.5984252 C34.0800245,11.5880981 34.2858004,10.5908766 34.5905512,9.62204724 C34.9569185,8.60270463 35.5215936,7.66603979 36.2519685,6.86614173 C37.7488733,5.20023821 39.8396029,4.18809326 42.0748031,4.04724409 C44.1850394,3.9488189 46.2637795,3.95669291 48.3740157,4.04724409 C50.484252,4.13779528 52.6141732,4.26771654 54.7401575,4.46850394 C55.7992126,4.56692913 56.8740157,4.68110236 57.9291339,4.80314961 C58.984252,4.92519685 60.0708661,5.08267717 61.1338583,5.25984252 C65.3889112,5.93744484 69.5463948,7.12718577 73.515748,8.80314961 C75.4759394,9.62208238 77.3565784,10.6197304 79.1338583,11.7834646 C80.8779528,12.9645669 82.5314961,14.3779528 83.6692913,16.2244094 C84.2460197,17.146773 84.6241411,18.1792323 84.7795276,19.2559055 C84.8538203,19.7894544 84.8657115,20.3298412 84.8149606,20.8661417 C84.8149606,21.1338583 84.7401575,21.3937008 84.7047244,21.6535433 L84.6141732,22.0472441 L84.5669291,22.2401575 L84.496063,22.4488189 L84.2519685,23.1141732 C84.1607097,23.3556505 84.0568936,23.5921935 83.9409449,23.8228346 C83.7249166,24.2822943 83.4762486,24.7256865 83.1968504,25.1496063 C82.6518058,25.955722 82.0208082,26.7002464 81.3149606,27.3700787 C79.9826677,28.6260388 78.4876668,29.6973017 76.8700787,30.5551181 C75.385059,31.3558457 73.8458732,32.0517682 72.2637795,32.6377953 C71.8700787,32.7755906 71.515748,32.9133858 71.1299213,33.0314961 L70.0275591,33.3937008 L68.9251969,33.7244094 L67.8464567,34.011811 C66.4212598,34.3740157 65.0590551,34.6535433 63.7755906,34.8818898 C61.2007874,35.3307087 58.9448819,35.5787402 57.0826772,35.7401575 C55.2204724,35.9015748 53.7559055,35.9724409 52.7519685,36.019685 L51.2204724,36.0866142 L52.7559055,35.9448819 C53.7519685,35.8464567 55.2086614,35.6771654 57.0551181,35.4448819 C58.9015748,35.2125984 61.1417323,34.8661417 63.6692913,34.3149606 C64.9330709,34.0354331 66.2677165,33.7007874 67.6535433,33.2874016 L68.7047244,32.9645669 L69.7677165,32.6102362 L70.8582677,32.2165354 C71.2125984,32.0866142 71.5826772,31.9330709 71.9488189,31.7913386 C73.4736073,31.1776482 74.9535976,30.458044 76.3779528,29.6377953 C77.8887616,28.7884462 79.2812835,27.7440548 80.519685,26.5314961 C81.1426586,25.9117635 81.6970396,25.2267069 82.1732283,24.488189 C82.4069065,24.1095835 82.6134606,23.7148941 82.7913386,23.3070866 L82.9251969,23.015748 C82.97548,22.9161021 83.0163401,22.8119748 83.0472441,22.7047244 L83.2637795,22.019685 L83.3070866,21.8858268 L83.3425197,21.7244094 L83.4133858,21.4015748 C83.4370079,21.1850394 83.484252,20.9685039 83.488189,20.7480315 C83.5239838,20.3106848 83.5081264,19.8706437 83.4409449,19.4370079 C83.2996562,18.5473604 82.9737756,17.6971206 82.484252,16.9409449 C81.5,15.3661417 79.976378,14.0866142 78.3188976,13.003937 C76.6014262,11.9108393 74.7944404,10.965201 72.9173228,10.1771654 C69.0536193,8.56844698 65.0099811,7.43162811 60.8740157,6.79133858 C59.8346457,6.61023622 58.7874016,6.46850394 57.7519685,6.33070866 C56.7165354,6.19291339 55.6535433,6.08661417 54.6023622,5.98425197 C52.5,5.77952756 50.4055118,5.62598425 48.3228346,5.54330709 C46.2401575,5.46062992 44.1614173,5.43307087 42.1614173,5.5 C40.2941182,5.59313712 38.5381139,6.41599902 37.2716535,7.79133858 C36.6535123,8.45028129 36.171826,9.22499333 35.8543307,10.0708661 C35.569456,10.955663 35.3677939,11.8651198 35.2519685,12.7874016 L35.1299213,13.4645669 C35.0905512,13.6968504 35.0787402,13.9330709 35.0511811,14.1653543 L34.9173228,15.5551181 C34.8031496,16.476378 34.8070866,17.3976378 34.7598425,18.3110236 C34.7125984,19.2244094 34.7204724,20.1141732 34.7244094,21 L34.7244094,22.3228346 L34.7677165,23.6181102 C34.8031496,24.476378 34.8149606,25.3188976 34.8700787,26.1456693 L35.0275591,28.5787402 C35.0826772,29.3661417 35.1614173,30.1535433 35.2244094,30.9094488 C35.2874016,31.6653543 35.3582677,32.4133858 35.4370079,33.1338583 L35.6535433,35.2480315 L35.8937008,37.2401575 C36.2086614,39.8149606 36.5354331,42.0551181 36.8267717,43.8976378 C37.1181102,45.7401575 37.3503937,47.1850394 37.523622,48.1692913 L37.7952756,49.6850394 Z" id="P"></path>
                        </g>
                    </g>
                </g>
            </g>
        </g>
    </g>
</svg>