<?xml version="1.0"?>
<svg xmlns="http://www.w3.org/2000/svg" height="512px" viewBox="0 -94 512 512" width="512px"><g><path d="m504.453125 250.332031c-4.199219-1.539062-8.847656-.261719-11.832031 3.261719l-15.289063 18.054688-97.554687-11.011719.882812-37.882813c.273438-11.667968-7.847656-21.734375-19.3125-23.933594l-17.144531-3.292968c-2.171875-.417969-4.421875.148437-6.140625 1.542968-1.71875 1.394532-2.734375 3.476563-2.773438 5.6875l-.40625 22.460938-12.199218-16.847656 24.375-44.519532 36.996094 14.6875c11.121093 4.414063 18.265624 15.414063 17.785156 27.367188l-1.476563 36.582031c-.167969 4.136719 3.050781 7.628907 7.191407 7.792969.101562.003906.203124.007812.304687.007812 4.003906 0 7.328125-3.164062 7.492187-7.195312l1.476563-36.582031c.738281-18.308594-10.210937-35.152344-27.238281-41.914063l-35.273438-14.003906 7.554688-13.808594c3.714844-6.78125 3.007812-15.078125-1.808594-21.128906-.078125-.097656-.15625-.195312-.242188-.289062l-29.144531-33.101563c-.027343-.027344-.054687-.050781-.078125-.078125l-25.113281-28.457031c-.097656-.109375-.195313-.214844-.296875-.316407-9.023438-9.097656-22.480469-11.5625-33.890625-6.972656-.675781-5.476562-2.84375-10.804687-6.492187-15.378906l-15.640626-19.582031c-10.527343-13.175781-29.820312-15.328125-43-4.804688l-4.1875 3.339844c-13.175781 10.523437-15.335937 29.8125-4.816406 43l15.640625 19.582031c3.0625 3.832032 6.945313 6.773438 11.246094 8.726563l-6.207031 4.773437c-2.886719 2.234375-5.265625 4.945313-7.066406 8.054688l-82.363282 141.605468c-1.253906.671876-2.484375 1.441407-3.667968 2.324219l-13.117188 9.832031c-2.230469 1.664063-4.722656 2.542969-7.203125 2.542969h-3.640625c-2.253906-15.613281-15.714844-27.652343-31.945312-27.652343h-26.878907c-17.800781 0-32.28125 14.484374-32.28125 32.285156v5.734375c0 7.558593 2.617188 14.511719 6.984375 20.019531-9.832031 4.625-16.660156 14.625-16.660156 26.191406v5.839844c0 6.585938 5.359375 11.945312 11.945312 11.945312l468.527344.003907c.023438 0 .050782-.003907.074219-.003907h23.953125c4.144531 0 7.5-3.359374 7.5-7.5v-55.585937c0-5.246094-2.964844-9.71875-7.546875-11.402344zm-31.480469 59.488281h-71.429687c-.488281-2.71875-1.867188-5.265624-4.050781-7.21875-.109376-.101562-.226563-.195312-.34375-.289062l-15.089844-11.960938-11.332032-15.644531 102.246094 11.542969zm-150.484375 0-2.074219-5.457031c-2.765624-7.277343-8.785156-12.238281-15.707031-12.949219l-68.054687-6.96875v-24.878906l44.925781 5.074219h.039063l18.617187 2.101563 33.96875 32.195312.441406 10.886719h-12.15625zm-143.421875-90.972656c-3.21875-2.605468-7.9375-2.113281-10.550781 1.105469l-11.6875 14.417969-9.546875-1.21875 47.957031-82.453125 18.117188 13.941406-26.136719 32.242187c-2.609375 3.21875-2.113281 7.941407 1.101562 10.550782 1.390626 1.125 3.0625 1.675781 4.71875 1.675781 2.1875 0 4.351563-.949219 5.832032-2.777344l45.761718-56.457031 26.582032 30.570312c-4.046875 2.214844-7.570313 5.398438-10.199219 9.347657l-35.523437 53.347656-51.164063-6.535156 5.84375-7.207031c2.605469-3.21875 2.113281-7.941407-1.105469-10.550782zm115.625-23.117187 13.085938 17.625 40.933594 56.523437 13.1875 18.210938h-17.335938l-49.972656-47.363282c-1.625-1.542968-3.851563-2.277343-6.078125-2-2.222657.273438-4.207031 1.527344-5.410157 3.417969l-4.492187 7.0625-36.398437-4.109375 31.289062-46.988281c2.539062-3.816406 6.613281-6.066406 11.1875-6.203125.082031-.003906.167969-.003906.25-.007812 3.695312-.046876 7.140625 1.332031 9.753906 3.832031zm87.777344 114.085937h-32.8125l-.273438-6.726562h24.597657zm-79.289062-3.476562c1.003906.101562 2.386718 1.179687 3.214843 3.355468l.046875.121094h-124.601562v-15.90625zm46.949218-94.402344 8.394532 1.613281c4.238281.8125 7.242187 4.539063 7.144531 8.851563l-.851563 36.542968-5.992187-.675781-9.296875-12.839843zm-1.414062-82.355469-35.769532 65.34375-4.390624-6.066406c-.273438-.378906-.5625-.742187-.851563-1.101563l19.757813-51.644531c.863281-2.253906.585937-4.789062-.742188-6.804687l-15.371094-23.324219 12.507813-8.765625 24.554687 27.882812c.96875 1.304688 1.089844 3.046876.304688 4.480469zm-124.191406-66.347656-15.636719-19.578125c-5.363281-6.722656-4.265625-16.558594 2.445312-21.917969l4.1875-3.335937c6.722657-5.371094 16.558594-4.273438 21.925781 2.441406l15.636719 19.578125c4.074219 5.101563 4.539063 12.042969 1.285157 17.589844l-13.789063 10.601562c-5.890625 1.496094-12.222656-.582031-16.054687-5.378906zm-.78125 38.453125c.832031-1.429688 1.9375-2.6875 3.269531-3.71875l46.066406-35.425781c6.429687-4.945313 15.554687-4.378907 21.320313 1.292969l19.46875 22.0625-11.71875 8.214843-7.507813-8.167969c-2.804687-3.050781-7.550781-3.25-10.601563-.445312-3.046874 2.800781-3.246093 7.546875-.441406 10.597656l11.546875 12.558594 16.929688 25.691406-16.960938 44.328125c-2.230469-.824219-4.574219-1.378906-6.972656-1.628906l-35.167969-40.441406c-2.167968-2.5-5.34375-3.902344-8.617187-3.851563-3.308594.054688-6.40625 1.554688-8.503907 4.132813l-13.046874 16.09375-19.960938-15.359375zm-103.136719 158.242188 13.128906-9.835938c.933594-.699219 1.886719-1.25 2.898437-1.660156 1.847657-.773438 3.753907-1.042969 5.648438-.800782l79.371094 10.140626v25.136718l-46.550782-4.765625s-.003906 0-.007812 0c-.007812 0-.011719-.003906-.019531-.003906l-38.617188-3.8125c-4.136719-.402344-7.792969 2.605469-8.199219 6.726563-.40625 4.121093 2.601563 7.792968 6.726563 8.203124l31.855469 3.144532v17.417968h-31.117188c-.027344 0-.050781.003907-.078125.003907h-26.742187v-2.789063c0-11.03125-6.210938-20.636718-15.3125-25.515625 3.757812-4.488281 6.316406-10.003906 7.191406-16.0625h3.640625c5.738281 0 11.328125-1.910156 16.183594-5.527343zm-95.929688-4.839844c0-9.53125 7.75-17.285156 17.28125-17.285156h26.882813c9.527344 0 17.28125 7.753906 17.28125 17.285156v5.730468c0 9.53125-7.753906 17.285157-17.28125 17.285157h-26.882813c-9.53125 0-17.28125-7.753907-17.28125-17.285157zm-9.675781 51.945312c0-7.679687 6.246094-13.929687 13.929688-13.929687h51.046874c7.679688 0 13.925782 6.25 13.925782 13.929687v2.785156h-78.902344zm482 2.78125h-9.027344v-27.519531l9.027344-10.660156zm0 0" data-original="#000000" class="active-path" data-old_color="#000000" fill="#0061D5"/></g> </svg>
