<?xml version="1.0" encoding="UTF-8" standalone="no"?>
<svg
   xmlns:dc="http://purl.org/dc/elements/1.1/"
   xmlns:cc="http://creativecommons.org/ns#"
   xmlns:rdf="http://www.w3.org/1999/02/22-rdf-syntax-ns#"
   xmlns:svg="http://www.w3.org/2000/svg"
   xmlns="http://www.w3.org/2000/svg"
   xmlns:sodipodi="http://sodipodi.sourceforge.net/DTD/sodipodi-0.dtd"
   xmlns:inkscape="http://www.inkscape.org/namespaces/inkscape"
   version="1.1"
   id="svg2"
   xml:space="preserve"
   width="3300"
   height="2200"
   viewBox="0 0 3300 2200"
   sodipodi:docname="20944985.eps"><metadata
     id="metadata8"><rdf:RDF><cc:Work
         rdf:about=""><dc:format>image/svg+xml</dc:format><dc:type
           rdf:resource="http://purl.org/dc/dcmitype/StillImage" /></cc:Work></rdf:RDF></metadata><defs
     id="defs6"><clipPath
       clipPathUnits="userSpaceOnUse"
       id="clipPath22"><path
         d="m 6730.29,1366.4 c -2968.73,0 -6013.481,616.8 -5090.09,3158.7 61.76,170.1 122.86,333.6 182.92,491.2 383.12,-426 995.75,-915.6 1787.8,-915.6 105.99,0 215.14,8.8 327.43,27.6 1215.79,204.2 2572.02,975.9 3452.6,975.9 276.48,0 506.05,-76 669.69,-269.7 306.79,-363 551.81,-766.3 651.89,-1234.4 82.81,-387.4 -129.93,-792.4 77.31,-1138.7 100.56,-168.1 250.26,-300.2 397.51,-429.3 C 9043.76,2158 8904,3132.7 8872.78,3333.5 8696.2,4468.9 8235.89,6390.1 7130.31,7453.01 6595.87,7966.79 6065.14,8230.9 5518.65,8230.9 c -584.04,0 -1186.1,-301.38 -1830.76,-921.7 -612.75,-589.61 -1093.51,-1012 -1467.99,-1285.3 742.66,1852.27 1118.5,2793.51 135.18,4307.4 -1142.82,1759.5 851.2,4259 2621.77,4681.9 212.94,50.8 415.95,73.5 611.34,73.5 1149.13,0 2040.65,-783 3216.31,-1218.7 554.73,-205.6 991.56,-588.8 1527.3,-837.2 579.1,-268.6 1213.5,-406.6 1847.2,-414.1 88.3,-895.4 441,-1951.4 648.1,-2898.14 670,-3063.12 -38,-5486.26 34.3,-5486.26 1.8,0 4.1,1.5 7,4.6 328.5,358.1 425.2,2750.03 316.2,4163.71 -109,1413.69 269.8,1740.49 997.3,2209.09 727.5,468.5 1379.1,1403.7 1275.4,2433.1 -17.7,176.1 -7,363.1 23,552 707.7,384.7 1397.5,826.4 2119.1,1214.9 777.3,418.6 1679,746 2568.4,746 238,0 475,-23.5 708.7,-74.9 215.7,-47.4 428.5,-118.7 636.2,-217.4 435.2,-206.8 817.5,-603.5 886.2,-1097.2 35.6,-255.8 2.4,-498.8 -67.1,-734.9 -659.1,159.2 -1574.7,325.7 -2521,325.7 -1176.8,0 -2401.2,-257.5 -3239.2,-1106.8 -2129.2,-2157.9 -2862.1,-7687.1 -2862.1,-7687.1 0,0 318.7,648.4 820.9,1261.3 -253.2,-716 -401.7,-1433.6 -485.4,-1971.7 -31.5,-202.9 -91,-391.3 -154.5,-584.7 -14.2,-43.2 -93,-380.4 11.8,-380.4 16.8,0 38.2,8.7 65.3,28.5 137.9,100.7 144.9,572.5 167.5,724.1 60.2,404.3 35.2,891.6 708.2,1687.8 160.8,190.3 386.4,265 658.1,265 865.4,0 2198.4,-758.5 3393.3,-959.1 110.3,-18.6 217.6,-27.2 321.8,-27.2 1057.6,0 1789.8,888.3 2072.9,1301.1 58.4,85.2 18.9,204.33 -79.8,234.97 -344.5,107.02 -875.9,502.96 -1674.2,1243.95 644.5,373.63 1290.2,1013.04 1888.4,2098.94 100.7,182.74 196.2,355.44 286.6,518.34 69.8,-318.9 175.2,-629.3 314.2,-922.54 433.2,-914 1200.5,-1712.85 1250.9,-2731.15 31.3,-634.21 -234.4,-1253.11 -612.7,-1750.51 -378.4,-497.4 -864.6,-891.5 -1345.7,-1280.5 C 20443,3012.7 19462,1905.5 18416.4,1539.1 c -362.2,-126.9 -746.8,-169.6 -1140.8,-169.6 -805.5,-0.1 -1650.5,178.5 -2425.6,181 -239.7,0.8 -478.6,1.3 -716.7,1.3 -2026.8,0 -4001.1,-31.4 -6044.89,-145.9 -440.85,-24.7 -898.62,-39.5 -1358.12,-39.5 M 4454.42,13118.1 c -108.52,0 -187.14,-103.3 -158.36,-208.1 73.97,-269.4 224.51,-890.7 520.39,-2320.6 505.4,-2442.49 2053.66,-2454.27 2924.17,-2767.32 870.52,-313.05 1142.81,-2028.68 1142.81,-2028.68 0,0 639.74,3778.92 -320.72,5627.4 -810.16,1559.1 -3336.59,1693.5 -4107.43,1697.3 -0.29,0 -0.57,0 -0.86,0"
         id="path20" /></clipPath><linearGradient
       x1="0"
       y1="0"
       x2="1"
       y2="0"
       gradientUnits="userSpaceOnUse"
       gradientTransform="matrix(-21805.9,0,0,-21805.9,23278,8461.04)"
       spreadMethod="pad"
       id="linearGradient28"><stop
         style="stop-opacity:1;stop-color:#dae3fe"
         offset="0"
         id="stop24" /><stop
         style="stop-opacity:1;stop-color:#e9effd"
         offset="1"
         id="stop26" /></linearGradient><clipPath
       clipPathUnits="userSpaceOnUse"
       id="clipPath42"><path
         d="m 8883.43,5793.4 c 0,0 -272.29,1715.63 -1142.81,2028.68 -870.51,313.05 -2418.77,324.83 -2924.17,2767.32 -295.88,1429.9 -446.42,2051.2 -520.39,2320.6 -28.78,104.8 49.84,208.1 158.36,208.1 0.29,0 0.57,0 0.86,0 770.84,-3.8 3297.27,-138.2 4107.43,-1697.3 960.46,-1848.48 320.72,-5627.4 320.72,-5627.4 m -3743.81,6724.8 c -1.1,0 -2.18,-0.6 -2.85,-1.5 -1.09,-1.6 -0.71,-3.8 0.87,-4.8 l 0.08,-0.1 c 254.79,-177.5 497.52,-371.8 731.86,-575.1 l 88.12,-76 86.42,-77.9 86.41,-77.9 c 28.77,-26 56.52,-53.1 84.83,-79.6 l 84.68,-79.7 42.37,-39.8 41.36,-40.9 165.34,-163.6 161.04,-167.7 c 54.47,-55.2 105.91,-113.2 158.15,-170.4 l 78.19,-86 39.11,-43 37.83,-44.1 151.12,-176.7 37.81,-44.1 36.43,-45.3 72.85,-90.5 72.85,-90.5 36.42,-45.3 c 11.89,-15.3 23.3,-30.9 34.97,-46.4 l 139.3,-186 34.83,-46.5 c 5.76,-7.7 11.7,-15.4 17.32,-23.27 l 16.58,-23.74 66.32,-94.98 c 22.61,-31.31 42.95,-64.17 64.07,-96.5 20.87,-32.49 42.25,-64.66 62.69,-97.42 l 59.68,-99.34 29.79,-49.7 28.23,-50.61 56.46,-101.23 53.43,-102.88 26.69,-51.45 c 8.8,-17.2 16.96,-34.73 25.46,-52.08 l 50.56,-104.36 c 16.27,-35.06 31.85,-70.45 47.81,-105.67 l 23.81,-52.88 c 7.75,-17.72 15,-35.64 22.52,-53.45 l 44.77,-107.03 42.04,-108.16 c 6.92,-18.05 14.16,-36 20.85,-54.15 l 19.67,-54.59 c 13.01,-36.43 26.83,-72.59 39.24,-109.24 l 37.1,-110 c 12.61,-36.59 23.39,-73.78 35.17,-110.65 92.15,-295.64 165.07,-597.37 221.34,-902.24 28.3,-152.42 51.88,-305.77 70.55,-459.76 9.51,-76.97 17.28,-154.16 23.99,-231.44 6.77,-77.24 12.48,-154.78 14.94,-232.08 v -0.2 c 0.11,-3.3 2.81,-5.9 6.13,-5.9 3.37,0 6.09,2.8 6.09,6.1 -0.39,155.94 -10.46,311.32 -25.49,466.3 -14.93,154.97 -34.82,309.5 -59.49,463.32 -24.79,153.8 -55.06,306.72 -89.36,458.76 -33.87,152.16 -74.27,302.86 -118.6,452.36 -87.82,299.33 -198.43,592.03 -327.85,876.23 l -50.31,105.77 c -8.47,17.59 -16.58,35.36 -25.35,52.81 l -26.8,52.08 -53.8,104.08 -56.88,102.45 -28.44,51.22 -30.03,50.33 -60.17,100.58 c -20.62,33.19 -42.18,65.78 -63.24,98.7 -21.31,32.75 -41.83,66.03 -64.65,97.78 l -66.95,96.23 -16.75,24.1 c -5.68,7.9 -11.68,15.6 -17.51,23.4 l -35.2,46.7 -140.83,186.6 c -11.79,15.5 -23.32,31.2 -35.34,46.6 l -36.8,45.4 -73.6,90.8 -73.6,90.8 -36.8,45.4 -38.18,44.2 -153.44,176.3 -38.45,44 -39.7,42.9 -79.41,85.7 c -104.45,115.6 -215.38,225.1 -324.59,336.1 l -168.52,161.8 -42.14,40.5 -43.14,39.3 -86.32,78.7 c -28.96,26 -57.35,52.6 -86.76,78.1 l -88.32,76.4 -88.31,76.4 -89.97,74.4 -90.25,74.1 -91.8,72.1 c -60.79,48.5 -123.22,95 -185.34,141.8 -30.85,23.7 -62.73,46.1 -94.12,69 -31.44,22.9 -62.93,45.7 -94.98,67.8 -31.98,22.1 -63.9,44.4 -96.41,65.7 -32.28,21.7 -64.85,42.9 -97.87,63.6 -0.56,0.4 -1.2,0.6 -1.83,0.6"
         id="path40" /></clipPath><linearGradient
       x1="0"
       y1="0"
       x2="1"
       y2="0"
       gradientUnits="userSpaceOnUse"
       gradientTransform="matrix(-21805.9,0,0,-21805.9,23278,8461.04)"
       spreadMethod="pad"
       id="linearGradient48"><stop
         style="stop-opacity:1;stop-color:#c5d5fc"
         offset="0"
         id="stop44" /><stop
         style="stop-opacity:1;stop-color:#c9d8fc"
         offset="1"
         id="stop46" /></linearGradient><clipPath
       clipPathUnits="userSpaceOnUse"
       id="clipPath58"><path
         d="m 8867.22,6373.8 c -3.32,0 -6.02,2.6 -6.13,5.9 v 0.2 c -2.46,77.3 -8.17,154.84 -14.94,232.08 -6.71,77.28 -14.48,154.47 -23.99,231.44 -18.67,153.99 -42.25,307.34 -70.55,459.76 -56.27,304.87 -129.19,606.6 -221.34,902.24 -11.78,36.87 -22.56,74.06 -35.17,110.65 l -37.1,110 c -12.41,36.65 -26.23,72.81 -39.24,109.24 l -19.67,54.59 c -6.69,18.15 -13.93,36.1 -20.85,54.15 l -42.04,108.16 -44.77,107.03 c -7.52,17.81 -14.77,35.73 -22.52,53.45 l -23.81,52.88 c -15.96,35.22 -31.54,70.61 -47.81,105.67 l -50.56,104.36 c -8.5,17.35 -16.66,34.88 -25.46,52.08 l -26.69,51.45 -53.43,102.88 -56.46,101.23 -28.23,50.61 -29.79,49.7 -59.68,99.34 c -20.44,32.76 -41.82,64.93 -62.69,97.42 -21.12,32.33 -41.46,65.19 -64.07,96.5 l -66.32,94.98 -16.58,23.74 c -5.62,7.87 -11.56,15.57 -17.32,23.27 l -34.83,46.5 -139.3,186 c -11.67,15.5 -23.08,31.1 -34.97,46.4 l -36.42,45.3 -72.85,90.5 -72.85,90.5 -36.43,45.3 -37.81,44.1 -151.12,176.7 -37.83,44.1 -39.11,43 -78.19,86 c -52.24,57.2 -103.68,115.2 -158.15,170.4 l -161.04,167.7 -165.34,163.6 -41.36,40.9 -42.37,39.8 -84.68,79.7 c -28.31,26.5 -56.06,53.6 -84.83,79.6 l -86.41,77.9 -86.42,77.9 -88.12,76 c -234.34,203.3 -477.07,397.6 -731.86,575.1 l -0.08,0.1 c -1.58,1 -1.96,3.2 -0.87,4.8 0.67,0.9 1.75,1.5 2.85,1.5 0.63,0 1.27,-0.2 1.83,-0.6 33.02,-20.7 65.59,-41.9 97.87,-63.6 32.51,-21.3 64.43,-43.6 96.41,-65.7 32.05,-22.1 63.54,-44.9 94.98,-67.8 31.39,-22.9 63.27,-45.3 94.12,-69 62.12,-46.8 124.55,-93.3 185.34,-141.8 l 91.8,-72.1 90.25,-74.1 89.97,-74.4 88.31,-76.4 88.32,-76.4 c 29.41,-25.5 57.8,-52.1 86.76,-78.1 l 86.32,-78.7 43.14,-39.3 42.14,-40.5 168.52,-161.8 c 109.21,-111 220.14,-220.5 324.59,-336.1 l 79.41,-85.7 39.7,-42.9 38.45,-44 153.44,-176.3 38.18,-44.2 36.8,-45.4 73.6,-90.8 73.6,-90.8 36.8,-45.4 c 12.02,-15.4 23.55,-31.1 35.34,-46.6 l 140.83,-186.6 35.2,-46.7 c 5.83,-7.8 11.83,-15.5 17.51,-23.4 l 16.75,-24.1 66.95,-96.23 c 22.82,-31.75 43.34,-65.03 64.65,-97.78 21.06,-32.92 42.62,-65.51 63.24,-98.7 l 60.17,-100.58 30.03,-50.33 28.44,-51.22 56.88,-102.45 53.8,-104.08 26.8,-52.08 c 8.77,-17.45 16.88,-35.22 25.35,-52.81 l 50.31,-105.77 c 129.42,-284.2 240.03,-576.9 327.85,-876.23 44.33,-149.5 84.73,-300.2 118.6,-452.36 34.3,-152.04 64.57,-304.96 89.36,-458.76 24.67,-153.82 44.56,-308.35 59.49,-463.32 15.03,-154.98 25.1,-310.36 25.49,-466.3 0,-3.3 -2.72,-6.1 -6.09,-6.1"
         id="path56" /></clipPath><linearGradient
       x1="0"
       y1="0"
       x2="1"
       y2="0"
       gradientUnits="userSpaceOnUse"
       gradientTransform="matrix(-21805.9,0,0,-21805.9,23278,8461.04)"
       spreadMethod="pad"
       id="linearGradient64"><stop
         style="stop-opacity:1;stop-color:#dde7fd"
         offset="0"
         id="stop60" /><stop
         style="stop-opacity:1;stop-color:#e1eafd"
         offset="1"
         id="stop62" /></linearGradient><clipPath
       clipPathUnits="userSpaceOnUse"
       id="clipPath82"><path
         d="m 13902.3,3287.6 c -104.8,0 -26,337.2 -11.8,380.4 63.5,193.4 123,381.8 154.5,584.7 83.7,538.1 232.2,1255.7 485.4,1971.7 81.6,99.6 168.1,198.3 258.8,293.13 -20.7,-37.73 -40.8,-75.83 -60.5,-114.13 -54.4,-106.6 -103.1,-215.8 -149.2,-326 -90.3,-221.2 -167.4,-447.5 -233.5,-676.7 -0.5,-1.8 0.5,-3.7 2.2,-4.2 0.4,-0.1 0.7,-0.2 1,-0.2 1.5,0 2.8,1 3.3,2.4 71.3,227.5 150.9,452.4 244.5,671.4 24.5,54.2 47.5,109.1 73.7,162.5 12.8,26.9 25,54 38.4,80.5 l 40.4,79.6 c 34.6,66 70.7,131.27 108.8,195.35 381,380.44 831.6,683.24 1311.3,705.19 69.9,3.2 142,4.48 216.1,4.48 149,0 306.2,-5.17 470.1,-10.35 164,-5.17 334.8,-10.35 511,-10.35 185.7,0 377.6,5.76 573.7,23.34 13.7,-9.6 27.3,-19.29 40.9,-29.06 192.6,-139.28 375.5,-293.23 542.5,-462.93 l 0.1,-0.09 c 0.7,-0.7 1.6,-1.05 2.5,-1.05 0.9,0 1.7,0.31 2.4,0.93 1.5,1.31 1.5,3.55 0.2,5 -80.6,88.31 -167.1,170.77 -256.1,250.4 -89.2,79.5 -181.7,155.42 -277.8,226.58 -6.2,4.54 -12.3,9.08 -18.5,13.59 500.8,48.53 1029.4,176.1 1558.7,482.99 798.3,-740.99 1329.7,-1136.93 1674.2,-1243.95 98.7,-30.64 138.2,-149.77 79.8,-234.97 -283.1,-412.8 -1015.3,-1301.1 -2072.9,-1301.1 -104.2,0 -211.5,8.6 -321.8,27.2 -1194.9,200.6 -2527.9,959.1 -3393.3,959.1 -271.7,0 -497.3,-74.7 -658.1,-265 -673,-796.2 -648,-1283.5 -708.2,-1687.8 -22.6,-151.6 -29.6,-623.4 -167.5,-724.1 -27.1,-19.8 -48.5,-28.5 -65.3,-28.5"
         id="path80" /></clipPath><linearGradient
       x1="0"
       y1="0"
       x2="1"
       y2="0"
       gradientUnits="userSpaceOnUse"
       gradientTransform="matrix(-21805.9,0,0,-21805.9,23278,8461.04)"
       spreadMethod="pad"
       id="linearGradient88"><stop
         style="stop-opacity:1;stop-color:#98b7fa"
         offset="0"
         id="stop84" /><stop
         style="stop-opacity:1;stop-color:#99b8fa"
         offset="1"
         id="stop86" /></linearGradient><clipPath
       clipPathUnits="userSpaceOnUse"
       id="clipPath100"><path
         d="m 14349.2,5396.3 c -0.3,0 -0.6,0.1 -1,0.2 -1.7,0.5 -2.7,2.4 -2.2,4.2 66.1,229.2 143.2,455.5 233.5,676.7 46.1,110.2 94.8,219.4 149.2,326 19.7,38.3 39.8,76.4 60.5,114.13 22.8,23.77 45.8,47.28 69.1,70.52 -38.1,-64.08 -74.2,-129.35 -108.8,-195.35 l -40.4,-79.6 c -13.4,-26.5 -25.6,-53.6 -38.4,-80.5 -26.2,-53.4 -49.2,-108.3 -73.7,-162.5 -93.6,-219 -173.2,-443.9 -244.5,-671.4 -0.5,-1.4 -1.8,-2.4 -3.3,-2.4 m 4177.3,1410.93 c -0.9,0 -1.8,0.35 -2.5,1.05 l -0.1,0.09 c -167,169.7 -349.9,323.65 -542.5,462.93 -13.6,9.77 -27.2,19.46 -40.9,29.06 12.1,1.08 24.1,2.2 36.2,3.37 6.2,-4.51 12.3,-9.05 18.5,-13.59 96.1,-71.16 188.6,-147.08 277.8,-226.58 89,-79.63 175.5,-162.09 256.1,-250.4 1.3,-1.45 1.3,-3.69 -0.2,-5 -0.7,-0.62 -1.5,-0.93 -2.4,-0.93"
         id="path98" /></clipPath><linearGradient
       x1="0"
       y1="0"
       x2="1"
       y2="0"
       gradientUnits="userSpaceOnUse"
       gradientTransform="matrix(-21805.9,0,0,-21805.9,23278,8461.04)"
       spreadMethod="pad"
       id="linearGradient106"><stop
         style="stop-opacity:1;stop-color:#cadafd"
         offset="0"
         id="stop102" /><stop
         style="stop-opacity:1;stop-color:#cbdbfd"
         offset="1"
         id="stop104" /></linearGradient><clipPath
       clipPathUnits="userSpaceOnUse"
       id="clipPath118"><path
         d="M 21797.7,1325.5 H 3075.42 c -397.83,0 -720.34,322.5 -720.34,720.4 v 1551.3 c 0,175.5 142.29,317.8 317.82,317.8 h 19124.8 c 175.5,0 317.8,-142.3 317.8,-317.8 V 1643.3 c 0,-175.5 -142.3,-317.8 -317.8,-317.8 z"
         id="path116" /></clipPath><linearGradient
       x1="0"
       y1="0"
       x2="1"
       y2="0"
       gradientUnits="userSpaceOnUse"
       gradientTransform="matrix(-150.016,-4710.48,-4710.48,150.016,12194.8,1350.4)"
       spreadMethod="pad"
       id="linearGradient124"><stop
         style="stop-opacity:1;stop-color:#4042e2"
         offset="0"
         id="stop120" /><stop
         style="stop-opacity:1;stop-color:#4f52ff"
         offset="1"
         id="stop122" /></linearGradient><clipPath
       clipPathUnits="userSpaceOnUse"
       id="clipPath134"><path
         d="m 8458.34,7517.87 c 819.11,423.96 -149.43,1543.77 -193.66,1585.51 l 1705.64,-131.82 c 0,0 339.38,-713.41 -446.97,-1662.89 -198.96,-240.2 -467.72,-225.3 -697.85,-303.12 -64.32,305.53 -208.65,362.52 -367.16,512.32 z"
         id="path132" /></clipPath><linearGradient
       x1="0"
       y1="0"
       x2="1"
       y2="0"
       gradientUnits="userSpaceOnUse"
       gradientTransform="matrix(2339.88,2699.86,2699.86,-2339.88,7544.53,6648.8)"
       spreadMethod="pad"
       id="linearGradient140"><stop
         style="stop-opacity:1;stop-color:#ff928e"
         offset="0"
         id="stop136" /><stop
         style="stop-opacity:1;stop-color:#feb3b1"
         offset="1"
         id="stop138" /></linearGradient><clipPath
       clipPathUnits="userSpaceOnUse"
       id="clipPath152"><path
         d="m 9355.76,12075.9 437.23,-1053.3 c 36.18,-78.9 24.03,-172 -32.88,-237.5 -115.03,-132.3 -350.88,-306.9 -735.31,-171.9 -114.35,40.1 -199.05,138 -222.05,257 l -169.44,876.7 z"
         id="path150" /></clipPath><linearGradient
       x1="0"
       y1="0"
       x2="1"
       y2="0"
       gradientUnits="userSpaceOnUse"
       gradientTransform="matrix(-1312.57,348.614,-348.614,-1312.57,9882.37,11159.2)"
       spreadMethod="pad"
       id="linearGradient158"><stop
         style="stop-opacity:1;stop-color:#ff928e"
         offset="0"
         id="stop154" /><stop
         style="stop-opacity:1;stop-color:#feb3b1"
         offset="1"
         id="stop156" /></linearGradient><clipPath
       clipPathUnits="userSpaceOnUse"
       id="clipPath168"><path
         d="m 7991.66,12636.3 c -1.97,-22.3 373.46,-1453.8 373.46,-1453.8 l 812.82,231.7 -154.25,1409.7 c 0,0 -999.06,185.7 -1032.03,-187.6 z"
         id="path166" /></clipPath><linearGradient
       x1="0"
       y1="0"
       x2="1"
       y2="0"
       gradientUnits="userSpaceOnUse"
       gradientTransform="matrix(1493.59,-2386.75,2386.75,1493.59,8322.68,12597.2)"
       spreadMethod="pad"
       id="linearGradient174"><stop
         style="stop-opacity:1;stop-color:#ff928e"
         offset="0"
         id="stop170" /><stop
         style="stop-opacity:1;stop-color:#feb3b1"
         offset="1"
         id="stop172" /></linearGradient><clipPath
       clipPathUnits="userSpaceOnUse"
       id="clipPath184"><path
         d="m 8855.97,12498.6 139.31,-735.7 c 1.79,-9.5 2.29,-18.9 1.46,-28.4 -5.09,-58.6 -37.38,-258.7 -240.16,-213.2 -184.01,41.3 -352.54,76.3 -465.33,34.8 -50.65,-18.6 -78.85,-72.5 -65.15,-124.7 34.14,-130 116.51,-421.7 226.72,-664.1 22.37,-49.2 78.89,-72.6 129.87,-54.6 153.59,54.1 474.34,177.3 709.16,336.9 31.82,21.7 49.44,58.5 45.7,96.8 -18.23,186.7 -71.52,754.2 -61.92,914.7 9.03,150.6 187.73,250.4 265.75,286.9 25.58,12 44.94,33.7 53.95,60.5 31.84,94.7 70.94,311.7 -203.93,384.6 -57.53,15.3 -90.68,74.6 -73.69,131.6 33.85,113.6 41.33,284.4 -172.73,366.5 -217.58,83.4 -369.9,-38.5 -450.43,-135.3 -32.57,-39.1 -87.81,-47.8 -132.26,-23 -25.31,14.1 -57.09,17.4 -93.85,-8.4 -49.52,-34.8 -118.65,-16.8 -148.11,36.1 -56.62,101.5 -166.41,207.6 -372.31,160.5 -365.36,-83.5 -384.56,-494.6 -274.03,-728.7 110.54,-234.1 501.5,-121 693.49,10.7 145.98,100.1 347.22,14.7 435.3,-32 27.9,-14.8 47.31,-41.5 53.19,-72.5 z"
         id="path182" /></clipPath><linearGradient
       x1="0"
       y1="0"
       x2="1"
       y2="0"
       gradientUnits="userSpaceOnUse"
       gradientTransform="matrix(-2020.19,178.455,-178.455,-2020.19,9566.62,11943.4)"
       spreadMethod="pad"
       id="linearGradient190"><stop
         style="stop-opacity:1;stop-color:#09005d"
         offset="0"
         id="stop186" /><stop
         style="stop-opacity:1;stop-color:#1a0f91"
         offset="1"
         id="stop188" /></linearGradient><clipPath
       clipPathUnits="userSpaceOnUse"
       id="clipPath200"><path
         d="m 9323.69,11792.7 c 0,0 -175.09,416.2 -25.04,528.8 150.04,112.6 383.76,71.4 349.95,-239 -42.06,-386.1 -324.91,-289.8 -324.91,-289.8 z"
         id="path198" /></clipPath><linearGradient
       x1="0"
       y1="0"
       x2="1"
       y2="0"
       gradientUnits="userSpaceOnUse"
       gradientTransform="matrix(-1233.56,1511.55,-1511.55,-1233.56,10643.1,10606.6)"
       spreadMethod="pad"
       id="linearGradient206"><stop
         style="stop-opacity:1;stop-color:#ff928e"
         offset="0"
         id="stop202" /><stop
         style="stop-opacity:1;stop-color:#feb3b1"
         offset="1"
         id="stop204" /></linearGradient><clipPath
       clipPathUnits="userSpaceOnUse"
       id="clipPath216"><path
         d="M 23003.8,3287.8 H 1693.73 c -122.45,0 -221.7,99.3 -221.7,221.7 v 811 c 0,122.4 99.25,221.7 221.7,221.7 H 23003.8 c 122.5,0 221.7,-99.3 221.7,-221.7 v -811 c 0,-122.4 -99.2,-221.7 -221.7,-221.7 z"
         id="path214" /></clipPath><linearGradient
       x1="0"
       y1="0"
       x2="1"
       y2="0"
       gradientUnits="userSpaceOnUse"
       gradientTransform="matrix(-270.031,-3600.37,-3600.37,270.031,12607.4,7362.91)"
       spreadMethod="pad"
       id="linearGradient222"><stop
         style="stop-opacity:1;stop-color:#4042e2"
         offset="0"
         id="stop218" /><stop
         style="stop-opacity:1;stop-color:#4f52ff"
         offset="1"
         id="stop220" /></linearGradient><clipPath
       clipPathUnits="userSpaceOnUse"
       id="clipPath232"><path
         d="m 15340.6,4881.5 c 0,0 4186.6,27.2 4781.2,30.4 562.5,3.1 1770.3,-112.6 2223.7,-635.4 38.8,-44.7 109.1,-42 145.2,5 l 121,157.8 c 0,0 -315.9,264.2 -794.6,654.2 -328.6,267.6 -456.4,430.6 -548.5,502.7 -42.1,33 -161.9,21.1 -205.5,-9.8 l -186,-131.8 c -106.7,-49.9 -226.8,-63 -341.7,-37.2 -621.2,139.1 -2686.4,603.7 -3130.7,728.4 -524.6,147.2 -1386,118.9 -1983.2,-352.4 -597.1,-471.2 -80.9,-911.9 -80.9,-911.9 z"
         id="path230" /></clipPath><linearGradient
       x1="0"
       y1="0"
       x2="1"
       y2="0"
       gradientUnits="userSpaceOnUse"
       gradientTransform="matrix(-750.074,-5220.52,-5220.52,750.074,19113.5,6566.5)"
       spreadMethod="pad"
       id="linearGradient238"><stop
         style="stop-opacity:1;stop-color:#ff928e"
         offset="0"
         id="stop234" /><stop
         style="stop-opacity:1;stop-color:#feb3b1"
         offset="1"
         id="stop236" /></linearGradient><clipPath
       clipPathUnits="userSpaceOnUse"
       id="clipPath248"><path
         d="m 3212.49,4551.8 c -8.12,-2.8 -1163.04,-393.4 -999.34,1003.4 0,0 -181.99,651.4 440.44,754.6 0,0 234.36,458.91 811,205.9 -175.44,337.77 -310.32,742.54 145.88,906.28 176.65,63.41 373.41,49.6 553.94,-1.72 293.8,-83.5 571,-282.34 671.88,-570.64 100.88,-288.3 -28.5,-659.92 -316.24,-762.42 -79.35,-28.3 -183.56,-54.2 -194.86,-137.7 -7.58,-55.9 34.55,-104.6 69.35,-149 139.78,-178.6 188.75,-455 39.39,-625.6 -123,-140.5 -329.82,-162.5 -516.13,-174.9 -179.3,-11.9 -315.29,-1.3 -450.56,-125.8 -82.44,-75.9 -150.11,-286.1 -254.75,-322.4 z"
         id="path246" /></clipPath><linearGradient
       x1="0"
       y1="0"
       x2="1"
       y2="0"
       gradientUnits="userSpaceOnUse"
       gradientTransform="matrix(1407.14,-1675.89,-1675.89,-1407.14,1978.72,7748.89)"
       spreadMethod="pad"
       id="linearGradient254"><stop
         style="stop-opacity:1;stop-color:#09005d"
         offset="0"
         id="stop250" /><stop
         style="stop-opacity:1;stop-color:#1a0f91"
         offset="1"
         id="stop252" /></linearGradient><clipPath
       clipPathUnits="userSpaceOnUse"
       id="clipPath264"><path
         d="m 5784.76,5069.2 c -12.53,32.2 -24.69,61.7 -36.64,87.1 -77.34,164.2 -230.36,379.8 -242.2,559.1 -20.41,309.4 336.23,592.7 605.31,690.6 952.68,346.71 1763.54,94.65 2718.48,-64.2 566.28,-94.1 1241.99,-189.1 1789.79,38.4 0,0 868.9,-894.8 68.1,-1760 -70.5,-76.2 -454.1,-85.2 -553.4,-106.2 -1172.2,-247.4 -2348.63,-88.5 -3537.13,-17.5 -155.04,9.3 -411.08,-55.1 -544.99,49.6 -119.33,93.4 -198.97,347.7 -267.32,523.1 z"
         id="path262" /></clipPath><linearGradient
       x1="0"
       y1="0"
       x2="1"
       y2="0"
       gradientUnits="userSpaceOnUse"
       gradientTransform="matrix(6120.6,480.048,480.048,-6120.6,4101.98,5172.7)"
       spreadMethod="pad"
       id="linearGradient270"><stop
         style="stop-opacity:1;stop-color:#ff928e"
         offset="0"
         id="stop266" /><stop
         style="stop-opacity:1;stop-color:#feb3b1"
         offset="1"
         id="stop268" /></linearGradient><clipPath
       clipPathUnits="userSpaceOnUse"
       id="clipPath280"><path
         d="m 4305.62,5604.7 c 0,0 1291.08,707.2 1799.15,760.8 0,0 70.79,-689.2 -256.45,-1129.9 0,0 -1151.43,-96.4 -1355.07,-170.1 z"
         id="path278" /></clipPath><linearGradient
       x1="0"
       y1="0"
       x2="1"
       y2="0"
       gradientUnits="userSpaceOnUse"
       gradientTransform="matrix(6120.6,480.048,480.048,-6120.6,4066.99,5618.9)"
       spreadMethod="pad"
       id="linearGradient286"><stop
         style="stop-opacity:1;stop-color:#ff928e"
         offset="0"
         id="stop282" /><stop
         style="stop-opacity:1;stop-color:#feb3b1"
         offset="1"
         id="stop284" /></linearGradient><clipPath
       clipPathUnits="userSpaceOnUse"
       id="clipPath296"><path
         d="m 3122.49,4534.9 c 0,0 1811.3,-315.1 1925.99,449 114.71,764.1 -1173.06,989.2 -1173.06,989.2 0,0 -845.35,-131.2 -983.27,-485.3 -137.94,-354.1 230.34,-952.9 230.34,-952.9 z"
         id="path294" /></clipPath><linearGradient
       x1="0"
       y1="0"
       x2="1"
       y2="0"
       gradientUnits="userSpaceOnUse"
       gradientTransform="matrix(714.931,-3013.9,-3013.9,-714.931,-13440.6,78525.1)"
       spreadMethod="pad"
       id="linearGradient302"><stop
         style="stop-opacity:1;stop-color:#ff928e"
         offset="0"
         id="stop298" /><stop
         style="stop-opacity:1;stop-color:#feb3b1"
         offset="1"
         id="stop300" /></linearGradient><clipPath
       clipPathUnits="userSpaceOnUse"
       id="clipPath312"><path
         d="m 2435.28,5440.6 c 0,0 211.33,-458.2 442.73,-481.7 231.42,-23.4 281.76,767.4 249.16,979.6 l 844.56,346.9 c 0,0 -927.86,333.47 -1365.22,38.7 -437.36,-294.8 -171.23,-883.5 -171.23,-883.5 z"
         id="path310" /></clipPath><linearGradient
       x1="0"
       y1="0"
       x2="1"
       y2="0"
       gradientUnits="userSpaceOnUse"
       gradientTransform="matrix(2987.52,-2974.92,-2974.92,-2987.52,101.643,8890.15)"
       spreadMethod="pad"
       id="linearGradient318"><stop
         style="stop-opacity:1;stop-color:#09005d"
         offset="0"
         id="stop314" /><stop
         style="stop-opacity:1;stop-color:#1a0f91"
         offset="1"
         id="stop316" /></linearGradient><clipPath
       clipPathUnits="userSpaceOnUse"
       id="clipPath328"><path
         d="m 3854.2,5770.5 c 0,0 -554.7,312.4 -279.6,536.8 275.1,224.44 613.24,-258.1 499.11,-471.9 z"
         id="path326" /></clipPath><linearGradient
       x1="0"
       y1="0"
       x2="1"
       y2="0"
       gradientUnits="userSpaceOnUse"
       gradientTransform="matrix(-49.0659,-3097.14,-3097.14,49.0659,5066.03,86138.1)"
       spreadMethod="pad"
       id="linearGradient334"><stop
         style="stop-opacity:1;stop-color:#ff928e"
         offset="0"
         id="stop330" /><stop
         style="stop-opacity:1;stop-color:#feb3b1"
         offset="1"
         id="stop332" /></linearGradient><clipPath
       clipPathUnits="userSpaceOnUse"
       id="clipPath344"><path
         d="m 14135.1,4343.9 c 74.3,-32.8 1550.1,-127.9 1691.5,-118.6 l 5240.2,429.6 c 63.3,5.2 126.9,0.5 188.9,-13.8 212.2,-48.8 724.1,-185.2 1125.7,-440.7 l 120.1,-154.8 c 40.4,-52.1 123.2,-33.8 137.8,30.6 l 82.8,365.4 c 18.7,82.7 -17.5,168.3 -90.3,211.7 -361.8,215.8 -685.3,444.6 -942.8,696 -133.7,103.7 -322,98.2 -449.4,-13.1 l -79.2,-69.2 c -145,-92.7 -315.6,-136.8 -487.4,-125.8 -636.6,40.7 -2250.5,157.7 -2976.3,339.2 -824.8,206.2 -1837.1,-327.2 -1837.1,-327.2 l -519.6,433.5 z"
         id="path342" /></clipPath><linearGradient
       x1="0"
       y1="0"
       x2="1"
       y2="0"
       gradientUnits="userSpaceOnUse"
       gradientTransform="matrix(-2280.23,-3540.35,-3540.35,2280.23,22539,10651.7)"
       spreadMethod="pad"
       id="linearGradient350"><stop
         style="stop-opacity:1;stop-color:#ff928e"
         offset="0"
         id="stop346" /><stop
         style="stop-opacity:1;stop-color:#feb3b1"
         offset="1"
         id="stop348" /></linearGradient><clipPath
       clipPathUnits="userSpaceOnUse"
       id="clipPath362"><path
         d="m 6691.13,5688.9 c 1465.8,-161.3 3603.07,-913.2 5918.87,-1451.8 536.3,133.3 844.5,63.2 1145.6,-119.6 63.4,-38.4 29.7,-135.9 -43.9,-126.6 -437.5,55.6 -804.9,95.4 -1090,-44.3 -2219.1,374 -4280.19,506.6 -6138.62,570.3 -501.86,99.1 -659.48,540.8 -429.65,883.4 139.85,208.5 388.17,316.1 637.7,288.6 z"
         id="path360" /></clipPath><linearGradient
       x1="0"
       y1="0"
       x2="1"
       y2="0"
       gradientUnits="userSpaceOnUse"
       gradientTransform="matrix(-990.098,-2340.23,-2340.23,990.098,12778.5,11491.6)"
       spreadMethod="pad"
       id="linearGradient368"><stop
         style="stop-opacity:1;stop-color:#ff928e"
         offset="0"
         id="stop364" /><stop
         style="stop-opacity:1;stop-color:#feb3b1"
         offset="1"
         id="stop366" /></linearGradient><clipPath
       clipPathUnits="userSpaceOnUse"
       id="clipPath378"><path
         d="m 5867.02,6983.29 c -295.75,0 -536.35,-240.6 -536.35,-536.39 0,-295.7 240.6,-536.3 536.35,-536.3 295.75,0 536.35,240.6 536.35,536.3 0,295.79 -240.6,536.39 -536.35,536.39 z m 0,-1232.79 c -384.02,0 -696.45,312.4 -696.45,696.4 0,384.08 312.43,696.5 696.45,696.5 384.02,0 696.45,-312.42 696.45,-696.5 0,-384 -312.43,-696.4 -696.45,-696.4 z"
         id="path376" /></clipPath><linearGradient
       x1="0"
       y1="0"
       x2="1"
       y2="0"
       gradientUnits="userSpaceOnUse"
       gradientTransform="matrix(-276.358,-1441.01,-1441.01,276.358,6305.87,8735.21)"
       spreadMethod="pad"
       id="linearGradient384"><stop
         style="stop-opacity:1;stop-color:#e1473d"
         offset="0"
         id="stop380" /><stop
         style="stop-opacity:1;stop-color:#e9605a"
         offset="1"
         id="stop382" /></linearGradient><clipPath
       clipPathUnits="userSpaceOnUse"
       id="clipPath394"><path
         d="m 6267.28,6446.9 c 0,-221 -179.2,-400.2 -400.26,-400.2 -221.06,0 -400.26,179.2 -400.26,400.2 0,221.1 179.2,400.31 400.26,400.31 221.06,0 400.26,-179.21 400.26,-400.31 z"
         id="path392" /></clipPath><linearGradient
       x1="0"
       y1="0"
       x2="1"
       y2="0"
       gradientUnits="userSpaceOnUse"
       gradientTransform="matrix(-276.359,-1441.02,-1441.02,276.359,6305.86,8735.2)"
       spreadMethod="pad"
       id="linearGradient400"><stop
         style="stop-opacity:1;stop-color:#e1473d"
         offset="0"
         id="stop396" /><stop
         style="stop-opacity:1;stop-color:#e9605a"
         offset="1"
         id="stop398" /></linearGradient><clipPath
       clipPathUnits="userSpaceOnUse"
       id="clipPath410"><path
         d="m 17404.2,5809 c -263.1,0 -477.2,-214.1 -477.2,-477.2 0,-263.2 214.1,-477.3 477.2,-477.3 263.2,0 477.3,214.1 477.3,477.3 0,263.1 -214.1,477.2 -477.3,477.2 z m 0,-1096.9 c -341.7,0 -619.7,278 -619.7,619.7 0,341.7 278,619.7 619.7,619.7 341.7,0 619.7,-278 619.7,-619.7 0,-341.7 -278,-619.7 -619.7,-619.7 z"
         id="path408" /></clipPath><linearGradient
       x1="0"
       y1="0"
       x2="1"
       y2="0"
       gradientUnits="userSpaceOnUse"
       gradientTransform="matrix(-415.119,-2366.19,-2366.19,415.119,17856.9,7911.77)"
       spreadMethod="pad"
       id="linearGradient416"><stop
         style="stop-opacity:1;stop-color:#e1473d"
         offset="0"
         id="stop412" /><stop
         style="stop-opacity:1;stop-color:#e9605a"
         offset="1"
         id="stop414" /></linearGradient><clipPath
       clipPathUnits="userSpaceOnUse"
       id="clipPath426"><path
         d="m 17760.4,5331.8 c 0,-196.7 -159.5,-356.2 -356.2,-356.2 -196.7,0 -356.1,159.5 -356.1,356.2 0,196.7 159.4,356.1 356.1,356.1 196.7,0 356.2,-159.4 356.2,-356.1 z"
         id="path424" /></clipPath><linearGradient
       x1="0"
       y1="0"
       x2="1"
       y2="0"
       gradientUnits="userSpaceOnUse"
       gradientTransform="matrix(-415.12,-2366.19,-2366.19,415.12,17856.9,7911.77)"
       spreadMethod="pad"
       id="linearGradient432"><stop
         style="stop-opacity:1;stop-color:#e1473d"
         offset="0"
         id="stop428" /><stop
         style="stop-opacity:1;stop-color:#e9605a"
         offset="1"
         id="stop430" /></linearGradient><clipPath
       clipPathUnits="userSpaceOnUse"
       id="clipPath442"><path
         d="m 9175.97,6952.67 c 112.62,-133.48 2583.33,653.65 2411.33,885.75 274.5,-88.83 622.5,-338.26 942.6,-919.15 -734.3,-500.47 -2617.3,-604.77 -3034.04,-468.77 -70.89,23.2 -144.95,33 -214.95,7.2 -141.53,-52 -387.18,-134.1 -526.37,-133.4 -203.64,1 -384.95,-743.8 -739.84,-575.2 0,0 94.46,1261.62 1161.27,1203.57 z"
         id="path440" /></clipPath><linearGradient
       x1="0"
       y1="0"
       x2="1"
       y2="0"
       gradientUnits="userSpaceOnUse"
       gradientTransform="matrix(5834.16,-7363.61,7363.61,5834.16,9882.39,6860.79)"
       spreadMethod="pad"
       id="linearGradient448"><stop
         style="stop-opacity:1;stop-color:#ff928e"
         offset="0"
         id="stop444" /><stop
         style="stop-opacity:1;stop-color:#feb3b1"
         offset="1"
         id="stop446" /></linearGradient><clipPath
       clipPathUnits="userSpaceOnUse"
       id="clipPath462"><path
         d="m 6887.86,6829.54 c 21.68,18.56 43.29,36.81 64.93,54.39 117.17,95.18 234.37,190.33 351.5,285.55 103.2,83.89 239.84,110.97 370.81,131.71 142.59,22.58 291.15,19.85 432.05,52.12 117.62,26.96 324,174.34 436.54,215.55 159.2,58.31 355.75,-444.55 381.28,-532.14 -205.94,-72.12 -486.68,-116.51 -703.78,-124.32 -129.42,-4.97 -264.62,-15.53 -388.72,-53.23 -14.77,-4.49 -29.93,-9.18 -42.01,-18.79 -44.99,-35.78 -38.97,-149.95 -62.65,-203.83 -26.93,-61.28 -71.07,-128.33 -70.44,-197.65 0,-77.7 53.87,-155.1 93.14,-218.5 -55.72,-23.6 -122.68,-18.4 -174.14,13.4 -37.52,23.1 -65.91,58.6 -88.82,96.3 -38.58,63.4 -50.26,278.82 -136.34,296.37 -117.38,23.89 -263.31,-154.27 -352.83,-212.47 -92.87,-60.2 -204.52,-111.7 -315.1,-98 -134.62,16.7 -261.74,32 -388.66,84.3 -0.84,81.4 6.75,103.44 86.66,128.74 51.11,16.18 108.68,17.87 157.19,41.72 127.44,62.65 239.39,164.67 349.39,258.78 z"
         id="path460" /></clipPath><linearGradient
       x1="0"
       y1="0"
       x2="1"
       y2="0"
       gradientUnits="userSpaceOnUse"
       gradientTransform="matrix(2323.7,2681.19,2681.19,-2323.7,7535.93,6669.02)"
       spreadMethod="pad"
       id="linearGradient468"><stop
         style="stop-opacity:1;stop-color:#ff928e"
         offset="0"
         id="stop464" /><stop
         style="stop-opacity:1;stop-color:#feb3b1"
         offset="1"
         id="stop466" /></linearGradient><clipPath
       clipPathUnits="userSpaceOnUse"
       id="clipPath478"><path
         d="m 9332.2,6681.51 c -278.3,0 -504.7,-226.41 -504.7,-504.71 0,-278.3 226.4,-504.7 504.7,-504.7 278.3,0 504.71,226.4 504.71,504.7 0,278.3 -226.41,504.71 -504.71,504.71 z m 0,-1160.11 c -361.37,0 -655.36,294 -655.36,655.4 0,361.38 293.99,655.37 655.36,655.37 361.37,0 655.37,-293.99 655.37,-655.37 0,-361.4 -294,-655.4 -655.37,-655.4 z"
         id="path476" /></clipPath><linearGradient
       x1="0"
       y1="0"
       x2="1"
       y2="0"
       gradientUnits="userSpaceOnUse"
       gradientTransform="matrix(-773.36,-1618.66,-1618.66,773.36,10135.2,7857.4)"
       spreadMethod="pad"
       id="linearGradient484"><stop
         style="stop-opacity:1;stop-color:#e1473d"
         offset="0"
         id="stop480" /><stop
         style="stop-opacity:1;stop-color:#e9605a"
         offset="1"
         id="stop482" /></linearGradient><clipPath
       clipPathUnits="userSpaceOnUse"
       id="clipPath494"><path
         d="m 9708.85,6176.8 c 0,-208 -168.63,-376.6 -376.65,-376.6 -208.02,0 -376.64,168.6 -376.64,376.6 0,208 168.62,376.65 376.64,376.65 208.02,0 376.65,-168.65 376.65,-376.65 z"
         id="path492" /></clipPath><linearGradient
       x1="0"
       y1="0"
       x2="1"
       y2="0"
       gradientUnits="userSpaceOnUse"
       gradientTransform="matrix(-773.357,-1618.66,-1618.66,773.357,10135.2,7857.4)"
       spreadMethod="pad"
       id="linearGradient500"><stop
         style="stop-opacity:1;stop-color:#e1473d"
         offset="0"
         id="stop496" /><stop
         style="stop-opacity:1;stop-color:#e9605a"
         offset="1"
         id="stop498" /></linearGradient><clipPath
       clipPathUnits="userSpaceOnUse"
       id="clipPath530"><path
         d="m 18949.2,11150.2 c 0,0 -617.8,-791 87.1,-1595.6 l 265,24.7 c 0,0 -510.1,819.1 -282.9,1472.1 l 375.4,-27.4 207.6,135.3 z"
         id="path528" /></clipPath><linearGradient
       x1="0"
       y1="0"
       x2="1"
       y2="0"
       gradientUnits="userSpaceOnUse"
       gradientTransform="matrix(-444.115,-1361.31,-1361.31,444.115,19381.6,11250.9)"
       spreadMethod="pad"
       id="linearGradient536"><stop
         style="stop-opacity:1;stop-color:#ff928e"
         offset="0"
         id="stop532" /><stop
         style="stop-opacity:1;stop-color:#feb3b1"
         offset="1"
         id="stop534" /></linearGradient><clipPath
       clipPathUnits="userSpaceOnUse"
       id="clipPath548"><path
         d="m 20065.8,12998.4 h -0.6 l -2933.6,-151.5 c -1.5,0 -2.3,-0.6 -2.4,-0.8 1.1,-856.9 29.1,-1516.8 71.8,-1689.9 407.1,13.2 2510.6,57.7 2930.5,66.5 h 0.7 c 0.9,0 1.6,0.6 1.7,0.7 l -66.5,1775.5 z m -2879.7,-1862.3 -2,7.5 c -44.2,162.4 -73.3,831.1 -74.1,1703.6 0,10.2 9,18.6 20.6,19.2 l 2933.7,151.5 c 5.7,0.2 10.6,-1.2 14.8,-4.2 4.9,-3.5 7.6,-8.5 7.8,-14.1 l 66.3,-1776.5 c 0.4,-10.5 -8.8,-19.4 -20.6,-19.9 h -0.6 c -422.8,-8.9 -2551.1,-53.9 -2938.2,-66.8 z"
         id="path546" /></clipPath><linearGradient
       x1="0"
       y1="0"
       x2="1"
       y2="0"
       gradientUnits="userSpaceOnUse"
       gradientTransform="matrix(3043.24,0,0,-3043.24,17110,12077)"
       spreadMethod="pad"
       id="linearGradient554"><stop
         style="stop-opacity:1;stop-color:#dae3fe"
         offset="0"
         id="stop550" /><stop
         style="stop-opacity:1;stop-color:#e9effd"
         offset="1"
         id="stop552" /></linearGradient><clipPath
       clipPathUnits="userSpaceOnUse"
       id="clipPath564"><path
         d="m 19044.7,12723.1 v 0 c 2,-44.9 18.6,-80.7 37,-79.8 l 815.5,36.3 c 18.4,0.8 31.8,37.9 29.8,82.8 -2,44.9 -18.6,80.7 -37,79.9 l -815.5,-36.4 c -18.4,-0.8 -31.8,-37.9 -29.8,-82.8 z"
         id="path562" /></clipPath><linearGradient
       x1="0"
       y1="0"
       x2="1"
       y2="0"
       gradientUnits="userSpaceOnUse"
       gradientTransform="matrix(882.65,0,0,-882.65,19044.5,12742.8)"
       spreadMethod="pad"
       id="linearGradient570"><stop
         style="stop-opacity:1;stop-color:#dae3fe"
         offset="0"
         id="stop566" /><stop
         style="stop-opacity:1;stop-color:#e9effd"
         offset="1"
         id="stop568" /></linearGradient><clipPath
       clipPathUnits="userSpaceOnUse"
       id="clipPath580"><path
         d="m 19048.3,12501.9 v 0 c 1,-22.5 16.7,-40 35.2,-39.2 l 815.4,36.3 c 18.5,0.8 32.6,19.7 31.6,42.2 -1,22.4 -16.7,40 -35.2,39.2 l -815.5,-36.4 c -18.4,-0.8 -32.5,-19.7 -31.5,-42.1 z"
         id="path578" /></clipPath><linearGradient
       x1="0"
       y1="0"
       x2="1"
       y2="0"
       gradientUnits="userSpaceOnUse"
       gradientTransform="matrix(882.353,0,0,-882.353,19048.2,12521.5)"
       spreadMethod="pad"
       id="linearGradient586"><stop
         style="stop-opacity:1;stop-color:#dae3fe"
         offset="0"
         id="stop582" /><stop
         style="stop-opacity:1;stop-color:#e9effd"
         offset="1"
         id="stop584" /></linearGradient><clipPath
       clipPathUnits="userSpaceOnUse"
       id="clipPath596"><path
         d="m 19048.3,12332.5 v 0 c 1,-22.5 16.7,-40 35.2,-39.2 l 815.4,36.3 c 18.5,0.8 32.6,19.7 31.6,42.2 -1,22.4 -16.7,40 -35.2,39.2 l -815.5,-36.4 c -18.4,-0.8 -32.5,-19.7 -31.5,-42.1 z"
         id="path594" /></clipPath><linearGradient
       x1="0"
       y1="0"
       x2="1"
       y2="0"
       gradientUnits="userSpaceOnUse"
       gradientTransform="matrix(882.353,0,0,-882.353,19048.2,12352.1)"
       spreadMethod="pad"
       id="linearGradient602"><stop
         style="stop-opacity:1;stop-color:#dae3fe"
         offset="0"
         id="stop598" /><stop
         style="stop-opacity:1;stop-color:#e9effd"
         offset="1"
         id="stop600" /></linearGradient><clipPath
       clipPathUnits="userSpaceOnUse"
       id="clipPath612"><path
         d="m 18404.6,12290.9 z m -534.3,-324.2 62.9,-541.7 c 136.6,0.1 636.6,2.5 760.6,31 88.2,20.3 133.5,66.8 134,87.1 0.2,7.8 -14.4,17.4 -36.5,23.8 -18.1,5.2 -29.8,22.5 -28,41.2 1.8,18.7 16.6,33.5 35.3,35.2 26.9,2.4 55.3,33 62,66.7 4.9,24.4 0.8,58.8 -46.6,83.9 -12,6.3 -19.9,18.3 -20.8,31.9 -0.9,13.5 5.2,26.5 16.3,34.4 0.2,0.1 41,31.1 39.8,68.6 -1.1,36.3 -41.1,69.5 -74.5,90.9 -11.4,7.4 -18.2,20.2 -17.9,33.9 0.3,13.6 7.8,26 19.6,32.8 1.9,1.2 53.3,32.4 45,83.9 -6.2,38.9 -13.2,83 -156,66.5 -27.4,-3.2 -56.4,-7.7 -84.4,-12.1 -104.3,-16.2 -186.7,-28.9 -230.1,10.1 -12,10.9 -26.1,30.7 -24.5,62.9 1.2,24.9 8.4,55.6 16.7,91.1 21,89.4 49.6,211.9 -9.1,293.2 -22.8,31.5 -45.3,48.7 -58.8,44.3 -14.1,-4.5 -25.3,-27.7 -25.4,-35.7 2.4,-20.7 21,-213.5 -95.1,-346.1 -48.6,-55.6 -76.2,-128.5 -100.5,-192.9 -24.5,-65 -43.9,-116.3 -81.1,-140.9 -35.9,-23.8 -74.9,-37 -102.9,-44 z m 60.5,-619.8 c -18,0 -29.4,0 -32.6,0 -19.7,0.1 -36.3,14.9 -38.6,34.6 l -71.1,612.2 c -1.2,10.3 1.8,20.7 8.3,28.8 6.5,8.2 16,13.4 26.3,14.5 1.4,0.1 59.1,7.1 107,38.8 16.1,10.7 34.7,59.9 51.1,103.4 25.4,67.1 56.9,150.6 114.8,216.7 94,107.3 78.3,268.5 76.2,286.5 -4.6,39.6 26,97.8 73.8,116.3 29.2,11.4 87.7,17.2 151.4,-71 79.6,-110.1 44.9,-258.5 21.9,-356.7 -7.2,-30.5 -13.9,-59.3 -14.8,-77.1 v -1.8 c 19.9,-12.6 110.2,1.4 164.6,9.8 28.8,4.5 58.5,9.1 87.4,12.4 101.1,11.8 219.9,7.4 242.1,-131.6 9.2,-57.5 -15.3,-100.4 -40,-127.9 44.6,-38.2 67.7,-79.9 68.8,-124.4 1,-40.4 -16.9,-73.6 -35.1,-96.9 39,-36.3 55.6,-85.7 44.9,-138.8 -7.3,-36.8 -27.2,-69.9 -53.6,-93.5 20.1,-22.8 22.7,-47.1 22.3,-60.2 -1.9,-67.9 -83.7,-135.6 -194.6,-161.1 -134.3,-30.9 -644.5,-33 -780.5,-33 z"
         id="path610" /></clipPath><linearGradient
       x1="0"
       y1="0"
       x2="1"
       y2="0"
       gradientUnits="userSpaceOnUse"
       gradientTransform="matrix(1152.11,0,0,-1152.11,17788.3,12076)"
       spreadMethod="pad"
       id="linearGradient618"><stop
         style="stop-opacity:1;stop-color:#dae3fe"
         offset="0"
         id="stop614" /><stop
         style="stop-opacity:1;stop-color:#e9effd"
         offset="1"
         id="stop616" /></linearGradient><clipPath
       clipPathUnits="userSpaceOnUse"
       id="clipPath628"><path
         d="m 19287.6,7277.28 c 0,0 500.6,-1091.08 763.2,-1542.98 0,0 52.2,-284.3 0,-373.7 l -44.4,-19.8 207.5,6.2 c 0,0 18.4,382.5 4,403.8 -14.4,21.4 -43.2,20 -43.2,20 0,0 -88.9,704.8 -346.6,855.23 l -249.7,859.99 z"
         id="path626" /></clipPath><linearGradient
       x1="0"
       y1="0"
       x2="1"
       y2="0"
       gradientUnits="userSpaceOnUse"
       gradientTransform="matrix(-1560.16,-1500.15,-1500.15,1560.16,22900.9,9341.16)"
       spreadMethod="pad"
       id="linearGradient634"><stop
         style="stop-opacity:1;stop-color:#ff928e"
         offset="0"
         id="stop630" /><stop
         style="stop-opacity:1;stop-color:#feb3b1"
         offset="1"
         id="stop632" /></linearGradient><clipPath
       clipPathUnits="userSpaceOnUse"
       id="clipPath644"><path
         d="m 19917.8,5287.2 c -0.3,-5 162,-2.7 250.2,-1.1 32.5,0.6 60.3,23.5 67.2,55.3 l 66.6,349.9 c 6.3,33.2 -14.8,65.5 -47.8,73 l -37.1,8.5 c 0,0 -53.1,-72.7 -36.4,-141.2 16.7,-68.5 31.6,-245.8 -10.6,-266.5 -42.2,-20.7 -163.5,-24.3 -163.5,-24.3 0,0 -85.9,-8.5 -88.6,-53.6 z"
         id="path642" /></clipPath><linearGradient
       x1="0"
       y1="0"
       x2="1"
       y2="0"
       gradientUnits="userSpaceOnUse"
       gradientTransform="matrix(-463.425,-3012.25,-3012.25,463.425,20573.9,8506.09)"
       spreadMethod="pad"
       id="linearGradient650"><stop
         style="stop-opacity:1;stop-color:#4042e2"
         offset="0"
         id="stop646" /><stop
         style="stop-opacity:1;stop-color:#4f52ff"
         offset="1"
         id="stop648" /></linearGradient><clipPath
       clipPathUnits="userSpaceOnUse"
       id="clipPath660"><path
         d="m 18813.2,5280.9 c -16.5,-9.4 -9.7,-34.4 9.2,-34.2 147.6,1.4 478.2,6.1 507.6,18.3 37.9,15.8 -13.8,152.1 -68.3,198.2 l -300.8,-98.1 z"
         id="path658" /></clipPath><linearGradient
       x1="0"
       y1="0"
       x2="1"
       y2="0"
       gradientUnits="userSpaceOnUse"
       gradientTransform="matrix(-463.426,-3012.25,-3012.25,463.426,19593.3,8656.94)"
       spreadMethod="pad"
       id="linearGradient666"><stop
         style="stop-opacity:1;stop-color:#4042e2"
         offset="0"
         id="stop662" /><stop
         style="stop-opacity:1;stop-color:#4f52ff"
         offset="1"
         id="stop664" /></linearGradient><clipPath
       clipPathUnits="userSpaceOnUse"
       id="clipPath676"><path
         d="m 18719.8,7346.86 c 0,0 323.5,-1564.96 415,-1870.16 l -216.5,-135.9 c 0,0 108.5,18.5 188.9,24.3 80.5,5.8 154.5,98.1 154.5,98.1 l -26,41.4 c 0,0 -81.1,1556.42 -61.3,1733.15 z"
         id="path674" /></clipPath><linearGradient
       x1="0"
       y1="0"
       x2="1"
       y2="0"
       gradientUnits="userSpaceOnUse"
       gradientTransform="matrix(-1350.13,-1740.17,-1740.17,1350.13,21480.9,9614.65)"
       spreadMethod="pad"
       id="linearGradient682"><stop
         style="stop-opacity:1;stop-color:#ff928e"
         offset="0"
         id="stop678" /><stop
         style="stop-opacity:1;stop-color:#feb3b1"
         offset="1"
         id="stop680" /></linearGradient><clipPath
       clipPathUnits="userSpaceOnUse"
       id="clipPath692"><path
         d="m 17916.8,10997.1 c 0,0 -44.6,-814.1 696.5,-1230.09 l -178.4,-406.96 c 0,0 -671,405.87 -646.2,1512.85 0.7,31.7 -10.8,62.6 -31.5,86.7 l -142.6,165.4 c -54.4,63 -74.7,148.6 -54.5,229.3 l 18.8,75 c 6.3,25.1 34.9,37.2 57.3,24.2 l 14.9,-8.6 c 47.5,-27.6 85.1,-69.4 107.5,-119.5 l 70,-156.6 c 26.2,-58.4 86.5,-93.9 150.3,-88.4 l 43.3,3.7 z"
         id="path690" /></clipPath><linearGradient
       x1="0"
       y1="0"
       x2="1"
       y2="0"
       gradientUnits="userSpaceOnUse"
       gradientTransform="matrix(-780.076,-1740.17,-1740.17,780.076,19692.1,14154.7)"
       spreadMethod="pad"
       id="linearGradient698"><stop
         style="stop-opacity:1;stop-color:#ff928e"
         offset="0"
         id="stop694" /><stop
         style="stop-opacity:1;stop-color:#feb3b1"
         offset="1"
         id="stop696" /></linearGradient><clipPath
       clipPathUnits="userSpaceOnUse"
       id="clipPath708"><path
         d="m 18587.5,9828.01 c 124,-34.38 544.1,-144.89 806.3,-140.37 l -161,-908.62 12.8,-148.2 -524.9,2.35 c 0,0 -147.8,343.22 -264.4,514.33 -33.7,49.41 -8.6,108.36 10.4,165.03 l -26.2,17.47 c -26.7,17.76 -38.2,51.13 -28.3,81.6 l 127.9,391.13 c 6.6,19.72 27.4,30.84 47.4,25.28 z"
         id="path706" /></clipPath><linearGradient
       x1="0"
       y1="0"
       x2="1"
       y2="0"
       gradientUnits="userSpaceOnUse"
       gradientTransform="matrix(1080,-3960.01,-3960.01,-1080,18985.6,9185.87)"
       spreadMethod="pad"
       id="linearGradient714"><stop
         style="stop-opacity:1;stop-color:#fe7062"
         offset="0"
         id="stop710" /><stop
         style="stop-opacity:1;stop-color:#ff928e"
         offset="1"
         id="stop712" /></linearGradient><clipPath
       clipPathUnits="userSpaceOnUse"
       id="clipPath724"><path
         d="m 18678.6,8710.72 10.3,-89.78 c 0,0 -148.3,-444.29 74.2,-1481.98 0,0 482,-136.55 878.1,190.17 0,0 -111.8,979.43 -142.3,1025.05 -152,227.24 -253.3,276.64 -253.3,276.64 l -4.5,98.09 c 0,0 -423.7,-76.6 -562.5,-18.19 z"
         id="path722" /></clipPath><linearGradient
       x1="0"
       y1="0"
       x2="1"
       y2="0"
       gradientUnits="userSpaceOnUse"
       gradientTransform="matrix(1080,-3960,-3960,-1080,18756.3,9123.33)"
       spreadMethod="pad"
       id="linearGradient730"><stop
         style="stop-opacity:1;stop-color:#09005d"
         offset="0"
         id="stop726" /><stop
         style="stop-opacity:1;stop-color:#1a0f91"
         offset="1"
         id="stop728" /></linearGradient><clipPath
       clipPathUnits="userSpaceOnUse"
       id="clipPath740"><path
         d="m 18884.1,9754.79 c -1.9,2.43 109.6,336.41 109.6,336.41 l 159.6,-14.4 62.4,-378.97 c 0,0 -250.2,-50.5 -331.6,56.96 z"
         id="path738" /></clipPath><linearGradient
       x1="0"
       y1="0"
       x2="1"
       y2="0"
       gradientUnits="userSpaceOnUse"
       gradientTransform="matrix(331.607,0,0,-331.607,18884.1,9888.61)"
       spreadMethod="pad"
       id="linearGradient746"><stop
         style="stop-opacity:1;stop-color:#ff928e"
         offset="0"
         id="stop742" /><stop
         style="stop-opacity:1;stop-color:#feb3b1"
         offset="1"
         id="stop744" /></linearGradient><clipPath
       clipPathUnits="userSpaceOnUse"
       id="clipPath756"><path
         d="m 19115.1,10618 c -10.6,-6.6 -341.1,-143.2 -270.1,-486.3 4.2,-20.3 17.7,-37.4 36.6,-45.9 48.5,-21.6 152.9,-58.6 277.8,-45.9 173.1,17.5 286.5,319.6 281.7,407.5 -4.8,88 -220.5,236.3 -326,170.6 z"
         id="path754" /></clipPath><linearGradient
       x1="0"
       y1="0"
       x2="1"
       y2="0"
       gradientUnits="userSpaceOnUse"
       gradientTransform="matrix(2413.67,-164.129,-164.129,-2413.67,19411.1,10317.1)"
       spreadMethod="pad"
       id="linearGradient762"><stop
         style="stop-opacity:1;stop-color:#ff928e"
         offset="0"
         id="stop758" /><stop
         style="stop-opacity:1;stop-color:#feb3b1"
         offset="1"
         id="stop760" /></linearGradient><clipPath
       clipPathUnits="userSpaceOnUse"
       id="clipPath772"><path
         d="m 19215.7,10751.4 c -8.7,-1.2 -191,-64.6 -100.6,-196.7 90.4,-132.1 124.3,-209.9 81.6,-267.9 -39,-52.8 -125.3,-22.7 -117.8,-132.6 1.5,-22 -8,-43.4 -26.2,-55.8 -81.4,-55 -279.7,-224.44 -83.2,-466.04 16,-19.64 19.3,-46.75 7,-68.86 -57.6,-103.26 -178.5,-405.74 259.2,-573.52 432.6,-165.81 588.8,116.97 632.5,230 9.4,24.44 33.5,39.41 59.7,38.17 47.5,-2.24 114.8,5.66 111.7,69.19 -1.8,38.58 -25.9,73.16 -54.4,100.88 -28.1,27.44 -22.6,75.48 11.6,94.9 25.8,14.67 48.7,37.58 58.3,73.32 26.3,97.14 -26.1,387.61 -304.5,436.86 -23.2,4.1 -47.5,25.9 -50.9,49.2 l -0.2,1 c -3.7,22.6 3.9,45.7 22.4,59.2 44.4,32.6 101.4,98.3 55.1,203.6 -41,93.4 -119.8,124.9 -178.3,134.9 -34.4,5.9 -57,38.4 -49.7,72.5 19.7,92.9 2.5,241.7 -333.3,197.7 z"
         id="path770" /></clipPath><linearGradient
       x1="0"
       y1="0"
       x2="1"
       y2="0"
       gradientUnits="userSpaceOnUse"
       gradientTransform="matrix(-849.608,-1699.21,-1699.21,849.608,19807.8,10462.6)"
       spreadMethod="pad"
       id="linearGradient778"><stop
         style="stop-opacity:1;stop-color:#09005d"
         offset="0"
         id="stop774" /><stop
         style="stop-opacity:1;stop-color:#1a0f91"
         offset="1"
         id="stop776" /></linearGradient></defs><sodipodi:namedview
     pagecolor="#ffffff"
     bordercolor="#666666"
     borderopacity="1"
     objecttolerance="10"
     gridtolerance="10"
     guidetolerance="10"
     inkscape:pageopacity="0"
     inkscape:pageshadow="2"
     inkscape:window-width="640"
     inkscape:window-height="480"
     id="namedview4" /><g
     id="g10"
     inkscape:groupmode="layer"
     inkscape:label="ink_ext_XXXXXX"
     transform="matrix(1.3333333,0,0,-1.3333333,0,2200)"><g
       id="g12"
       transform="scale(0.1)"><path
         d="M 0,0 H 24750 V 16500 H 0 Z"
         style="fill:#ffffff;fill-opacity:1;fill-rule:nonzero;stroke:none"
         id="path14" /><g
         id="g16"><g
           id="g18"
           clip-path="url(#clipPath22)"><path
             d="m 6730.29,1366.4 c -2968.73,0 -6013.481,616.8 -5090.09,3158.7 61.76,170.1 122.86,333.6 182.92,491.2 383.12,-426 995.75,-915.6 1787.8,-915.6 105.99,0 215.14,8.8 327.43,27.6 1215.79,204.2 2572.02,975.9 3452.6,975.9 276.48,0 506.05,-76 669.69,-269.7 306.79,-363 551.81,-766.3 651.89,-1234.4 82.81,-387.4 -129.93,-792.4 77.31,-1138.7 100.56,-168.1 250.26,-300.2 397.51,-429.3 C 9043.76,2158 8904,3132.7 8872.78,3333.5 8696.2,4468.9 8235.89,6390.1 7130.31,7453.01 6595.87,7966.79 6065.14,8230.9 5518.65,8230.9 c -584.04,0 -1186.1,-301.38 -1830.76,-921.7 -612.75,-589.61 -1093.51,-1012 -1467.99,-1285.3 742.66,1852.27 1118.5,2793.51 135.18,4307.4 -1142.82,1759.5 851.2,4259 2621.77,4681.9 212.94,50.8 415.95,73.5 611.34,73.5 1149.13,0 2040.65,-783 3216.31,-1218.7 554.73,-205.6 991.56,-588.8 1527.3,-837.2 579.1,-268.6 1213.5,-406.6 1847.2,-414.1 88.3,-895.4 441,-1951.4 648.1,-2898.14 670,-3063.12 -38,-5486.26 34.3,-5486.26 1.8,0 4.1,1.5 7,4.6 328.5,358.1 425.2,2750.03 316.2,4163.71 -109,1413.69 269.8,1740.49 997.3,2209.09 727.5,468.5 1379.1,1403.7 1275.4,2433.1 -17.7,176.1 -7,363.1 23,552 707.7,384.7 1397.5,826.4 2119.1,1214.9 777.3,418.6 1679,746 2568.4,746 238,0 475,-23.5 708.7,-74.9 215.7,-47.4 428.5,-118.7 636.2,-217.4 435.2,-206.8 817.5,-603.5 886.2,-1097.2 35.6,-255.8 2.4,-498.8 -67.1,-734.9 -659.1,159.2 -1574.7,325.7 -2521,325.7 -1176.8,0 -2401.2,-257.5 -3239.2,-1106.8 -2129.2,-2157.9 -2862.1,-7687.1 -2862.1,-7687.1 0,0 318.7,648.4 820.9,1261.3 -253.2,-716 -401.7,-1433.6 -485.4,-1971.7 -31.5,-202.9 -91,-391.3 -154.5,-584.7 -14.2,-43.2 -93,-380.4 11.8,-380.4 16.8,0 38.2,8.7 65.3,28.5 137.9,100.7 144.9,572.5 167.5,724.1 60.2,404.3 35.2,891.6 708.2,1687.8 160.8,190.3 386.4,265 658.1,265 865.4,0 2198.4,-758.5 3393.3,-959.1 110.3,-18.6 217.6,-27.2 321.8,-27.2 1057.6,0 1789.8,888.3 2072.9,1301.1 58.4,85.2 18.9,204.33 -79.8,234.97 -344.5,107.02 -875.9,502.96 -1674.2,1243.95 644.5,373.63 1290.2,1013.04 1888.4,2098.94 100.7,182.74 196.2,355.44 286.6,518.34 69.8,-318.9 175.2,-629.3 314.2,-922.54 433.2,-914 1200.5,-1712.85 1250.9,-2731.15 31.3,-634.21 -234.4,-1253.11 -612.7,-1750.51 -378.4,-497.4 -864.6,-891.5 -1345.7,-1280.5 C 20443,3012.7 19462,1905.5 18416.4,1539.1 c -362.2,-126.9 -746.8,-169.6 -1140.8,-169.6 -805.5,-0.1 -1650.5,178.5 -2425.6,181 -239.7,0.8 -478.6,1.3 -716.7,1.3 -2026.8,0 -4001.1,-31.4 -6044.89,-145.9 -440.85,-24.7 -898.62,-39.5 -1358.12,-39.5 M 4454.42,13118.1 c -108.52,0 -187.14,-103.3 -158.36,-208.1 73.97,-269.4 224.51,-890.7 520.39,-2320.6 505.4,-2442.49 2053.66,-2454.27 2924.17,-2767.32 870.52,-313.05 1142.81,-2028.68 1142.81,-2028.68 0,0 639.74,3778.92 -320.72,5627.4 -810.16,1559.1 -3336.59,1693.5 -4107.43,1697.3 -0.29,0 -0.57,0 -0.86,0"
             style="fill:url(#linearGradient28);fill-opacity:1;fill-rule:nonzero;stroke:none"
             id="path30" /></g></g><path
         d="M 8872.78,3333.5 C 8696.2,4468.9 8235.89,6390.1 7130.31,7453.01 6024.72,8515.87 4935.77,8509.97 3687.89,7309.2 2647.98,6308.6 1988.36,5789.5 1582.94,5663.6 c -100.39,-31.2 -140.66,-152.4 -81.2,-239 316.47,-461.4 1184.21,-1506.6 2436.61,-1296.3 1597.52,268.3 3437.49,1516.5 4122.29,706.2 306.79,-363 551.81,-766.3 651.89,-1234.4 82.81,-387.4 -129.93,-792.4 77.31,-1138.7 100.56,-168.1 250.26,-300.2 397.51,-429.3 C 9043.76,2158 8904,3132.7 8872.78,3333.5"
         style="fill:#bdd0fb;fill-opacity:1;fill-rule:nonzero;stroke:none"
         id="path32" /><path
         d="m 8563.26,4497.2 c -1.46,0 -2.81,0.9 -3.27,2.4 -74.37,230.9 -156.21,459.3 -252.52,681.5 -25.17,55 -48.94,110.6 -75.71,164.9 -13.18,27.2 -25.62,54.8 -39.38,81.7 l -41.23,80.7 c -56.49,106.8 -116.72,211.6 -182.56,312.6 -132.49,201.4 -286.98,388.5 -467.02,547.3 -179.84,159.03 -387.1,285.56 -609.57,374.57 -111.26,44.56 -226.24,79.83 -343.18,106.87 l -88.07,18.78 c -29.48,5.7 -59.14,10.56 -88.69,15.9 l -11.09,1.95 -11.04,1.35 -22.05,2.71 -44.14,5.45 c -14.66,2.32 -29.53,2.45 -44.34,3.24 l -44.47,2.1 c -10.84,0.27 -21.69,0.41 -32.54,0.41 -107.94,0 -216.01,-13.37 -321.89,-36.91 -116.69,-25.49 -230.94,-63.07 -341.8,-109.06 -221.97,-92.07 -430.68,-215.89 -627.74,-355.36 -196.78,-140.1 -383.64,-295.5 -555.41,-466.4 l -0.08,-0.1 c -0.7,-0.7 -1.6,-1 -2.5,-1 -0.91,0 -1.83,0.3 -2.52,1 -1.32,1.4 -1.37,3.5 -0.13,4.9 81.04,90.8 168.49,175.4 258.6,257.1 90.21,81.6 183.8,159.7 281.31,232.8 97.36,73.31 198.18,142.3 303.06,204.97 104.79,62.71 213.2,120.04 325.96,168.18 112.65,48.26 229.3,88.29 349.4,115.92 110.85,25.09 224.69,39.51 339,39.51 9.54,0 19.06,-0.1 28.61,-0.3 l 46.44,-2.02 c 15.47,-0.77 30.99,-0.88 46.36,-3.21 l 46.2,-5.5 23.11,-2.78 11.55,-1.39 11.3,-2.02 c 30.14,-5.51 60.35,-10.56 90.41,-16.45 l 89.86,-19.43 c 119.39,-27.94 237.02,-64.34 350.95,-110.34 228.17,-91.34 439.82,-223.88 622.44,-387.84 183.52,-163.4 336.52,-357.4 467.7,-563 65.03,-103.3 124.19,-210.1 179.45,-318.6 55.08,-108.7 104.36,-220.1 150.7,-332.6 90.69,-225.8 168.27,-456.4 233.79,-690.2 0.51,-1.8 -0.55,-3.7 -2.36,-4.2 -0.3,0 -0.61,-0.1 -0.9,-0.1"
         style="fill:#dee8fd;fill-opacity:1;fill-rule:nonzero;stroke:none"
         id="path34" /><g
         id="g36"><g
           id="g38"
           clip-path="url(#clipPath42)"><path
             d="m 8883.43,5793.4 c 0,0 -272.29,1715.63 -1142.81,2028.68 -870.51,313.05 -2418.77,324.83 -2924.17,2767.32 -295.88,1429.9 -446.42,2051.2 -520.39,2320.6 -28.78,104.8 49.84,208.1 158.36,208.1 0.29,0 0.57,0 0.86,0 770.84,-3.8 3297.27,-138.2 4107.43,-1697.3 960.46,-1848.48 320.72,-5627.4 320.72,-5627.4 m -3743.81,6724.8 c -1.1,0 -2.18,-0.6 -2.85,-1.5 -1.09,-1.6 -0.71,-3.8 0.87,-4.8 l 0.08,-0.1 c 254.79,-177.5 497.52,-371.8 731.86,-575.1 l 88.12,-76 86.42,-77.9 86.41,-77.9 c 28.77,-26 56.52,-53.1 84.83,-79.6 l 84.68,-79.7 42.37,-39.8 41.36,-40.9 165.34,-163.6 161.04,-167.7 c 54.47,-55.2 105.91,-113.2 158.15,-170.4 l 78.19,-86 39.11,-43 37.83,-44.1 151.12,-176.7 37.81,-44.1 36.43,-45.3 72.85,-90.5 72.85,-90.5 36.42,-45.3 c 11.89,-15.3 23.3,-30.9 34.97,-46.4 l 139.3,-186 34.83,-46.5 c 5.76,-7.7 11.7,-15.4 17.32,-23.27 l 16.58,-23.74 66.32,-94.98 c 22.61,-31.31 42.95,-64.17 64.07,-96.5 20.87,-32.49 42.25,-64.66 62.69,-97.42 l 59.68,-99.34 29.79,-49.7 28.23,-50.61 56.46,-101.23 53.43,-102.88 26.69,-51.45 c 8.8,-17.2 16.96,-34.73 25.46,-52.08 l 50.56,-104.36 c 16.27,-35.06 31.85,-70.45 47.81,-105.67 l 23.81,-52.88 c 7.75,-17.72 15,-35.64 22.52,-53.45 l 44.77,-107.03 42.04,-108.16 c 6.92,-18.05 14.16,-36 20.85,-54.15 l 19.67,-54.59 c 13.01,-36.43 26.83,-72.59 39.24,-109.24 l 37.1,-110 c 12.61,-36.59 23.39,-73.78 35.17,-110.65 92.15,-295.64 165.07,-597.37 221.34,-902.24 28.3,-152.42 51.88,-305.77 70.55,-459.76 9.51,-76.97 17.28,-154.16 23.99,-231.44 6.77,-77.24 12.48,-154.78 14.94,-232.08 v -0.2 c 0.11,-3.3 2.81,-5.9 6.13,-5.9 3.37,0 6.09,2.8 6.09,6.1 -0.39,155.94 -10.46,311.32 -25.49,466.3 -14.93,154.97 -34.82,309.5 -59.49,463.32 -24.79,153.8 -55.06,306.72 -89.36,458.76 -33.87,152.16 -74.27,302.86 -118.6,452.36 -87.82,299.33 -198.43,592.03 -327.85,876.23 l -50.31,105.77 c -8.47,17.59 -16.58,35.36 -25.35,52.81 l -26.8,52.08 -53.8,104.08 -56.88,102.45 -28.44,51.22 -30.03,50.33 -60.17,100.58 c -20.62,33.19 -42.18,65.78 -63.24,98.7 -21.31,32.75 -41.83,66.03 -64.65,97.78 l -66.95,96.23 -16.75,24.1 c -5.68,7.9 -11.68,15.6 -17.51,23.4 l -35.2,46.7 -140.83,186.6 c -11.79,15.5 -23.32,31.2 -35.34,46.6 l -36.8,45.4 -73.6,90.8 -73.6,90.8 -36.8,45.4 -38.18,44.2 -153.44,176.3 -38.45,44 -39.7,42.9 -79.41,85.7 c -104.45,115.6 -215.38,225.1 -324.59,336.1 l -168.52,161.8 -42.14,40.5 -43.14,39.3 -86.32,78.7 c -28.96,26 -57.35,52.6 -86.76,78.1 l -88.32,76.4 -88.31,76.4 -89.97,74.4 -90.25,74.1 -91.8,72.1 c -60.79,48.5 -123.22,95 -185.34,141.8 -30.85,23.7 -62.73,46.1 -94.12,69 -31.44,22.9 -62.93,45.7 -94.98,67.8 -31.98,22.1 -63.9,44.4 -96.41,65.7 -32.28,21.7 -64.85,42.9 -97.87,63.6 -0.56,0.4 -1.2,0.6 -1.83,0.6"
             style="fill:url(#linearGradient48);fill-opacity:1;fill-rule:nonzero;stroke:none"
             id="path50" /></g></g><g
         id="g52"><g
           id="g54"
           clip-path="url(#clipPath58)"><path
             d="m 8867.22,6373.8 c -3.32,0 -6.02,2.6 -6.13,5.9 v 0.2 c -2.46,77.3 -8.17,154.84 -14.94,232.08 -6.71,77.28 -14.48,154.47 -23.99,231.44 -18.67,153.99 -42.25,307.34 -70.55,459.76 -56.27,304.87 -129.19,606.6 -221.34,902.24 -11.78,36.87 -22.56,74.06 -35.17,110.65 l -37.1,110 c -12.41,36.65 -26.23,72.81 -39.24,109.24 l -19.67,54.59 c -6.69,18.15 -13.93,36.1 -20.85,54.15 l -42.04,108.16 -44.77,107.03 c -7.52,17.81 -14.77,35.73 -22.52,53.45 l -23.81,52.88 c -15.96,35.22 -31.54,70.61 -47.81,105.67 l -50.56,104.36 c -8.5,17.35 -16.66,34.88 -25.46,52.08 l -26.69,51.45 -53.43,102.88 -56.46,101.23 -28.23,50.61 -29.79,49.7 -59.68,99.34 c -20.44,32.76 -41.82,64.93 -62.69,97.42 -21.12,32.33 -41.46,65.19 -64.07,96.5 l -66.32,94.98 -16.58,23.74 c -5.62,7.87 -11.56,15.57 -17.32,23.27 l -34.83,46.5 -139.3,186 c -11.67,15.5 -23.08,31.1 -34.97,46.4 l -36.42,45.3 -72.85,90.5 -72.85,90.5 -36.43,45.3 -37.81,44.1 -151.12,176.7 -37.83,44.1 -39.11,43 -78.19,86 c -52.24,57.2 -103.68,115.2 -158.15,170.4 l -161.04,167.7 -165.34,163.6 -41.36,40.9 -42.37,39.8 -84.68,79.7 c -28.31,26.5 -56.06,53.6 -84.83,79.6 l -86.41,77.9 -86.42,77.9 -88.12,76 c -234.34,203.3 -477.07,397.6 -731.86,575.1 l -0.08,0.1 c -1.58,1 -1.96,3.2 -0.87,4.8 0.67,0.9 1.75,1.5 2.85,1.5 0.63,0 1.27,-0.2 1.83,-0.6 33.02,-20.7 65.59,-41.9 97.87,-63.6 32.51,-21.3 64.43,-43.6 96.41,-65.7 32.05,-22.1 63.54,-44.9 94.98,-67.8 31.39,-22.9 63.27,-45.3 94.12,-69 62.12,-46.8 124.55,-93.3 185.34,-141.8 l 91.8,-72.1 90.25,-74.1 89.97,-74.4 88.31,-76.4 88.32,-76.4 c 29.41,-25.5 57.8,-52.1 86.76,-78.1 l 86.32,-78.7 43.14,-39.3 42.14,-40.5 168.52,-161.8 c 109.21,-111 220.14,-220.5 324.59,-336.1 l 79.41,-85.7 39.7,-42.9 38.45,-44 153.44,-176.3 38.18,-44.2 36.8,-45.4 73.6,-90.8 73.6,-90.8 36.8,-45.4 c 12.02,-15.4 23.55,-31.1 35.34,-46.6 l 140.83,-186.6 35.2,-46.7 c 5.83,-7.8 11.83,-15.5 17.51,-23.4 l 16.75,-24.1 66.95,-96.23 c 22.82,-31.75 43.34,-65.03 64.65,-97.78 21.06,-32.92 42.62,-65.51 63.24,-98.7 l 60.17,-100.58 30.03,-50.33 28.44,-51.22 56.88,-102.45 53.8,-104.08 26.8,-52.08 c 8.77,-17.45 16.88,-35.22 25.35,-52.81 l 50.31,-105.77 c 129.42,-284.2 240.03,-576.9 327.85,-876.23 44.33,-149.5 84.73,-300.2 118.6,-452.36 34.3,-152.04 64.57,-304.96 89.36,-458.76 24.67,-153.82 44.56,-308.35 59.49,-463.32 15.03,-154.98 25.1,-310.36 25.49,-466.3 0,-3.3 -2.72,-6.1 -6.09,-6.1"
             style="fill:url(#linearGradient64);fill-opacity:1;fill-rule:nonzero;stroke:none"
             id="path66" /></g></g><path
         d="m 12868.4,4236.9 c -115.6,-126 645.5,2341.69 -41.3,5481.66 -323.7,1479.64 -1003.1,3226.34 -472.4,4209.34 441.6,818.1 2827.5,1343.2 3615.5,1496.4 98.4,19.1 174.8,-84.9 126.7,-172.9 -236.9,-434.1 -718.3,-1427.6 -639.6,-2208.6 103.7,-1029.4 -547.9,-1964.6 -1275.4,-2433.1 -727.5,-468.6 -1106.3,-795.4 -997.3,-2209.09 109,-1413.68 12.3,-3805.61 -316.2,-4163.71"
         style="fill:#91b3fa;fill-opacity:1;fill-rule:nonzero;stroke:none"
         id="path68" /><path
         d="m 13027.3,9350.17 c -5.2,0 -9.5,4.15 -9.8,9.37 -5.7,126.54 -8.8,252.9 -9.5,379.38 -0.7,63.23 -0.4,126.44 -0.7,189.69 l 1.3,189.69 c 2.2,252.9 10.7,505.7 21.8,758.4 11.9,252.7 26.4,505.2 45.4,757.4 l 14.5,189.2 16.1,189 8,94.5 c 2.7,31.5 6.6,63.7 9.8,95.5 4.4,31.7 8.2,63.6 13.4,95.2 5.5,31.6 10.4,63.3 17.2,94.6 25.1,125.8 59.3,249.8 103.1,370.4 21.2,60.5 45.9,119.8 71.4,178.6 26.4,58.4 54,116.3 84.3,172.8 30.1,56.5 62.2,112.1 96.3,166.3 33.7,54.4 69.7,107.4 106.9,159.4 37,52.2 76.3,102.7 116.5,152.4 40.5,49.4 82.8,97.4 125.8,144.5 43.3,47 87.9,92.6 133.5,137.3 45.5,44.7 92.9,87.4 140.7,129.5 95.9,83.9 196,162.9 299.6,236.6 51.8,36.9 104.4,72.7 157.8,107.1 53.6,34.2 107.9,67.2 162.9,99 110.1,63.3 222.7,121.8 340.2,170.9 1.3,0.5 2.6,0.8 3.8,0.8 3.9,0 7.5,-2.3 9.1,-6 2,-4.8 -0.1,-10.3 -4.7,-12.6 l -0.3,-0.2 c -56.2,-27.5 -111.2,-58.7 -165.7,-89.9 -54.4,-31.5 -107.9,-64.6 -160.9,-98.4 -53,-33.8 -105.2,-68.9 -156.5,-105.1 -51.5,-35.9 -102.2,-73 -152,-111.2 -99.3,-76.7 -196.1,-156.6 -288.2,-241.4 -92,-84.9 -180.5,-173.6 -263.8,-266.7 -83,-93.4 -161.2,-190.9 -233.5,-292.5 -36,-50.9 -70.8,-102.7 -103.3,-155.8 -33,-52.8 -63.6,-107.1 -93,-161.9 -29.5,-54.8 -56.5,-110.9 -82.3,-167.6 -24.9,-56.9 -49,-114.3 -69.8,-172.9 -42.8,-116.8 -76.3,-236.9 -101,-358.8 -12.7,-60.9 -22.2,-122.4 -30.9,-184 -3.4,-31 -7.4,-61.6 -10.3,-93 l -8.9,-94.2 -17.8,-188.5 -16.1,-188.6 c -11,-125.7 -20.5,-251.5 -30.4,-377.3 l -13.3,-188.8 -6.6,-94.4 -5.8,-94.5 c -3.8,-63 -8.2,-125.9 -11.6,-188.9 l -10.4,-189.1 -9,-189 -8.2,-189.2 -6.7,-189.21 c -1.5,-63.09 -3.7,-126.18 -4.7,-189.28 -2.4,-126.16 -4.8,-252.49 -3.9,-378.52 v -0.14 c 0.1,-5.41 -4.3,-9.84 -9.7,-9.88 h -0.1"
         style="fill:#c8d9fd;fill-opacity:1;fill-rule:nonzero;stroke:none"
         id="path70" /><path
         d="m 13709.5,4963.1 c 0,0 1115.2,2268.61 2460.1,2330.14 210.4,9.63 440.7,1.88 686.2,-5.87 1323.9,-41.78 3090.6,-83.57 4568,2598.29 1025.4,1861.24 1501.5,2660.54 1720,3003.44 85.3,133.7 19.8,311.7 -132,357.7 -1073.5,325.6 -4644.2,1223.6 -6440.2,-596.6 -2129.2,-2157.9 -2862.1,-7687.1 -2862.1,-7687.1"
         style="fill:#bdd0fb;fill-opacity:1;fill-rule:nonzero;stroke:none"
         id="path72" /><path
         d="m 13983.8,5765.5 c -0.6,0 -1.3,0.1 -1.9,0.3 -3.2,1.1 -4.9,4.5 -3.9,7.6 67.8,216.3 148.9,427.9 236.5,636.8 87.5,208.85 181.8,414.98 282.4,618.05 100.6,203.02 208.5,402.49 321.6,598.97 112.6,196.84 233.5,388.87 359.4,577.56 250.7,378.11 530.1,737.32 832,1076.59 l 115.3,125.36 c 19.4,20.8 38.3,42 57.9,62.47 l 59.6,60.87 119.4,121.52 123,117.95 61.5,58.96 63.3,57.04 126.8,113.94 c 42.9,37.22 86.8,73.32 130.2,110.02 43.7,36.3 86.5,73.8 131.8,108.1 l 134.3,105 33.6,26.3 c 11.3,8.6 22.8,16.8 34.2,25.3 l 68.5,50.3 c 45.7,33.5 91.1,67.5 137.2,100.5 l 138.8,98.2 69.4,49.1 70.3,47.9 140.4,95.8 142.1,93.5 71,46.7 71.7,45.6 143.7,90.9 145.2,88.5 72.6,44.2 73.2,43.1 c 48.9,28.7 97.6,57.7 146.7,86 196.4,113.1 395,222.2 596,327 201.2,104.1 404.4,204.5 609.6,300.5 205.3,95.6 412.7,186.9 622,273.5 209.4,86.1 421,167.1 634.2,243.1 213.2,76 428.3,147.2 646.8,206.3 0.3,0.1 0.7,0.1 1,0.1 1.5,0 2.9,-1 3.3,-2.5 0.5,-1.8 -0.6,-3.7 -2.3,-4.2 l -0.1,-0.1 c -108.1,-32.8 -215.1,-69.5 -321.5,-107.3 -106.6,-37.4 -212.6,-76.7 -318,-117.2 -210.9,-81.1 -419.7,-167.3 -626.5,-258 -207.2,-90.1 -412.2,-184.8 -615.1,-283.8 -203.1,-98.7 -404.2,-201.1 -603.3,-307.5 -198.5,-107.4 -395.6,-217.4 -590.2,-331.5 -48.7,-28.6 -96.9,-57.9 -145.3,-86.8 l -72.6,-43.5 -71.9,-44.6 -143.8,-89.3 -142.4,-91.3 -71.2,-45.6 -70.5,-46.7 -141.1,-93.5 -139.4,-95.7 -69.8,-47.9 -68.9,-49 -137.8,-98.2 c -45.8,-32.9 -90.8,-66.9 -136.2,-100.3 l -68,-50.3 -33.9,-25.3 -33.3,-25.9 -133.1,-103.7 c -44.9,-33.8 -87.3,-70.8 -130.6,-106.7 -43,-36.3 -86.6,-71.87 -129.1,-108.68 l -125.8,-112.6 -62.8,-56.36 -61,-58.31 -122.1,-116.62 -118.5,-120.21 -59.3,-60.13 c -19.6,-20.16 -38.5,-41.05 -57.8,-61.55 l -115.1,-123.53 c -37.7,-41.81 -74.6,-84.38 -111.9,-126.53 l -55.8,-63.38 c -18.4,-21.32 -36.2,-43.16 -54.3,-64.71 l -108.3,-129.73 -104.9,-132.47 c -17.4,-22.15 -35.1,-44.01 -52.2,-66.4 l -50.8,-67.51 c -33.8,-45.13 -68.5,-89.52 -101.5,-135.2 l -98.8,-137.18 c -16.6,-22.72 -32.6,-45.92 -48.5,-69.21 l -47.9,-69.69 -47.8,-69.68 c -15.8,-23.34 -31,-47.07 -46.6,-70.59 -30.7,-47.25 -62.2,-94.01 -92.3,-141.66 l -90,-143.23 c -29.9,-47.83 -58.5,-96.42 -87.8,-144.6 -115.8,-193.58 -225.6,-390.82 -330,-590.9 -104.6,-200.02 -203,-403.33 -294.8,-609.64 -46.2,-103 -90,-207.1 -132.4,-311.8 -42.4,-104.6 -83.4,-210 -119.9,-316.7 l -0.1,-0.2 c -0.9,-2.5 -3.2,-4.1 -5.8,-4.1"
         style="fill:#dee8fd;fill-opacity:1;fill-rule:nonzero;stroke:none"
         id="path74" /><g
         id="g76"><g
           id="g78"
           clip-path="url(#clipPath82)"><path
             d="m 13902.3,3287.6 c -104.8,0 -26,337.2 -11.8,380.4 63.5,193.4 123,381.8 154.5,584.7 83.7,538.1 232.2,1255.7 485.4,1971.7 81.6,99.6 168.1,198.3 258.8,293.13 -20.7,-37.73 -40.8,-75.83 -60.5,-114.13 -54.4,-106.6 -103.1,-215.8 -149.2,-326 -90.3,-221.2 -167.4,-447.5 -233.5,-676.7 -0.5,-1.8 0.5,-3.7 2.2,-4.2 0.4,-0.1 0.7,-0.2 1,-0.2 1.5,0 2.8,1 3.3,2.4 71.3,227.5 150.9,452.4 244.5,671.4 24.5,54.2 47.5,109.1 73.7,162.5 12.8,26.9 25,54 38.4,80.5 l 40.4,79.6 c 34.6,66 70.7,131.27 108.8,195.35 381,380.44 831.6,683.24 1311.3,705.19 69.9,3.2 142,4.48 216.1,4.48 149,0 306.2,-5.17 470.1,-10.35 164,-5.17 334.8,-10.35 511,-10.35 185.7,0 377.6,5.76 573.7,23.34 13.7,-9.6 27.3,-19.29 40.9,-29.06 192.6,-139.28 375.5,-293.23 542.5,-462.93 l 0.1,-0.09 c 0.7,-0.7 1.6,-1.05 2.5,-1.05 0.9,0 1.7,0.31 2.4,0.93 1.5,1.31 1.5,3.55 0.2,5 -80.6,88.31 -167.1,170.77 -256.1,250.4 -89.2,79.5 -181.7,155.42 -277.8,226.58 -6.2,4.54 -12.3,9.08 -18.5,13.59 500.8,48.53 1029.4,176.1 1558.7,482.99 798.3,-740.99 1329.7,-1136.93 1674.2,-1243.95 98.7,-30.64 138.2,-149.77 79.8,-234.97 -283.1,-412.8 -1015.3,-1301.1 -2072.9,-1301.1 -104.2,0 -211.5,8.6 -321.8,27.2 -1194.9,200.6 -2527.9,959.1 -3393.3,959.1 -271.7,0 -497.3,-74.7 -658.1,-265 -673,-796.2 -648,-1283.5 -708.2,-1687.8 -22.6,-151.6 -29.6,-623.4 -167.5,-724.1 -27.1,-19.8 -48.5,-28.5 -65.3,-28.5"
             style="fill:url(#linearGradient88);fill-opacity:1;fill-rule:nonzero;stroke:none"
             id="path90" /></g></g><path
         d="m 14530.4,6224.4 c 271.9,768.95 664.5,1536.11 1227.2,2077.03 525.2,504.96 1046.8,764.52 1583.9,764.52 574,0 1165.7,-296.19 1799.3,-905.85 138.3,-133.08 269.7,-257.43 394.6,-373.38 -529.3,-306.89 -1057.9,-434.46 -1558.7,-482.99 -90.3,66.18 -183.5,128.58 -279.8,185.97 -103,61.18 -209.3,117.13 -320,163.83 -110.4,46.87 -224.7,85.59 -342.2,112.22 -108.5,24.59 -219.8,38.71 -331.5,38.71 -9.1,0 -18.3,-0.1 -27.4,-0.29 l -45.3,-1.94 c -15.1,-0.75 -30.3,-0.85 -45.2,-3.13 l -45.1,-5.36 -22.5,-2.68 -11.3,-1.35 -11.1,-1.99 c -29.5,-5.39 -59.1,-10.34 -88.5,-16.13 l -88,-19.05 c -116.9,-27.38 -232,-63.05 -343.5,-108.08 -223.1,-89.67 -430.5,-218.42 -609.7,-378.54 -180,-159.59 -330.6,-349.19 -459.9,-550.46 -41,-64.73 -79.6,-130.84 -116.5,-197.93 -90.7,-94.83 -177.2,-193.53 -258.8,-293.13 m 327.9,363.65 c 22.6,38.09 45.9,75.77 69.9,112.95 129.9,198.71 281.5,383.68 458.8,540.84 177,157.22 381.3,283.1 601.2,370.67 109.8,43.98 223.3,78.75 338.7,105.4 l 86.8,18.52 c 29.1,5.61 58.4,10.39 87.5,15.65 29.2,4.74 58.3,7.5 87.5,11.38 14.5,2.29 29.2,2.43 43.9,3.22 l 44,2.1 c 10.9,0.28 21.7,0.41 32.6,0.41 106.8,0 213.6,-13.2 318.1,-36.41 115.3,-25.59 227.9,-63.13 337.1,-108.88 203.1,-85.33 395.2,-196.64 576.1,-323.54 -196.1,-17.58 -388,-23.34 -573.7,-23.34 -176.2,0 -347,5.18 -511,10.35 -163.9,5.18 -321.1,10.35 -470.1,10.35 -74.1,0 -146.2,-1.28 -216.1,-4.48 -479.7,-21.95 -930.3,-324.75 -1311.3,-705.19"
         style="fill:#95b6fa;fill-opacity:1;fill-rule:nonzero;stroke:none"
         id="path92" /><g
         id="g94"><g
           id="g96"
           clip-path="url(#clipPath100)"><path
             d="m 14349.2,5396.3 c -0.3,0 -0.6,0.1 -1,0.2 -1.7,0.5 -2.7,2.4 -2.2,4.2 66.1,229.2 143.2,455.5 233.5,676.7 46.1,110.2 94.8,219.4 149.2,326 19.7,38.3 39.8,76.4 60.5,114.13 22.8,23.77 45.8,47.28 69.1,70.52 -38.1,-64.08 -74.2,-129.35 -108.8,-195.35 l -40.4,-79.6 c -13.4,-26.5 -25.6,-53.6 -38.4,-80.5 -26.2,-53.4 -49.2,-108.3 -73.7,-162.5 -93.6,-219 -173.2,-443.9 -244.5,-671.4 -0.5,-1.4 -1.8,-2.4 -3.3,-2.4 m 4177.3,1410.93 c -0.9,0 -1.8,0.35 -2.5,1.05 l -0.1,0.09 c -167,169.7 -349.9,323.65 -542.5,462.93 -13.6,9.77 -27.2,19.46 -40.9,29.06 12.1,1.08 24.1,2.2 36.2,3.37 6.2,-4.51 12.3,-9.05 18.5,-13.59 96.1,-71.16 188.6,-147.08 277.8,-226.58 89,-79.63 175.5,-162.09 256.1,-250.4 1.3,-1.45 1.3,-3.69 -0.2,-5 -0.7,-0.62 -1.5,-0.93 -2.4,-0.93"
             style="fill:url(#linearGradient106);fill-opacity:1;fill-rule:nonzero;stroke:none"
             id="path108" /></g></g><path
         d="m 14789.2,6517.53 c 36.9,67.09 75.5,133.2 116.5,197.93 129.3,201.27 279.9,390.87 459.9,550.46 179.2,160.12 386.6,288.87 609.7,378.54 111.5,45.03 226.6,80.7 343.5,108.08 l 88,19.05 c 29.4,5.79 59,10.74 88.5,16.13 l 11.1,1.99 11.3,1.35 22.5,2.68 45.1,5.36 c 14.9,2.28 30.1,2.38 45.2,3.13 l 45.3,1.94 c 9.1,0.19 18.3,0.29 27.4,0.29 111.7,0 223,-14.12 331.5,-38.71 117.5,-26.63 231.8,-65.35 342.2,-112.22 110.7,-46.7 217,-102.65 320,-163.83 96.3,-57.39 189.5,-119.79 279.8,-185.97 -12.1,-1.17 -24.1,-2.29 -36.2,-3.37 -180.9,126.9 -373,238.21 -576.1,323.54 -109.2,45.75 -221.8,83.29 -337.1,108.88 -104.5,23.21 -211.3,36.41 -318.1,36.41 -10.9,0 -21.7,-0.13 -32.6,-0.41 l -44,-2.1 c -14.7,-0.79 -29.4,-0.93 -43.9,-3.22 -29.2,-3.88 -58.3,-6.64 -87.5,-11.38 -29.1,-5.26 -58.4,-10.04 -87.5,-15.65 l -86.8,-18.52 c -115.4,-26.65 -228.9,-61.42 -338.7,-105.4 -219.9,-87.57 -424.2,-213.45 -601.2,-370.67 -177.3,-157.16 -328.9,-342.13 -458.8,-540.84 -24,-37.18 -47.3,-74.86 -69.9,-112.95 -23.3,-23.24 -46.3,-46.75 -69.1,-70.52"
         style="fill:#c7d8fd;fill-opacity:1;fill-rule:nonzero;stroke:none"
         id="path110" /><g
         id="g112"><g
           id="g114"
           clip-path="url(#clipPath118)"><path
             d="M 21797.7,1325.5 H 3075.42 c -397.83,0 -720.34,322.5 -720.34,720.4 v 1551.3 c 0,175.5 142.29,317.8 317.82,317.8 h 19124.8 c 175.5,0 317.8,-142.3 317.8,-317.8 V 1643.3 c 0,-175.5 -142.3,-317.8 -317.8,-317.8"
             style="fill:url(#linearGradient124);fill-opacity:1;fill-rule:nonzero;stroke:none"
             id="path126" /></g></g><g
         id="g128"><g
           id="g130"
           clip-path="url(#clipPath134)"><path
             d="m 8458.34,7517.87 c 819.11,423.96 -149.43,1543.77 -193.66,1585.51 l 1705.64,-131.82 c 0,0 339.38,-713.41 -446.97,-1662.89 -198.96,-240.2 -467.72,-225.3 -697.85,-303.12 -64.32,305.53 -208.65,362.52 -367.16,512.32"
             style="fill:url(#linearGradient140);fill-opacity:1;fill-rule:nonzero;stroke:none"
             id="path142" /></g></g><path
         d="m 11483.3,10853.5 c 0,0 -975.6,727.1 -3453.09,-410.6 0,0 -263.04,-306.2 -160.95,-668.09 102.08,-361.87 1638.46,-2797.5 1656.5,-3706.81 0,0 783.34,-177.2 2085.34,343.9 0,0 528.7,2376.91 -127.8,4441.6"
         style="fill:#7d97f4;fill-opacity:1;fill-rule:nonzero;stroke:none"
         id="path144" /><g
         id="g146"><g
           id="g148"
           clip-path="url(#clipPath152)"><path
             d="m 9355.76,12075.9 437.23,-1053.3 c 36.18,-78.9 24.03,-172 -32.88,-237.5 -115.03,-132.3 -350.88,-306.9 -735.31,-171.9 -114.35,40.1 -199.05,138 -222.05,257 l -169.44,876.7 722.45,329"
             style="fill:url(#linearGradient158);fill-opacity:1;fill-rule:nonzero;stroke:none"
             id="path160" /></g></g><g
         id="g162"><g
           id="g164"
           clip-path="url(#clipPath168)"><path
             d="m 7991.66,12636.3 c -1.97,-22.3 373.46,-1453.8 373.46,-1453.8 l 812.82,231.7 -154.25,1409.7 c 0,0 -999.06,185.7 -1032.03,-187.6"
             style="fill:url(#linearGradient174);fill-opacity:1;fill-rule:nonzero;stroke:none"
             id="path176" /></g></g><g
         id="g178"><g
           id="g180"
           clip-path="url(#clipPath184)"><path
             d="m 8855.97,12498.6 139.31,-735.7 c 1.79,-9.5 2.29,-18.9 1.46,-28.4 -5.09,-58.6 -37.38,-258.7 -240.16,-213.2 -184.01,41.3 -352.54,76.3 -465.33,34.8 -50.65,-18.6 -78.85,-72.5 -65.15,-124.7 34.14,-130 116.51,-421.7 226.72,-664.1 22.37,-49.2 78.89,-72.6 129.87,-54.6 153.59,54.1 474.34,177.3 709.16,336.9 31.82,21.7 49.44,58.5 45.7,96.8 -18.23,186.7 -71.52,754.2 -61.92,914.7 9.03,150.6 187.73,250.4 265.75,286.9 25.58,12 44.94,33.7 53.95,60.5 31.84,94.7 70.94,311.7 -203.93,384.6 -57.53,15.3 -90.68,74.6 -73.69,131.6 33.85,113.6 41.33,284.4 -172.73,366.5 -217.58,83.4 -369.9,-38.5 -450.43,-135.3 -32.57,-39.1 -87.81,-47.8 -132.26,-23 -25.31,14.1 -57.09,17.4 -93.85,-8.4 -49.52,-34.8 -118.65,-16.8 -148.11,36.1 -56.62,101.5 -166.41,207.6 -372.31,160.5 -365.36,-83.5 -384.56,-494.6 -274.03,-728.7 110.54,-234.1 501.5,-121 693.49,10.7 145.98,100.1 347.22,14.7 435.3,-32 27.9,-14.8 47.31,-41.5 53.19,-72.5"
             style="fill:url(#linearGradient190);fill-opacity:1;fill-rule:nonzero;stroke:none"
             id="path192" /></g></g><g
         id="g194"><g
           id="g196"
           clip-path="url(#clipPath200)"><path
             d="m 9323.69,11792.7 c 0,0 -175.09,416.2 -25.04,528.8 150.04,112.6 383.76,71.4 349.95,-239 -42.06,-386.1 -324.91,-289.8 -324.91,-289.8"
             style="fill:url(#linearGradient206);fill-opacity:1;fill-rule:nonzero;stroke:none"
             id="path208" /></g></g><g
         id="g210"><g
           id="g212"
           clip-path="url(#clipPath216)"><path
             d="M 23003.8,3287.8 H 1693.73 c -122.45,0 -221.7,99.3 -221.7,221.7 v 811 c 0,122.4 99.25,221.7 221.7,221.7 H 23003.8 c 122.5,0 221.7,-99.3 221.7,-221.7 v -811 c 0,-122.4 -99.2,-221.7 -221.7,-221.7"
             style="fill:url(#linearGradient222);fill-opacity:1;fill-rule:nonzero;stroke:none"
             id="path224" /></g></g><g
         id="g226"><g
           id="g228"
           clip-path="url(#clipPath232)"><path
             d="m 15340.6,4881.5 c 0,0 4186.6,27.2 4781.2,30.4 562.5,3.1 1770.3,-112.6 2223.7,-635.4 38.8,-44.7 109.1,-42 145.2,5 l 121,157.8 c 0,0 -315.9,264.2 -794.6,654.2 -328.6,267.6 -456.4,430.6 -548.5,502.7 -42.1,33 -161.9,21.1 -205.5,-9.8 l -186,-131.8 c -106.7,-49.9 -226.8,-63 -341.7,-37.2 -621.2,139.1 -2686.4,603.7 -3130.7,728.4 -524.6,147.2 -1386,118.9 -1983.2,-352.4 -597.1,-471.2 -80.9,-911.9 -80.9,-911.9"
             style="fill:url(#linearGradient238);fill-opacity:1;fill-rule:nonzero;stroke:none"
             id="path240" /></g></g><g
         id="g242"><g
           id="g244"
           clip-path="url(#clipPath248)"><path
             d="m 3212.49,4551.8 c -8.12,-2.8 -1163.04,-393.4 -999.34,1003.4 0,0 -181.99,651.4 440.44,754.6 0,0 234.36,458.91 811,205.9 -175.44,337.77 -310.32,742.54 145.88,906.28 176.65,63.41 373.41,49.6 553.94,-1.72 293.8,-83.5 571,-282.34 671.88,-570.64 100.88,-288.3 -28.5,-659.92 -316.24,-762.42 -79.35,-28.3 -183.56,-54.2 -194.86,-137.7 -7.58,-55.9 34.55,-104.6 69.35,-149 139.78,-178.6 188.75,-455 39.39,-625.6 -123,-140.5 -329.82,-162.5 -516.13,-174.9 -179.3,-11.9 -315.29,-1.3 -450.56,-125.8 -82.44,-75.9 -150.11,-286.1 -254.75,-322.4"
             style="fill:url(#linearGradient254);fill-opacity:1;fill-rule:nonzero;stroke:none"
             id="path256" /></g></g><g
         id="g258"><g
           id="g260"
           clip-path="url(#clipPath264)"><path
             d="m 5784.76,5069.2 c -12.53,32.2 -24.69,61.7 -36.64,87.1 -77.34,164.2 -230.36,379.8 -242.2,559.1 -20.41,309.4 336.23,592.7 605.31,690.6 952.68,346.71 1763.54,94.65 2718.48,-64.2 566.28,-94.1 1241.99,-189.1 1789.79,38.4 0,0 868.9,-894.8 68.1,-1760 -70.5,-76.2 -454.1,-85.2 -553.4,-106.2 -1172.2,-247.4 -2348.63,-88.5 -3537.13,-17.5 -155.04,9.3 -411.08,-55.1 -544.99,49.6 -119.33,93.4 -198.97,347.7 -267.32,523.1"
             style="fill:url(#linearGradient270);fill-opacity:1;fill-rule:nonzero;stroke:none"
             id="path272" /></g></g><g
         id="g274"><g
           id="g276"
           clip-path="url(#clipPath280)"><path
             d="m 4305.62,5604.7 c 0,0 1291.08,707.2 1799.15,760.8 0,0 70.79,-689.2 -256.45,-1129.9 0,0 -1151.43,-96.4 -1355.07,-170.1 l -187.63,539.2"
             style="fill:url(#linearGradient286);fill-opacity:1;fill-rule:nonzero;stroke:none"
             id="path288" /></g></g><g
         id="g290"><g
           id="g292"
           clip-path="url(#clipPath296)"><path
             d="m 3122.49,4534.9 c 0,0 1811.3,-315.1 1925.99,449 114.71,764.1 -1173.06,989.2 -1173.06,989.2 0,0 -845.35,-131.2 -983.27,-485.3 -137.94,-354.1 230.34,-952.9 230.34,-952.9"
             style="fill:url(#linearGradient302);fill-opacity:1;fill-rule:nonzero;stroke:none"
             id="path304" /></g></g><g
         id="g306"><g
           id="g308"
           clip-path="url(#clipPath312)"><path
             d="m 2435.28,5440.6 c 0,0 211.33,-458.2 442.73,-481.7 231.42,-23.4 281.76,767.4 249.16,979.6 l 844.56,346.9 c 0,0 -927.86,333.47 -1365.22,38.7 -437.36,-294.8 -171.23,-883.5 -171.23,-883.5"
             style="fill:url(#linearGradient318);fill-opacity:1;fill-rule:nonzero;stroke:none"
             id="path320" /></g></g><g
         id="g322"><g
           id="g324"
           clip-path="url(#clipPath328)"><path
             d="m 3854.2,5770.5 c 0,0 -554.7,312.4 -279.6,536.8 275.1,224.44 613.24,-258.1 499.11,-471.9 l -219.51,-64.9"
             style="fill:url(#linearGradient334);fill-opacity:1;fill-rule:nonzero;stroke:none"
             id="path336" /></g></g><g
         id="g338"><g
           id="g340"
           clip-path="url(#clipPath344)"><path
             d="m 14135.1,4343.9 c 74.3,-32.8 1550.1,-127.9 1691.5,-118.6 l 5240.2,429.6 c 63.3,5.2 126.9,0.5 188.9,-13.8 212.2,-48.8 724.1,-185.2 1125.7,-440.7 l 120.1,-154.8 c 40.4,-52.1 123.2,-33.8 137.8,30.6 l 82.8,365.4 c 18.7,82.7 -17.5,168.3 -90.3,211.7 -361.8,215.8 -685.3,444.6 -942.8,696 -133.7,103.7 -322,98.2 -449.4,-13.1 l -79.2,-69.2 c -145,-92.7 -315.6,-136.8 -487.4,-125.8 -636.6,40.7 -2250.5,157.7 -2976.3,339.2 -824.8,206.2 -1837.1,-327.2 -1837.1,-327.2 L 15340,5586.7 14135.1,4343.9"
             style="fill:url(#linearGradient350);fill-opacity:1;fill-rule:nonzero;stroke:none"
             id="path352" /></g></g><path
         d="m 10228.9,4355.5 c 0,0 5032.1,-195.9 5056.4,-137.4 135.4,326 210.2,375.1 205.7,1876.9 -0.2,75.6 -47.2,142 -116.6,162.9 -418.1,125.6 -1890,456.73 -2137.5,642.43 -655,491.47 -2196.3,829.66 -3141.2,-615.33 207,-612.8 313.4,-1348.5 133.2,-1929.5"
         style="fill:#bdd0fb;fill-opacity:1;fill-rule:nonzero;stroke:none"
         id="path354" /><g
         id="g356"><g
           id="g358"
           clip-path="url(#clipPath362)"><path
             d="m 6691.13,5688.9 c 1465.8,-161.3 3603.07,-913.2 5918.87,-1451.8 536.3,133.3 844.5,63.2 1145.6,-119.6 63.4,-38.4 29.7,-135.9 -43.9,-126.6 -437.5,55.6 -804.9,95.4 -1090,-44.3 -2219.1,374 -4280.19,506.6 -6138.62,570.3 -501.86,99.1 -659.48,540.8 -429.65,883.4 139.85,208.5 388.17,316.1 637.7,288.6"
             style="fill:url(#linearGradient368);fill-opacity:1;fill-rule:nonzero;stroke:none"
             id="path370" /></g></g><g
         id="g372"><g
           id="g374"
           clip-path="url(#clipPath378)"><path
             d="m 5867.02,6983.29 c -295.75,0 -536.35,-240.6 -536.35,-536.39 0,-295.7 240.6,-536.3 536.35,-536.3 295.75,0 536.35,240.6 536.35,536.3 0,295.79 -240.6,536.39 -536.35,536.39 z m 0,-1232.79 c -384.02,0 -696.45,312.4 -696.45,696.4 0,384.08 312.43,696.5 696.45,696.5 384.02,0 696.45,-312.42 696.45,-696.5 0,-384 -312.43,-696.4 -696.45,-696.4"
             style="fill:url(#linearGradient384);fill-opacity:1;fill-rule:nonzero;stroke:none"
             id="path386" /></g></g><g
         id="g388"><g
           id="g390"
           clip-path="url(#clipPath394)"><path
             d="m 6267.28,6446.9 c 0,-221 -179.2,-400.2 -400.26,-400.2 -221.06,0 -400.26,179.2 -400.26,400.2 0,221.1 179.2,400.31 400.26,400.31 221.06,0 400.26,-179.21 400.26,-400.31"
             style="fill:url(#linearGradient400);fill-opacity:1;fill-rule:nonzero;stroke:none"
             id="path402" /></g></g><g
         id="g404"><g
           id="g406"
           clip-path="url(#clipPath410)"><path
             d="m 17404.2,5809 c -263.1,0 -477.2,-214.1 -477.2,-477.2 0,-263.2 214.1,-477.3 477.2,-477.3 263.2,0 477.3,214.1 477.3,477.3 0,263.1 -214.1,477.2 -477.3,477.2 z m 0,-1096.9 c -341.7,0 -619.7,278 -619.7,619.7 0,341.7 278,619.7 619.7,619.7 341.7,0 619.7,-278 619.7,-619.7 0,-341.7 -278,-619.7 -619.7,-619.7"
             style="fill:url(#linearGradient416);fill-opacity:1;fill-rule:nonzero;stroke:none"
             id="path418" /></g></g><g
         id="g420"><g
           id="g422"
           clip-path="url(#clipPath426)"><path
             d="m 17760.4,5331.8 c 0,-196.7 -159.5,-356.2 -356.2,-356.2 -196.7,0 -356.1,159.5 -356.1,356.2 0,196.7 159.4,356.1 356.1,356.1 196.7,0 356.2,-159.4 356.2,-356.1"
             style="fill:url(#linearGradient432);fill-opacity:1;fill-rule:nonzero;stroke:none"
             id="path434" /></g></g><g
         id="g436"><g
           id="g438"
           clip-path="url(#clipPath442)"><path
             d="m 9175.97,6952.67 c 112.62,-133.48 2583.33,653.65 2411.33,885.75 274.5,-88.83 622.5,-338.26 942.6,-919.15 -734.3,-500.47 -2617.3,-604.77 -3034.04,-468.77 -70.89,23.2 -144.95,33 -214.95,7.2 -141.53,-52 -387.18,-134.1 -526.37,-133.4 -203.64,1 -384.95,-743.8 -739.84,-575.2 0,0 94.46,1261.62 1161.27,1203.57"
             style="fill:url(#linearGradient448);fill-opacity:1;fill-rule:nonzero;stroke:none"
             id="path450" /></g></g><path
         d="m 11587.3,7838.42 c 263.9,482.51 -714.2,1974.32 -714.2,1974.32 l 610.2,1040.76 c 0,0 2282,-2581.86 1181.3,-3878.26 -116.5,-137.22 -159.1,-157.19 -180.3,-85.59 -170.3,574.69 -695.8,772.19 -897,948.77"
         style="fill:#7d97f4;fill-opacity:1;fill-rule:nonzero;stroke:none"
         id="path452" /><path
         d="m 11608.2,7913.33 c 13.6,-3.61 28.5,2.33 35.6,15.28 269.8,493.33 -675.2,1945 -715.6,2006.57 -9.5,14.44 -28.9,18.55 -43.5,9.05 -14.4,-9.51 -18.5,-28.98 -9,-43.46 9.7,-14.75 964.9,-1481.5 713,-1942.05 -8.3,-15.2 -2.7,-34.28 12.5,-42.59 2.2,-1.24 4.6,-2.16 7,-2.8"
         style="fill:#91b3fa;fill-opacity:1;fill-rule:nonzero;stroke:none"
         id="path454" /><g
         id="g456"><g
           id="g458"
           clip-path="url(#clipPath462)"><path
             d="m 6887.86,6829.54 c 21.68,18.56 43.29,36.81 64.93,54.39 117.17,95.18 234.37,190.33 351.5,285.55 103.2,83.89 239.84,110.97 370.81,131.71 142.59,22.58 291.15,19.85 432.05,52.12 117.62,26.96 324,174.34 436.54,215.55 159.2,58.31 355.75,-444.55 381.28,-532.14 -205.94,-72.12 -486.68,-116.51 -703.78,-124.32 -129.42,-4.97 -264.62,-15.53 -388.72,-53.23 -14.77,-4.49 -29.93,-9.18 -42.01,-18.79 -44.99,-35.78 -38.97,-149.95 -62.65,-203.83 -26.93,-61.28 -71.07,-128.33 -70.44,-197.65 0,-77.7 53.87,-155.1 93.14,-218.5 -55.72,-23.6 -122.68,-18.4 -174.14,13.4 -37.52,23.1 -65.91,58.6 -88.82,96.3 -38.58,63.4 -50.26,278.82 -136.34,296.37 -117.38,23.89 -263.31,-154.27 -352.83,-212.47 -92.87,-60.2 -204.52,-111.7 -315.1,-98 -134.62,16.7 -261.74,32 -388.66,84.3 -0.84,81.4 6.75,103.44 86.66,128.74 51.11,16.18 108.68,17.87 157.19,41.72 127.44,62.65 239.39,164.67 349.39,258.78"
             style="fill:url(#linearGradient468);fill-opacity:1;fill-rule:nonzero;stroke:none"
             id="path470" /></g></g><g
         id="g472"><g
           id="g474"
           clip-path="url(#clipPath478)"><path
             d="m 9332.2,6681.51 c -278.3,0 -504.7,-226.41 -504.7,-504.71 0,-278.3 226.4,-504.7 504.7,-504.7 278.3,0 504.71,226.4 504.71,504.7 0,278.3 -226.41,504.71 -504.71,504.71 z m 0,-1160.11 c -361.37,0 -655.36,294 -655.36,655.4 0,361.38 293.99,655.37 655.36,655.37 361.37,0 655.37,-293.99 655.37,-655.37 0,-361.4 -294,-655.4 -655.37,-655.4"
             style="fill:url(#linearGradient484);fill-opacity:1;fill-rule:nonzero;stroke:none"
             id="path486" /></g></g><g
         id="g488"><g
           id="g490"
           clip-path="url(#clipPath494)"><path
             d="m 9708.85,6176.8 c 0,-208 -168.63,-376.6 -376.65,-376.6 -208.02,0 -376.64,168.6 -376.64,376.6 0,208 168.62,376.65 376.64,376.65 208.02,0 376.65,-168.65 376.65,-376.65"
             style="fill:url(#linearGradient500);fill-opacity:1;fill-rule:nonzero;stroke:none"
             id="path502" /></g></g><path
         d="m 17877,913.301 c 32.2,0 60.7,20.801 66.2,50.097 L 18989.1,6499.6 c 6.2,32.75 -18.5,63.74 -55.1,69.26 -36.6,5.47 -71.3,-16.53 -77.5,-49.24 L 17810.6,983.398 c -6.1,-32.699 18.5,-63.699 55.2,-69.199 3.7,-0.597 7.5,-0.898 11.2,-0.898"
         style="fill:#7d97f4;fill-opacity:1;fill-rule:nonzero;stroke:none"
         id="path504" /><path
         d="m 21405.3,913.301 c 4.4,0 8.9,0.398 13.4,1.199 36.4,6.602 60,38.301 52.6,70.801 L 20238.4,6449.5 c -7.3,32.5 -42.7,53.7 -79.2,47 -36.4,-6.6 -59.9,-38.2 -52.6,-70.8 L 21339.5,961.5 c 6.4,-28.5 34.5,-48.199 65.8,-48.199"
         style="fill:#7d97f4;fill-opacity:1;fill-rule:nonzero;stroke:none"
         id="path506" /><path
         d="m 18675,5131.5 h 1787.3 c 37.1,0 67.2,26.9 67.2,60 0,33.2 -30.1,60.1 -67.2,60.1 H 18675 c -37.1,0 -67.2,-26.9 -67.2,-60.1 0,-33.1 30.1,-60 67.2,-60"
         style="fill:#7d97f4;fill-opacity:1;fill-rule:nonzero;stroke:none"
         id="path508" /><path
         d="m 18707.5,5131.5 h 1722.3 c 35.8,0 64.8,26.9 64.8,60 0,33.2 -29,60.1 -64.8,60.1 h -1722.3 c -35.8,0 -64.8,-26.9 -64.8,-60.1 0,-33.1 29,-60 64.8,-60"
         style="fill:#7d97f4;fill-opacity:1;fill-rule:nonzero;stroke:none"
         id="path510" /><path
         d="m 18675,4130.4 h 1787.3 c 37.1,0 67.2,26.9 67.2,60.1 0,33.2 -30.1,60.1 -67.2,60.1 H 18675 c -37.1,0 -67.2,-26.9 -67.2,-60.1 0,-33.2 30.1,-60.1 67.2,-60.1"
         style="fill:#7d97f4;fill-opacity:1;fill-rule:nonzero;stroke:none"
         id="path512" /><path
         d="m 18512.8,4130.4 h 2166.7 c 37.2,0 67.3,26.9 67.3,60.1 0,33.2 -30.1,60.1 -67.3,60.1 h -2166.7 c -37.2,0 -67.3,-26.9 -67.3,-60.1 0,-33.2 30.1,-60.1 67.3,-60.1"
         style="fill:#7d97f4;fill-opacity:1;fill-rule:nonzero;stroke:none"
         id="path514" /><path
         d="m 18675,3129.4 h 1787.3 c 37.1,0 67.2,26.9 67.2,60.1 0,33.2 -30.1,60.1 -67.2,60.1 H 18675 c -37.1,0 -67.2,-26.9 -67.2,-60.1 0,-33.2 30.1,-60.1 67.2,-60.1"
         style="fill:#7d97f4;fill-opacity:1;fill-rule:nonzero;stroke:none"
         id="path516" /><path
         d="m 18305.8,3129.4 h 2593.6 c 37.1,0 67.3,26.9 67.3,60.1 0,33.2 -30.2,60.1 -67.3,60.1 h -2593.6 c -37.1,0 -67.2,-26.9 -67.2,-60.1 0,-33.2 30.1,-60.1 67.2,-60.1"
         style="fill:#7d97f4;fill-opacity:1;fill-rule:nonzero;stroke:none"
         id="path518" /><path
         d="m 18675,2128.4 h 2432.9 c 37.1,0 67.3,26.9 67.3,60.1 0,33.1 -30.2,60 -67.3,60 H 18675 c -37.1,0 -67.2,-26.9 -67.2,-60 0,-33.2 30.1,-60.1 67.2,-60.1"
         style="fill:#7d97f4;fill-opacity:1;fill-rule:nonzero;stroke:none"
         id="path520" /><path
         d="m 18138.4,2128.4 h 2969.5 c 37.1,0 67.3,26.9 67.3,60.1 0,33.1 -30.2,60 -67.3,60 h -2969.5 c -37.1,0 -67.2,-26.9 -67.2,-60 0,-33.2 30.1,-60.1 67.2,-60.1"
         style="fill:#7d97f4;fill-opacity:1;fill-rule:nonzero;stroke:none"
         id="path522" /><g
         id="g524"><g
           id="g526"
           clip-path="url(#clipPath530)"><path
             d="m 18949.2,11150.2 c 0,0 -617.8,-791 87.1,-1595.6 l 265,24.7 c 0,0 -510.1,819.1 -282.9,1472.1 l 375.4,-27.4 207.6,135.3 -652.2,-9.1"
             style="fill:url(#linearGradient536);fill-opacity:1;fill-rule:nonzero;stroke:none"
             id="path538" /></g></g><path
         d="m 17127,12928.6 2933.8,151.5 c 57.5,3 106,-31.8 107.7,-77.2 l 66.2,-1776.5 c 1.7,-45.7 -44.5,-84.3 -102.5,-85.5 -531.1,-11.2 -2889.3,-61.1 -2993.1,-69.2 -102.7,-7.9 -110.4,1421.2 -110.7,1773.9 -0.1,43.6 43.4,80.2 98.6,83"
         style="fill:#7d97f4;fill-opacity:1;fill-rule:nonzero;stroke:none"
         id="path540" /><g
         id="g542"><g
           id="g544"
           clip-path="url(#clipPath548)"><path
             d="m 20065.8,12998.4 h -0.6 l -2933.6,-151.5 c -1.5,0 -2.3,-0.6 -2.4,-0.8 1.1,-856.9 29.1,-1516.8 71.8,-1689.9 407.1,13.2 2510.6,57.7 2930.5,66.5 h 0.7 c 0.9,0 1.6,0.6 1.7,0.7 l -66.5,1775.5 z m -2879.7,-1862.3 -2,7.5 c -44.2,162.4 -73.3,831.1 -74.1,1703.6 0,10.2 9,18.6 20.6,19.2 l 2933.7,151.5 c 5.7,0.2 10.6,-1.2 14.8,-4.2 4.9,-3.5 7.6,-8.5 7.8,-14.1 l 66.3,-1776.5 c 0.4,-10.5 -8.8,-19.4 -20.6,-19.9 h -0.6 c -422.8,-8.9 -2551.1,-53.9 -2938.2,-66.8 l -7.7,-0.3"
             style="fill:url(#linearGradient554);fill-opacity:1;fill-rule:nonzero;stroke:none"
             id="path556" /></g></g><g
         id="g558"><g
           id="g560"
           clip-path="url(#clipPath564)"><path
             d="m 19044.7,12723.1 v 0 c 2,-44.9 18.6,-80.7 37,-79.8 l 815.5,36.3 c 18.4,0.8 31.8,37.9 29.8,82.8 -2,44.9 -18.6,80.7 -37,79.9 l -815.5,-36.4 c -18.4,-0.8 -31.8,-37.9 -29.8,-82.8"
             style="fill:url(#linearGradient570);fill-opacity:1;fill-rule:nonzero;stroke:none"
             id="path572" /></g></g><g
         id="g574"><g
           id="g576"
           clip-path="url(#clipPath580)"><path
             d="m 19048.3,12501.9 v 0 c 1,-22.5 16.7,-40 35.2,-39.2 l 815.4,36.3 c 18.5,0.8 32.6,19.7 31.6,42.2 -1,22.4 -16.7,40 -35.2,39.2 l -815.5,-36.4 c -18.4,-0.8 -32.5,-19.7 -31.5,-42.1"
             style="fill:url(#linearGradient586);fill-opacity:1;fill-rule:nonzero;stroke:none"
             id="path588" /></g></g><g
         id="g590"><g
           id="g592"
           clip-path="url(#clipPath596)"><path
             d="m 19048.3,12332.5 v 0 c 1,-22.5 16.7,-40 35.2,-39.2 l 815.4,36.3 c 18.5,0.8 32.6,19.7 31.6,42.2 -1,22.4 -16.7,40 -35.2,39.2 l -815.5,-36.4 c -18.4,-0.8 -32.5,-19.7 -31.5,-42.1"
             style="fill:url(#linearGradient602);fill-opacity:1;fill-rule:nonzero;stroke:none"
             id="path604" /></g></g><g
         id="g606"><g
           id="g608"
           clip-path="url(#clipPath612)"><path
             d="m 18404.6,12290.9 z m -534.3,-324.2 62.9,-541.7 c 136.6,0.1 636.6,2.5 760.6,31 88.2,20.3 133.5,66.8 134,87.1 0.2,7.8 -14.4,17.4 -36.5,23.8 -18.1,5.2 -29.8,22.5 -28,41.2 1.8,18.7 16.6,33.5 35.3,35.2 26.9,2.4 55.3,33 62,66.7 4.9,24.4 0.8,58.8 -46.6,83.9 -12,6.3 -19.9,18.3 -20.8,31.9 -0.9,13.5 5.2,26.5 16.3,34.4 0.2,0.1 41,31.1 39.8,68.6 -1.1,36.3 -41.1,69.5 -74.5,90.9 -11.4,7.4 -18.2,20.2 -17.9,33.9 0.3,13.6 7.8,26 19.6,32.8 1.9,1.2 53.3,32.4 45,83.9 -6.2,38.9 -13.2,83 -156,66.5 -27.4,-3.2 -56.4,-7.7 -84.4,-12.1 -104.3,-16.2 -186.7,-28.9 -230.1,10.1 -12,10.9 -26.1,30.7 -24.5,62.9 1.2,24.9 8.4,55.6 16.7,91.1 21,89.4 49.6,211.9 -9.1,293.2 -22.8,31.5 -45.3,48.7 -58.8,44.3 -14.1,-4.5 -25.3,-27.7 -25.4,-35.7 2.4,-20.7 21,-213.5 -95.1,-346.1 -48.6,-55.6 -76.2,-128.5 -100.5,-192.9 -24.5,-65 -43.9,-116.3 -81.1,-140.9 -35.9,-23.8 -74.9,-37 -102.9,-44 z m 60.5,-619.8 c -18,0 -29.4,0 -32.6,0 -19.7,0.1 -36.3,14.9 -38.6,34.6 l -71.1,612.2 c -1.2,10.3 1.8,20.7 8.3,28.8 6.5,8.2 16,13.4 26.3,14.5 1.4,0.1 59.1,7.1 107,38.8 16.1,10.7 34.7,59.9 51.1,103.4 25.4,67.1 56.9,150.6 114.8,216.7 94,107.3 78.3,268.5 76.2,286.5 -4.6,39.6 26,97.8 73.8,116.3 29.2,11.4 87.7,17.2 151.4,-71 79.6,-110.1 44.9,-258.5 21.9,-356.7 -7.2,-30.5 -13.9,-59.3 -14.8,-77.1 v -1.8 c 19.9,-12.6 110.2,1.4 164.6,9.8 28.8,4.5 58.5,9.1 87.4,12.4 101.1,11.8 219.9,7.4 242.1,-131.6 9.2,-57.5 -15.3,-100.4 -40,-127.9 44.6,-38.2 67.7,-79.9 68.8,-124.4 1,-40.4 -16.9,-73.6 -35.1,-96.9 39,-36.3 55.6,-85.7 44.9,-138.8 -7.3,-36.8 -27.2,-69.9 -53.6,-93.5 20.1,-22.8 22.7,-47.1 22.3,-60.2 -1.9,-67.9 -83.7,-135.6 -194.6,-161.1 -134.3,-30.9 -644.5,-33 -780.5,-33"
             style="fill:url(#linearGradient618);fill-opacity:1;fill-rule:nonzero;stroke:none"
             id="path620" /></g></g><g
         id="g622"><g
           id="g624"
           clip-path="url(#clipPath628)"><path
             d="m 19287.6,7277.28 c 0,0 500.6,-1091.08 763.2,-1542.98 0,0 52.2,-284.3 0,-373.7 l -44.4,-19.8 207.5,6.2 c 0,0 18.4,382.5 4,403.8 -14.4,21.4 -43.2,20 -43.2,20 0,0 -88.9,704.8 -346.6,855.23 l -249.7,859.99 -290.8,-208.74"
             style="fill:url(#linearGradient634);fill-opacity:1;fill-rule:nonzero;stroke:none"
             id="path636" /></g></g><g
         id="g638"><g
           id="g640"
           clip-path="url(#clipPath644)"><path
             d="m 19917.8,5287.2 c -0.3,-5 162,-2.7 250.2,-1.1 32.5,0.6 60.3,23.5 67.2,55.3 l 66.6,349.9 c 6.3,33.2 -14.8,65.5 -47.8,73 l -37.1,8.5 c 0,0 -53.1,-72.7 -36.4,-141.2 16.7,-68.5 31.6,-245.8 -10.6,-266.5 -42.2,-20.7 -163.5,-24.3 -163.5,-24.3 0,0 -85.9,-8.5 -88.6,-53.6"
             style="fill:url(#linearGradient650);fill-opacity:1;fill-rule:nonzero;stroke:none"
             id="path652" /></g></g><g
         id="g654"><g
           id="g656"
           clip-path="url(#clipPath660)"><path
             d="m 18813.2,5280.9 c -16.5,-9.4 -9.7,-34.4 9.2,-34.2 147.6,1.4 478.2,6.1 507.6,18.3 37.9,15.8 -13.8,152.1 -68.3,198.2 l -300.8,-98.1 -147.7,-84.2"
             style="fill:url(#linearGradient666);fill-opacity:1;fill-rule:nonzero;stroke:none"
             id="path668" /></g></g><g
         id="g670"><g
           id="g672"
           clip-path="url(#clipPath676)"><path
             d="m 18719.8,7346.86 c 0,0 323.5,-1564.96 415,-1870.16 l -216.5,-135.9 c 0,0 108.5,18.5 188.9,24.3 80.5,5.8 154.5,98.1 154.5,98.1 l -26,41.4 c 0,0 -81.1,1556.42 -61.3,1733.15 l -454.6,109.11"
             style="fill:url(#linearGradient682);fill-opacity:1;fill-rule:nonzero;stroke:none"
             id="path684" /></g></g><g
         id="g686"><g
           id="g688"
           clip-path="url(#clipPath692)"><path
             d="m 17916.8,10997.1 c 0,0 -44.6,-814.1 696.5,-1230.09 l -178.4,-406.96 c 0,0 -671,405.87 -646.2,1512.85 0.7,31.7 -10.8,62.6 -31.5,86.7 l -142.6,165.4 c -54.4,63 -74.7,148.6 -54.5,229.3 l 18.8,75 c 6.3,25.1 34.9,37.2 57.3,24.2 l 14.9,-8.6 c 47.5,-27.6 85.1,-69.4 107.5,-119.5 l 70,-156.6 c 26.2,-58.4 86.5,-93.9 150.3,-88.4 l 43.3,3.7 -105.4,-87"
             style="fill:url(#linearGradient698);fill-opacity:1;fill-rule:nonzero;stroke:none"
             id="path700" /></g></g><g
         id="g702"><g
           id="g704"
           clip-path="url(#clipPath708)"><path
             d="m 18587.5,9828.01 c 124,-34.38 544.1,-144.89 806.3,-140.37 l -161,-908.62 12.8,-148.2 -524.9,2.35 c 0,0 -147.8,343.22 -264.4,514.33 -33.7,49.41 -8.6,108.36 10.4,165.03 l -26.2,17.47 c -26.7,17.76 -38.2,51.13 -28.3,81.6 l 127.9,391.13 c 6.6,19.72 27.4,30.84 47.4,25.28"
             style="fill:url(#linearGradient714);fill-opacity:1;fill-rule:nonzero;stroke:none"
             id="path716" /></g></g><g
         id="g718"><g
           id="g720"
           clip-path="url(#clipPath724)"><path
             d="m 18678.6,8710.72 10.3,-89.78 c 0,0 -148.3,-444.29 74.2,-1481.98 0,0 482,-136.55 878.1,190.17 0,0 -111.8,979.43 -142.3,1025.05 -152,227.24 -253.3,276.64 -253.3,276.64 l -4.5,98.09 c 0,0 -423.7,-76.6 -562.5,-18.19"
             style="fill:url(#linearGradient730);fill-opacity:1;fill-rule:nonzero;stroke:none"
             id="path732" /></g></g><g
         id="g734"><g
           id="g736"
           clip-path="url(#clipPath740)"><path
             d="m 18884.1,9754.79 c -1.9,2.43 109.6,336.41 109.6,336.41 l 159.6,-14.4 62.4,-378.97 c 0,0 -250.2,-50.5 -331.6,56.96"
             style="fill:url(#linearGradient746);fill-opacity:1;fill-rule:nonzero;stroke:none"
             id="path748" /></g></g><g
         id="g750"><g
           id="g752"
           clip-path="url(#clipPath756)"><path
             d="m 19115.1,10618 c -10.6,-6.6 -341.1,-143.2 -270.1,-486.3 4.2,-20.3 17.7,-37.4 36.6,-45.9 48.5,-21.6 152.9,-58.6 277.8,-45.9 173.1,17.5 286.5,319.6 281.7,407.5 -4.8,88 -220.5,236.3 -326,170.6"
             style="fill:url(#linearGradient762);fill-opacity:1;fill-rule:nonzero;stroke:none"
             id="path764" /></g></g><g
         id="g766"><g
           id="g768"
           clip-path="url(#clipPath772)"><path
             d="m 19215.7,10751.4 c -8.7,-1.2 -191,-64.6 -100.6,-196.7 90.4,-132.1 124.3,-209.9 81.6,-267.9 -39,-52.8 -125.3,-22.7 -117.8,-132.6 1.5,-22 -8,-43.4 -26.2,-55.8 -81.4,-55 -279.7,-224.44 -83.2,-466.04 16,-19.64 19.3,-46.75 7,-68.86 -57.6,-103.26 -178.5,-405.74 259.2,-573.52 432.6,-165.81 588.8,116.97 632.5,230 9.4,24.44 33.5,39.41 59.7,38.17 47.5,-2.24 114.8,5.66 111.7,69.19 -1.8,38.58 -25.9,73.16 -54.4,100.88 -28.1,27.44 -22.6,75.48 11.6,94.9 25.8,14.67 48.7,37.58 58.3,73.32 26.3,97.14 -26.1,387.61 -304.5,436.86 -23.2,4.1 -47.5,25.9 -50.9,49.2 l -0.2,1 c -3.7,22.6 3.9,45.7 22.4,59.2 44.4,32.6 101.4,98.3 55.1,203.6 -41,93.4 -119.8,124.9 -178.3,134.9 -34.4,5.9 -57,38.4 -49.7,72.5 19.7,92.9 2.5,241.7 -333.3,197.7"
             style="fill:url(#linearGradient778);fill-opacity:1;fill-rule:nonzero;stroke:none"
             id="path780" /></g></g></g></g></svg>
