<?xml version="1.0" encoding="utf-8"?>
<!-- Generator: Adobe Illustrator 19.0.0, SVG Export Plug-In . SVG Version: 6.00 Build 0)  -->
<svg version="1.1" id="Layer_1" xmlns="http://www.w3.org/2000/svg" xmlns:xlink="http://www.w3.org/1999/xlink" x="0px" y="0px"
	 width="1400px" height="980px" viewBox="0 0 1400 980" enable-background="new 0 0 1400 980" xml:space="preserve">
<rect id="XMLID_491_" y="1.5" fill-rule="evenodd" clip-rule="evenodd" fill="#83C4E0" width="1400" height="980"/>
<polygon id="XMLID_81_" fill-rule="evenodd" clip-rule="evenodd" fill="#7AC0DE" points="659,1.5 5.1,655.4 5.1,1.5 "/>
<g id="XMLID_77_">
	<path id="XMLID_163_" fill-rule="evenodd" clip-rule="evenodd" fill="#4A7A9B" d="M1126.6,468.4c5,0,9-4,9-9c0-4.9-4-9-9-9
		c-5,0-9,4-9,9C1117.6,464.3,1121.7,468.4,1126.6,468.4L1126.6,468.4z"/>
	<path id="XMLID_168_" fill-rule="evenodd" clip-rule="evenodd" fill="#4F3F5C" d="M1114.2,469c-0.7,0-1.4-0.1-2.1-0.3v-14.6
		c0.7-0.2,1.4-0.3,2.1-0.3c0.8,0,1.5,0.1,2.2,0.3v14.5C1115.8,468.9,1115,469,1114.2,469L1114.2,469z"/>
	<path id="XMLID_169_" fill-rule="evenodd" clip-rule="evenodd" fill="#4F3F5C" d="M1140.3,468.3c-2.3-1.1-4-3.3-4.3-5.9v-2
		c0.3-2.6,2-4.8,4.3-5.9V468.3z"/>
	<path id="XMLID_181_" fill-rule="evenodd" clip-rule="evenodd" fill="#73ACC6" d="M1126.2,466.9c-4.2,0-7.6-3.4-7.6-7.6
		c0-4.2,3.4-7.6,7.6-7.6c4.2,0,7.6,3.4,7.6,7.6C1133.7,463.5,1130.3,466.9,1126.2,466.9L1126.2,466.9z M1112.1,371.4v108.4h28.2
		V371.4H1112.1z"/>
	<rect id="XMLID_184_" x="1120.8" y="404" fill-rule="evenodd" clip-rule="evenodd" fill="#4A7A9B" width="10.8" height="41.2"/>
	<path id="XMLID_185_" fill-rule="evenodd" clip-rule="evenodd" fill="#4A7A9B" d="M1157.2,468.4c5,0,9-4,9-9c0-4.9-4-9-9-9
		c-5,0-9,4-9,9C1148.2,464.3,1152.3,468.4,1157.2,468.4L1157.2,468.4z"/>
	<path id="XMLID_186_" fill-rule="evenodd" clip-rule="evenodd" fill="#4A7A9B" d="M1186.6,468.4c4.9,0,9-4,9-9c0-4.9-4-9-9-9
		c-5,0-9,4-9,9C1177.6,464.3,1181.7,468.4,1186.6,468.4L1186.6,468.4z"/>
	<path id="XMLID_187_" fill-rule="evenodd" clip-rule="evenodd" fill="#4A7A9B" d="M1216,468.4c5,0,9-4,9-9c0-4.9-4-9-9-9
		c-4.9,0-9,4-9,9C1207,464.3,1211,468.4,1216,468.4L1216,468.4z"/>
	<path id="XMLID_188_" fill-rule="evenodd" clip-rule="evenodd" fill="#4F3F5C" d="M1145.1,469c-0.7,0-1.4-0.1-2.1-0.3v-14.6
		c0.7-0.2,1.4-0.3,2.1-0.3c0.8,0,1.5,0.1,2.2,0.3v14.5C1146.6,468.9,1145.8,469,1145.1,469L1145.1,469z"/>
	<path id="XMLID_189_" fill-rule="evenodd" clip-rule="evenodd" fill="#4F3F5C" d="M1171.1,468.3c-2.3-1.1-4-3.3-4.3-5.9v-2
		c0.3-2.6,2-4.8,4.3-5.9V468.3z"/>
	<path id="XMLID_190_" fill-rule="evenodd" clip-rule="evenodd" fill="#4F3F5C" d="M1174.3,469c-0.4,0-0.7,0-1-0.1v-15
		c0.3,0,0.7-0.1,1-0.1c0.4,0,0.8,0,1.1,0.1v15C1175.1,469,1174.7,469,1174.3,469L1174.3,469z"/>
	<path id="XMLID_191_" fill-rule="evenodd" clip-rule="evenodd" fill="#4F3F5C" d="M1199.3,467.7c-2-1.4-3.3-3.7-3.3-6.3
		s1.3-4.9,3.3-6.3V467.7z"/>
	<path id="XMLID_192_" fill-rule="evenodd" clip-rule="evenodd" fill="#4F3F5C" d="M1203.6,469c-0.7,0-1.4-0.1-2.1-0.3v-14.6
		c0.7-0.2,1.4-0.3,2.1-0.3c0.8,0,1.5,0.1,2.2,0.3v14.5C1205.1,468.9,1204.4,469,1203.6,469L1203.6,469z"/>
	<path id="XMLID_193_" fill-rule="evenodd" clip-rule="evenodd" fill="#4F3F5C" d="M1229.7,468.3c-2.3-1.1-4-3.3-4.3-5.9v-2
		c0.3-2.6,2-4.8,4.3-5.9V468.3z"/>
	<path id="XMLID_195_" fill-rule="evenodd" clip-rule="evenodd" fill="#73ACC6" d="M1157,466.9c-4.2,0-7.6-3.4-7.6-7.6
		c0-4.2,3.4-7.6,7.6-7.6c4.2,0,7.6,3.4,7.6,7.6C1164.6,463.5,1161.2,466.9,1157,466.9L1157,466.9z M1143,371.4v108.4h28.2V371.4
		H1143z"/>
	<rect id="XMLID_198_" x="1151.6" y="404" fill-rule="evenodd" clip-rule="evenodd" fill="#4A7A9B" width="10.8" height="41.2"/>
	<path id="XMLID_200_" fill-rule="evenodd" clip-rule="evenodd" fill="#73ACC6" d="M1186.2,466.9c-4.2,0-7.6-3.4-7.6-7.6
		c0-4.2,3.4-7.6,7.6-7.6s7.6,3.4,7.6,7.6C1193.8,463.5,1190.4,466.9,1186.2,466.9L1186.2,466.9z M1173.3,371.4v108.4h26V371.4
		H1173.3z"/>
	<rect id="XMLID_203_" x="1179.8" y="404" fill-rule="evenodd" clip-rule="evenodd" fill="#4A7A9B" width="13" height="41.2"/>
	<path id="XMLID_205_" fill-rule="evenodd" clip-rule="evenodd" fill="#73ACC6" d="M1215.5,466.9c-4.2,0-7.6-3.4-7.6-7.6
		c0-4.2,3.4-7.6,7.6-7.6c4.2,0,7.6,3.4,7.6,7.6C1223.1,463.5,1219.7,466.9,1215.5,466.9L1215.5,466.9z M1201.5,371.4v108.4h28.2
		V371.4H1201.5z"/>
	<rect id="XMLID_208_" x="1210.2" y="404" fill-rule="evenodd" clip-rule="evenodd" fill="#4A7A9B" width="10.8" height="41.2"/>
	<path id="XMLID_209_" fill-rule="evenodd" clip-rule="evenodd" fill="#4A7A9B" d="M1246.6,468.4c4.9,0,9-4,9-9c0-4.9-4-9-9-9
		c-5,0-9,4-9,9C1237.6,464.3,1241.6,468.4,1246.6,468.4L1246.6,468.4z"/>
	<path id="XMLID_210_" fill-rule="evenodd" clip-rule="evenodd" fill="#4A7A9B" d="M1276,468.4c5,0,9-4,9-9c0-4.9-4-9-9-9
		c-5,0-9,4-9,9C1267,464.3,1271,468.4,1276,468.4L1276,468.4z"/>
	<path id="XMLID_211_" fill-rule="evenodd" clip-rule="evenodd" fill="#4A7A9B" d="M1305.3,468.4c5,0,9-4,9-9c0-4.9-4-9-9-9
		s-9,4-9,9C1296.3,464.3,1300.4,468.4,1305.3,468.4L1305.3,468.4z"/>
	<path id="XMLID_212_" fill-rule="evenodd" clip-rule="evenodd" fill="#4F3F5C" d="M1234.4,469c-0.7,0-1.4-0.1-2.1-0.3v-14.6
		c0.7-0.2,1.4-0.3,2.1-0.3c0.8,0,1.5,0.1,2.2,0.3v14.5C1235.9,468.9,1235.2,469,1234.4,469L1234.4,469z"/>
	<path id="XMLID_213_" fill-rule="evenodd" clip-rule="evenodd" fill="#4F3F5C" d="M1260.5,468.3c-2.3-1.1-4-3.3-4.3-5.9v-2
		c0.3-2.6,2-4.8,4.3-5.9L1260.5,468.3z"/>
	<path id="XMLID_214_" fill-rule="evenodd" clip-rule="evenodd" fill="#4F3F5C" d="M1263.7,469c-0.3,0-0.7,0-1-0.1v-15
		c0.3,0,0.7-0.1,1-0.1c0.4,0,0.8,0,1.1,0.1v15C1264.4,469,1264.1,469,1263.7,469L1263.7,469z"/>
	<path id="XMLID_215_" fill-rule="evenodd" clip-rule="evenodd" fill="#4F3F5C" d="M1288.7,467.7c-2-1.4-3.3-3.7-3.3-6.3
		s1.3-4.9,3.3-6.3V467.7z"/>
	<path id="XMLID_216_" fill-rule="evenodd" clip-rule="evenodd" fill="#4F3F5C" d="M1292.9,469c-0.7,0-1.4-0.1-2.1-0.3v-14.6
		c0.7-0.2,1.4-0.3,2.1-0.3c0.8,0,1.5,0.1,2.2,0.3v14.5C1294.5,468.9,1293.7,469,1292.9,469L1292.9,469z"/>
	<path id="XMLID_217_" fill-rule="evenodd" clip-rule="evenodd" fill="#4F3F5C" d="M1319,468.3c-2.3-1.1-4-3.3-4.3-5.9v-2
		c0.3-2.6,2-4.8,4.3-5.9V468.3z"/>
	<path id="XMLID_219_" fill-rule="evenodd" clip-rule="evenodd" fill="#73ACC6" d="M1246.3,466.9c-4.2,0-7.6-3.4-7.6-7.6
		c0-4.2,3.4-7.6,7.6-7.6s7.6,3.4,7.6,7.6C1253.9,463.5,1250.5,466.9,1246.3,466.9L1246.3,466.9z M1232.3,371.4v108.4h28.2V371.4
		H1232.3z"/>
	<rect id="XMLID_222_" x="1241" y="404" fill-rule="evenodd" clip-rule="evenodd" fill="#4A7A9B" width="10.8" height="41.2"/>
	<path id="XMLID_224_" fill-rule="evenodd" clip-rule="evenodd" fill="#73ACC6" d="M1275.6,466.9c-4.2,0-7.6-3.4-7.6-7.6
		c0-4.2,3.4-7.6,7.6-7.6c4.2,0,7.6,3.4,7.6,7.6C1283.2,463.5,1279.8,466.9,1275.6,466.9L1275.6,466.9z M1262.6,371.4v108.4h26V371.4
		H1262.6z"/>
	<rect id="XMLID_227_" x="1269.2" y="404" fill-rule="evenodd" clip-rule="evenodd" fill="#4A7A9B" width="13" height="41.2"/>
	<path id="XMLID_229_" fill-rule="evenodd" clip-rule="evenodd" fill="#73ACC6" d="M1304.9,466.9c-4.2,0-7.6-3.4-7.6-7.6
		c0-4.2,3.4-7.6,7.6-7.6c4.2,0,7.6,3.4,7.6,7.6C1312.4,463.5,1309.1,466.9,1304.9,466.9L1304.9,466.9z M1290.8,371.4v108.4h28.2
		V371.4H1290.8z"/>
	<rect id="XMLID_232_" x="1299.5" y="404" fill-rule="evenodd" clip-rule="evenodd" fill="#4A7A9B" width="10.8" height="41.2"/>
	<rect id="XMLID_233_" x="447.7" y="480.2" fill-rule="evenodd" clip-rule="evenodd" fill="#4A7A9B" width="910.3" height="34.6"/>
	<rect id="XMLID_234_" x="474.1" y="514.7" fill-rule="evenodd" clip-rule="evenodd" fill="#73ACC6" width="857.5" height="307.7"/>
	<rect id="XMLID_235_" x="490.1" y="822.5" fill-rule="evenodd" clip-rule="evenodd" fill="#4A7A9B" width="825.5" height="24.2"/>
	<rect id="XMLID_236_" x="493.7" y="525.4" fill-rule="evenodd" clip-rule="evenodd" fill="#4A7A9B" width="794.5" height="271.1"/>
	<path id="XMLID_238_" fill-rule="evenodd" clip-rule="evenodd" fill="#73ACC6" d="M522,537.4h361.1v56.3H522V537.4z M522,601h361.1
		v56.3H522V601z M522,664.6h361.1v56.3H522V664.6z M522,728.1h361.1v56.3H522V728.1z"/>
	<rect id="XMLID_246_" x="685.7" y="562" fill-rule="evenodd" clip-rule="evenodd" fill="#4A7A9B" width="33.7" height="7.1"/>
	<rect id="XMLID_247_" x="685.7" y="625.6" fill-rule="evenodd" clip-rule="evenodd" fill="#4A7A9B" width="33.7" height="7.1"/>
	<rect id="XMLID_248_" x="685.7" y="689.1" fill-rule="evenodd" clip-rule="evenodd" fill="#4A7A9B" width="33.7" height="7.1"/>
	<rect id="XMLID_249_" x="685.7" y="752.7" fill-rule="evenodd" clip-rule="evenodd" fill="#4A7A9B" width="33.7" height="7.1"/>
	<path id="XMLID_251_" fill-rule="evenodd" clip-rule="evenodd" fill="#73ACC6" d="M898.8,537.4h361.1v56.3H898.8V537.4z M898.8,601
		h361.1v56.3H898.8V601z M898.8,664.6h361.1v56.3H898.8V664.6z M898.8,728.1h361.1v56.3H898.8V728.1z"/>
	<rect id="XMLID_259_" x="1062.5" y="562" fill-rule="evenodd" clip-rule="evenodd" fill="#4A7A9B" width="33.7" height="7.1"/>
	<rect id="XMLID_260_" x="1062.5" y="625.6" fill-rule="evenodd" clip-rule="evenodd" fill="#4A7A9B" width="33.7" height="7.1"/>
	<rect id="XMLID_261_" x="1062.5" y="689.1" fill-rule="evenodd" clip-rule="evenodd" fill="#4A7A9B" width="33.7" height="7.1"/>
	<rect id="XMLID_262_" x="1062.5" y="752.7" fill-rule="evenodd" clip-rule="evenodd" fill="#4A7A9B" width="33.7" height="7.1"/>
	<path id="XMLID_263_" fill-rule="evenodd" clip-rule="evenodd" fill="#4A7A9B" d="M515.9,884.7c8.5,0,15.5-7,15.5-15.5
		c0-8.5-7-15.5-15.5-15.5s-15.5,7-15.5,15.5C500.4,877.7,507.4,884.7,515.9,884.7L515.9,884.7z"/>
	<rect id="XMLID_264_" x="507.4" y="840.7" fill-rule="evenodd" clip-rule="evenodd" fill="#4A7A9B" width="17" height="15.2"/>
	<path id="XMLID_265_" fill-rule="evenodd" clip-rule="evenodd" fill="#4A7A9B" d="M1289.8,884.7c8.5,0,15.5-7,15.5-15.5
		c0-8.5-7-15.5-15.5-15.5c-8.5,0-15.5,7-15.5,15.5C1274.3,877.7,1281.2,884.7,1289.8,884.7L1289.8,884.7z"/>
	<rect id="XMLID_266_" x="1281.2" y="840.7" fill-rule="evenodd" clip-rule="evenodd" fill="#4A7A9B" width="17" height="15.2"/>
</g>
<g id="XMLID_473_">
	<path id="XMLID_474_" fill-rule="evenodd" clip-rule="evenodd" fill="#82AFC5" d="M1225.5,245.6c46.2,0,83.8-37.7,83.8-83.8
		S1271.7,78,1225.5,78s-83.8,37.6-83.8,83.8S1179.3,245.6,1225.5,245.6L1225.5,245.6z"/>
	<path id="XMLID_475_" fill-rule="evenodd" clip-rule="evenodd" fill="#50617A" d="M1225.5,235.9c40.8,0,74.1-33.3,74.1-74.1
		c0-40.8-33.3-74.1-74.1-74.1c-40.8,0-74.1,33.3-74.1,74.1C1151.4,202.6,1184.7,235.9,1225.5,235.9L1225.5,235.9z"/>
	<path id="XMLID_476_" fill-rule="evenodd" clip-rule="evenodd" fill="#50617A" d="M1225.5,100.3c2.1,0,3.8-1.7,3.8-3.8
		s-1.7-3.8-3.8-3.8c-2.1,0-3.8,1.7-3.8,3.8S1223.4,100.3,1225.5,100.3L1225.5,100.3z"/>
	<path id="XMLID_477_" fill-rule="evenodd" clip-rule="evenodd" fill="#50617A" d="M1225.5,232.3c2.1,0,3.8-1.7,3.8-3.8
		c0-2.1-1.7-3.8-3.8-3.8c-2.1,0-3.8,1.7-3.8,3.8C1221.7,230.6,1223.4,232.3,1225.5,232.3L1225.5,232.3z"/>
	<path id="XMLID_478_" fill-rule="evenodd" clip-rule="evenodd" fill="#50617A" d="M1155.7,161.8c0-2.1,1.7-3.8,3.8-3.8
		c2.1,0,3.8,1.7,3.8,3.8c0,2.1-1.7,3.8-3.8,3.8C1157.4,165.6,1155.7,163.9,1155.7,161.8L1155.7,161.8z"/>
	<path id="XMLID_479_" fill-rule="evenodd" clip-rule="evenodd" fill="#50617A" d="M1287.7,161.8c0-2.1,1.7-3.8,3.8-3.8
		c2.1,0,3.8,1.7,3.8,3.8c0,2.1-1.7,3.8-3.8,3.8C1289.4,165.6,1287.7,163.9,1287.7,161.8L1287.7,161.8z"/>
	<rect id="XMLID_480_" x="1223.1" y="109.1" fill-rule="evenodd" clip-rule="evenodd" fill="#50617A" width="4.5" height="54.5"/>
	<rect id="XMLID_481_" x="1223.1" y="159" fill-rule="evenodd" clip-rule="evenodd" fill="#50617A" width="36.7" height="4.6"/>
	<path id="XMLID_482_" fill-rule="evenodd" clip-rule="evenodd" fill="#231914" d="M1231.5,246.1c46.2,0,83.8-37.7,83.8-83.8
		s-37.6-83.8-83.8-83.8c-46.2,0-83.8,37.6-83.8,83.8S1185.3,246.1,1231.5,246.1L1231.5,246.1z"/>
	<path id="XMLID_483_" fill-rule="evenodd" clip-rule="evenodd" fill="#FFFFFF" d="M1231.5,236.4c40.8,0,74.1-33.3,74.1-74.1
		s-33.3-74.1-74.1-74.1c-40.8,0-74.1,33.3-74.1,74.1S1190.7,236.4,1231.5,236.4L1231.5,236.4z"/>
	<path id="XMLID_484_" fill-rule="evenodd" clip-rule="evenodd" fill="#EEEEEE" d="M1231.5,88.1c22.9,0,43.4,10.4,57,26.7
		l-103.9,104.8c-16.6-13.6-27.2-34.3-27.2-57.4C1157.4,121.3,1190.6,88.1,1231.5,88.1L1231.5,88.1z"/>
	<path id="XMLID_485_" fill-rule="evenodd" clip-rule="evenodd" fill="#231914" d="M1231.5,100.8c2.1,0,3.8-1.7,3.8-3.8
		c0-2.1-1.7-3.8-3.8-3.8c-2.1,0-3.8,1.7-3.8,3.8C1227.7,99.1,1229.4,100.8,1231.5,100.8L1231.5,100.8z"/>
	<path id="XMLID_486_" fill-rule="evenodd" clip-rule="evenodd" fill="#231914" d="M1231.5,232.8c2.1,0,3.8-1.7,3.8-3.8
		c0-2.1-1.7-3.8-3.8-3.8c-2.1,0-3.8,1.7-3.8,3.8C1227.7,231.1,1229.4,232.8,1231.5,232.8L1231.5,232.8z"/>
	<path id="XMLID_487_" fill-rule="evenodd" clip-rule="evenodd" fill="#231914" d="M1161.7,162.3c0-2.1,1.7-3.8,3.8-3.8
		s3.8,1.7,3.8,3.8c0,2.1-1.7,3.8-3.8,3.8S1161.7,164.4,1161.7,162.3L1161.7,162.3z"/>
	<path id="XMLID_488_" fill-rule="evenodd" clip-rule="evenodd" fill="#231914" d="M1293.7,162.3c0-2.1,1.7-3.8,3.8-3.8
		c2.1,0,3.8,1.7,3.8,3.8c0,2.1-1.7,3.8-3.8,3.8C1295.4,166,1293.7,164.4,1293.7,162.3L1293.7,162.3z"/>
	<rect id="XMLID_489_" x="1229.1" y="109.6" fill-rule="evenodd" clip-rule="evenodd" fill="#231914" width="4.5" height="54.5"/>
	<rect id="XMLID_490_" x="1229.1" y="159.5" fill-rule="evenodd" clip-rule="evenodd" fill="#231914" width="36.7" height="4.6"/>
</g>
<g id="XMLID_39_">
	<polygon id="XMLID_13_" fill-rule="evenodd" clip-rule="evenodd" fill="#003356" points="966.6,278.6 1021.6,278.6 1028.5,292 
		959.7,292 	"/>
	<path id="XMLID_67_" fill-rule="evenodd" clip-rule="evenodd" fill="#D8D8D9" d="M713.2,104.3L713.2,104.3c0-3.8,3.1-6.9,6.8-6.9
		l200.7-0.4c3.8,0,6.9,3.1,6.9,6.8v0c0,3.8-3.1,6.9-6.8,6.9l-200.7,0.4C716.3,111.1,713.2,108,713.2,104.3z"/>
	<path id="XMLID_493_" fill-rule="evenodd" clip-rule="evenodd" fill="#EEEEEE" d="M720.1,97.1L720.1,97.1c3.8,0,6.9,3.1,6.9,6.8
		l0.8,394.5c0,3.8-3.1,6.9-6.8,6.9h0c-3.8,0-6.9-3.1-6.9-6.8L713.2,104C713.2,100.2,716.3,97.2,720.1,97.1z"/>
	<path id="XMLID_38_" fill-rule="evenodd" clip-rule="evenodd" fill="#F9D0A9" d="M719.2,244c0,0,18.1,10.2,28.1,24.8
		c1.2,1.7-7.4,4.6-6.3,6.4c6.9,11.6,15.7,24.1,10.6,36.7c-12.7,31.6-53.8,33.5-54.5,32.5s-59.3-18.7-59.5-62.4
		S686.5,218.1,719.2,244z"/>
	<path id="XMLID_505_" fill-rule="evenodd" clip-rule="evenodd" fill="#543426" d="M686.3,242.9c2-7.7,10.4-17.3-4.2-27.9
		c-14.8-10.8-60.4,35.9-67.7,53.3c-5.6,13.2,1.3,22,4.8,25.4C635,268.4,659.4,253.2,686.3,242.9z"/>
	<path id="XMLID_508_" fill-rule="evenodd" clip-rule="evenodd" fill="#3E2416" d="M678.5,295.8c5.8-7.5,16.7,5.5,16.7,5.5l1.9-6.1
		c0,0-6.5-4.1-7.4-11.1c-0.9-7,9-10.9,6.5-21.2c-2.5-10.3-11.8-12.2-10-19.9c0-0.1,0-0.1,0.1-0.2c-26.8,10.3-51.3,25.5-67.1,50.7
		c1.1,1.1,1.9,1.6,1.9,1.6s-4.6,15.5,18.1,36.2s56.2,30,57.9,13c0,0,6.2-21-4.1-32.6C679.8,314.1,672.6,303.3,678.5,295.8z"/>
	<path id="XMLID_3_" fill-rule="evenodd" clip-rule="evenodd" fill="#F9D0A9" d="M904.5,465.7c9.9,5.9,28.8,27.8,59,29.8
		c9.3,0.7,16.9-0.1,18.1,3.3c2.7,7.6-11.9,19.8-11.9,19.8c-1.4,0-2.8,0.1-4.2,0.1c-16.5,0-37.2-2.6-54-6.9
		c-11.2-2.9-45.4-11.6-47.9-38c-0.6-6,0.2-15.9,1.5-26.8h40.2C904.8,454.6,904.5,461.2,904.5,465.7L904.5,465.7z M874.2,388.3
		L874.2,388.3L874.2,388.3L874.2,388.3z"/>
	<path id="XMLID_5_" fill-rule="evenodd" clip-rule="evenodd" fill="#F9D0A9" d="M993.7,329.8c30.5,0,36.9,2.3,52.2-17.7
		c-20.9-3.2-27.3-9.9-31.2-22.2c-4-12.5,0-29,0-29h-42c0,0,3.9,16.5,0,29c-3.9,12.3-19.7,18.9-40.6,22.2
		C947.4,332.1,963.2,329.8,993.7,329.8L993.7,329.8z"/>
	<path id="XMLID_8_" fill-rule="evenodd" clip-rule="evenodd" fill="#DEB997" d="M993.5,295.9c4.4-7.9,12.2-14.8,19.4-20
		c0.1-8.1,1.7-14.9,1.7-14.9h-42c0,0,3.9,16.5,0,29c-2.7,8.7-10.4,19.8-25.9,19.1C979,318.9,984.9,311.3,993.5,295.9L993.5,295.9z"
		/>
	<polygon id="XMLID_11_" fill-rule="evenodd" clip-rule="evenodd" fill="#0A5C8D" points="959.7,292 915.8,309 919.4,480.3 
		992.5,480.3 992.5,307.5 	"/>
	<polygon id="XMLID_12_" fill-rule="evenodd" clip-rule="evenodd" fill="#095381" points="1025.3,292 1069.3,313.5 1065.7,490 
		992.5,480.3 992.5,307.5 	"/>
	<path id="XMLID_15_" fill-rule="evenodd" clip-rule="evenodd" fill="#DCDCDD" d="M1005.4,844.6c0,2-1.7,3.7-3.7,3.7h-15
		c-2.1,0-3.7-1.6-3.7-3.7V612.2c0-2,1.7-3.7,3.7-3.7h15c2.1,0,3.7,1.6,3.7,3.7V844.6z"/>
	<path id="XMLID_16_" fill-rule="evenodd" clip-rule="evenodd" fill="#806A3E" d="M1114.5,576.7c0,19.4-19.5,45.6-119.1,45.6
		s-121.6-26.2-121.6-45.6c0-19.4,53.9-24.1,120.4-24.1C1060.6,552.6,1114.5,557.3,1114.5,576.7L1114.5,576.7z"/>
	<path id="XMLID_17_" fill-rule="evenodd" clip-rule="evenodd" fill="#987B4A" d="M1114.5,576.7c0,16.6-53.9,30.1-120.3,30.1
		c-66.5,0-120.4-13.5-120.4-30.1s53.9-30.1,120.4-30.1C1060.6,546.6,1114.5,560.1,1114.5,576.7L1114.5,576.7z"/>
	<path id="XMLID_18_" fill-rule="evenodd" clip-rule="evenodd" fill="#474974" d="M1068.3,551.1c-3.3-6.8-6.1-57.9-6.1-57.9
		s-29.7-6-68-6c-38.3,0-68,6-68,6s-2.9,51.1-6.1,57.9c-3.3,6.8-17,18.2-15.2,38.8c1.9,20.5,46.1,20.5,71.5,18.2
		c7-0.6,12.8-1.1,17.8-1.6c5,0.4,10.8,0.9,17.8,1.6c25.3,2.3,69.6,2.3,71.5-18.2C1085.3,569.4,1071.6,557.9,1068.3,551.1
		L1068.3,551.1z"/>
	<path id="XMLID_19_" fill-rule="evenodd" clip-rule="evenodd" fill="#DEB997" d="M955.7,212.4c0,0-15.6-12.7-22.5,0
		c-6.9,12.7,19.4,35.2,27.5,31.4C968.8,239.9,955.7,212.4,955.7,212.4L955.7,212.4z"/>
	<path id="XMLID_20_" fill-rule="evenodd" clip-rule="evenodd" fill="#DEB997" d="M1031.7,212.4c0,0,15.6-12.7,22.5,0
		c6.9,12.7-19.4,35.2-27.5,31.4C1018.5,239.9,1031.7,212.4,1031.7,212.4L1031.7,212.4z"/>
	<polygon id="XMLID_14_" fill-rule="evenodd" clip-rule="evenodd" fill="#EFEFF0" points="959.7,292 992.5,439.7 992.5,500.5 
		916.5,500.5 915.8,299.4 	"/>
	<polygon id="XMLID_495_" fill-rule="evenodd" clip-rule="evenodd" fill="#EFEFF0" points="1025.3,292 992.5,439.7 992.5,500.5 
		1068.6,500.5 1069.3,299.4 	"/>
	<path id="XMLID_21_" fill-rule="evenodd" clip-rule="evenodd" fill="#F9D0A9" d="M1039.9,184c-1.3-35.4-39-35.4-46.2-35.4
		c-7.2,0-44.9,0-46.2,35.4c-1.3,35.4,0.6,61.1,8.9,72.5c8.2,11.3,27.7,17.3,37.3,17.3c9.6,0,29.1-6,37.3-17.3
		C1039.2,245.1,1041.1,219.4,1039.9,184L1039.9,184z"/>
	<path id="XMLID_22_" fill-rule="evenodd" clip-rule="evenodd" fill="#DCDCDD" d="M1197.1,530.3c0,2.1-1.7,3.8-3.7,3.8H794.8
		c-2.1,0-3.7-1.7-3.7-3.8v-15.7c0-2.1,1.7-3.7,3.7-3.7h398.5c2.1,0,3.7,1.7,3.7,3.7V530.3z"/>
	<path id="XMLID_23_" fill-rule="evenodd" clip-rule="evenodd" fill="#EEEEEE" d="M1197.1,530.3c0,2.1-1.7,3.8-3.7,3.8H794.9V524
		c0-2.1,1.7-3.7,3.8-3.7h398.5V530.3z"/>
	<path id="XMLID_25_" fill-rule="evenodd" clip-rule="evenodd" fill="#F9D0A9" d="M1080.4,465.7c-9.9,5.9-28.8,27.8-59,29.8
		c-9.3,0.7-16.9-0.1-18.1,3.3c-2.7,7.6,11.9,19.8,11.9,19.8c1.4,0,2.7,0.1,4.2,0.1c16.5,0,37.2-2.6,54-6.9
		c11.2-2.9,45.4-11.6,47.9-38c0.6-6-0.2-15.9-1.5-26.8h-40.2C1080.1,454.6,1080.4,461.2,1080.4,465.7L1080.4,465.7z M1110.7,388.3
		L1110.7,388.3L1110.7,388.3L1110.7,388.3z"/>
	<path id="XMLID_27_" fill-rule="evenodd" clip-rule="evenodd" fill="#F9D0A9" d="M1004.8,497.7c0,0-41.9-8.7-64.7,0
		s-24.6,14.7-19.1,15.4c5.5,0.7-1.7,1.8,0.7,4.5c1.4,1.6,5,1.1,6.7,0.6c2.3-0.7-0.4,2.2,0.6,3.7c1,1.5,4.1,2.2,8.5,1.8
		c3.9-0.4,3.4,0.3,2.5,1.1c-1.1,1-0.1,3.7,7.6,3.6c11.1-0.1,17.4-4.8,24.9-3.9c21.1,2.5,30.2-4.4,39.4-9.8
		C1021.1,509.3,1004.8,497.7,1004.8,497.7L1004.8,497.7z"/>
	<path id="XMLID_28_" fill-rule="evenodd" clip-rule="evenodd" fill="#231914" d="M979,832.3c-6.3,5.8-64.1,7.5-70.8,4.2
		c-6.7-3.3,6.9-21.9,2.5-53.3c-2.8-20.2-10.3-41.3-16.4-62.3c-9.2-32.1-17.8-62.4-19.9-88c-4.3-52.8,34.6-63.8,52.1-87.1
		c7-9.3,73.2,28,73.2,28c-14.5,17.7-11.1,28.3-24.9,35.3c-18.6,9.5-32.7,18.1-31.8,29.1c1.6,19.4,3,36.4,11.4,65.4
		c8.8,30.8,19.3,83.3,22,92.2C979,804.8,985.3,826.5,979,832.3L979,832.3z"/>
	<path id="XMLID_29_" fill-rule="evenodd" clip-rule="evenodd" fill="#231914" d="M1072.9,826.5c0,0,6,10.8,13.6,17.5
		c7.6,6.7,20.4,1.7,16.1,15.8c-4.2,14.2-11.9,13.3-45.9,13.3c-34,0-39.9-6.7-45-15c-5.1-8.3-2.6-30.8,3.4-35
		C1021.1,819,1072.9,826.5,1072.9,826.5L1072.9,826.5z"/>
	<path id="XMLID_30_" fill-rule="evenodd" clip-rule="evenodd" fill="#3E3938" d="M1043.7,850.8c0-5.6,48.1-5.6,54.3-1.9
		c6.2,3.8,4.4,8.1-14.4,9.4C1065,859.6,1043.7,856.4,1043.7,850.8L1043.7,850.8z"/>
	<path id="XMLID_31_" fill-rule="evenodd" clip-rule="evenodd" fill="#231914" d="M1009.2,832.3c6.3,5.8,64.1,7.5,70.8,4.2
		c6.7-3.3-6.9-21.9-2.5-53.3c2.8-20.2,10.3-41.3,16.4-62.3c9.2-32.1,17.9-62.4,19.9-88c4.3-52.8-34.6-63.8-52.1-87.1
		c-7-9.3-73.2,28-73.2,28c14.4,17.7,11.1,28.3,24.9,35.3c18.6,9.5,32.7,18.1,31.8,29.1c-1.6,19.4-3,36.4-11.3,65.4
		c-8.8,30.8-19.3,83.3-22,92.2C1009.2,804.8,1002.9,826.5,1009.2,832.3L1009.2,832.3z"/>
	<path id="XMLID_56_" fill-rule="evenodd" clip-rule="evenodd" fill="#EEEEEE" d="M639.2,396l-33.4-44.7c-0.5-0.6-0.3-1.5,0.3-2
		l13.3-9.8l-5.6-7.5l-14.5,10.7l0-0.1l0,0c-4.1,3.1-5,8.9-1.9,13.1l0,0l0,0l34.3,45.9L639.2,396z"/>
	<path id="XMLID_34_" fill-rule="evenodd" clip-rule="evenodd" fill="#EEEEEE" d="M604,325.3l18.2,21.1c3.3,3.9,9.2,4.3,13.1,1l0,0
		L605,312.2l0,0C601.1,315.5,600.7,321.4,604,325.3z"/>
	<path id="XMLID_59_" fill-rule="evenodd" clip-rule="evenodd" fill="#054973" d="M641.6,347.7c3.3-0.4,6.1-1.7,8.5-3.8
		c2.8-2.5,2.9-4.2,0.7-6.7c-13.1-14.7-24.9-27.8-35.7-42.6c-2-2.8-3.1-1.6-5.7,0.8c-0.9,0.8-1.6,1.7-2.2,2.6
		C619.1,313.2,627.1,335,641.6,347.7z"/>
	<path id="XMLID_62_" fill-rule="evenodd" clip-rule="evenodd" fill="#0A5C8D" d="M607.2,297.9c-2.8,3.9-3.3,8.2-2.2,14.2l30.3,35.2
		c2.2,0.4,4.3,0.5,6.2,0.3C627.1,335,619.1,313.2,607.2,297.9z"/>
	<path id="XMLID_36_" fill-rule="evenodd" clip-rule="evenodd" fill="#CECECF" d="M617.3,393.1c52.5,73.3,105.8,146.1,157.5,220
		c6.7,9.6,3.9,19.7,0.3,30.5l-32,96.4l106.3-88.7l-36.8-64.7L779.4,546l-2.6,1.9c-4.6,3.4-11.2,2.5-14.7-2.2L640,381.6
		c-1.6-2.1-2.2-4.6-2-7.1C631,369.8,612.1,385.9,617.3,393.1L617.3,393.1z"/>
	<path id="XMLID_60_" fill-rule="evenodd" clip-rule="evenodd" fill="#054973" d="M787.8,539.8l4.1-3c4.6-3.4,5.6-10,2.2-14.7
		L672,357.8c-3.4-4.6-10-5.6-14.7-2.2l-4.1,3C690.7,423.6,731.4,489.6,787.8,539.8z"/>
	<path id="XMLID_61_" fill-rule="evenodd" clip-rule="evenodd" fill="#0A5C8D" d="M653.3,358.7l-11.1,8.2c-4.6,3.4-5.6,10-2.2,14.7
		l122.1,164.2c3.4,4.6,10,5.6,14.7,2.2l11.1-8.2C731.4,489.6,690.7,423.6,653.3,358.7z"/>
	<path id="XMLID_41_" fill-rule="evenodd" clip-rule="evenodd" fill="#EEEEEE" d="M878.5,864.5c31.4-26.2,72.8-78.4,113.7-78.5
		l22.8,0c15.6,0,36.3,21.2,36.3,35.8v42.8H878.5z"/>
	<path id="XMLID_42_" fill-rule="evenodd" clip-rule="evenodd" fill="#DCDCDD" d="M783.1,778.2l134.1,50.3l0,0
		c23.5-21.8,49.3-42.5,75-42.5l22.8,0l-219.6-81.6L783.1,778.2z"/>
	<path id="XMLID_43_" fill-rule="evenodd" clip-rule="evenodd" fill="#C8C9C9" d="M983.9,774.4l-186.3-69.2
		c-0.8,0.1-1.6,0.2-2.3,0.3l-12.1,72.8L983.9,774.4z"/>
	<polygon id="XMLID_44_" fill-rule="evenodd" clip-rule="evenodd" fill="#EEEEEE" points="1015,785.9 796,704.6 790.7,764.8 
		923.3,815.1 	"/>
	<path id="XMLID_45_" fill-rule="evenodd" clip-rule="evenodd" fill="#DCDCDD" d="M983.9,774.4l-186.3-69.2
		c-0.5,0.1-1.1,0.1-1.6,0.2l-5.3,59.5l33.2,12.6L983.9,774.4z"/>
	<path id="XMLID_499_" fill-rule="evenodd" clip-rule="evenodd" fill="#EEEEEE" d="M761.6,704.8l-17,31.7
		c-12,22.4,13,43.3,38.4,41.7c11.5-18,25.1-54.2,46.5-54.2c57,0,95.9,0,152.9,0c19.2,0,35.8-3.7,45.5-20.5
		C939.2,704.6,850.4,706.9,761.6,704.8z"/>
	<path id="XMLID_504_" fill-rule="evenodd" clip-rule="evenodd" fill="#E0E0E0" d="M1039.7,682.8l18.4-31.9
		c10.9-18.9-14.1-39.2-32.2-46.8c-64.9,1.8-127.1,3.7-192,5.5c-20.9,0.6-21.4,0.2-31.1,18.3l-41.3,76.9
		c88.8,2.1,177.6-0.2,266.3-1.2c0.1-0.1,0.2-0.3,0.3-0.4L1039.7,682.8z"/>
	<path id="XMLID_53_" fill-rule="evenodd" clip-rule="evenodd" fill="#001E3D" d="M951.7,568.8h-94.8c-20.7,0-39.9-11.1-50.2-29
		l-15.9-27.7l62.3-28.2l110.7,21.8L951.7,568.8z"/>
	<path id="XMLID_492_" fill-rule="evenodd" clip-rule="evenodd" fill="#FEBC11" d="M726.7,345.5c-12.7,2.1-30.1,9.5-33.2,36.1
		c-1.3,11.2,22.9,46.7,72.8,112.3c17.3,22.8,31.6,49.5,42.7,62.9c10.4-9.5,18-17,30.9-32.4C797.1,476.8,745.2,435.8,724,374
		C721,365.1,723,355,726.7,345.5z"/>
	<path id="XMLID_52_" fill-rule="evenodd" clip-rule="evenodd" fill="#381B18" d="M1193.6,584.1c0,0,37.1-27.6,49.6-32.2
		c12.4-4.6,22.7-6.7,14.1,13c-15.2,34.6-24.4,38.1-26.2,40.1c-1.8,2-11.7,18.6-8.9,20.2c2.8,1.6,0.3,7.4-4.7,15.5
		c-5,8.1-11.2,11.3-15.8,11c-4.5-0.3-29.9-18.1-29.9-18.1L1193.6,584.1z"/>
	<path id="XMLID_494_" fill-rule="evenodd" clip-rule="evenodd" fill="#FFCD03" d="M876.1,478.3C820,411.2,775.3,343.2,738.2,344.7
		c-2.4,0-6.5,0-11.5,0.8C723,355,721,365.1,724,374c21.2,61.8,73.1,102.8,115.9,150.3C857.5,512.1,873,499.5,876.1,478.3z"/>
	<path id="XMLID_49_" fill-rule="evenodd" clip-rule="evenodd" fill="#0A5C8D" d="M823.3,616.2c67.9,0,135.9,0,203.8,0l206,114.5
		c5.2,2.9,11.9,0.3,14.3-5.1l12-27.6c2.4-5.4-0.1-11.2-5.1-14.3L1104.2,593l-63.9-23c-2-0.7-4.8-1.2-6.9-1.2h-210
		c-5.9,0-10.7,4.8-10.7,10.7v25.9C812.6,611.4,817.4,616.2,823.3,616.2L823.3,616.2z"/>
	<path id="XMLID_50_" fill-rule="evenodd" clip-rule="evenodd" fill="#472825" d="M1208.5,590.6c0,0,40.6-22.3,53.5-25.1
		c12.9-2.9,23.4-3.5,12.2,14.8c-19.8,32.2-43.8,62.3-49.8,69.6c-6.1,7.4-12.7,9.7-17.1,8.7c-4.4-0.9-27.2-22-27.2-22L1208.5,590.6z"
		/>
	<path id="XMLID_496_" fill-rule="evenodd" clip-rule="evenodd" fill="#001E3D" d="M1207.6,590.6c-18.6-7.4-95.7-46.4-139-73.3
		c-30.1-18.7-47.5-27.1-64.1-20.5l5.3,81.8c9.4-7.5,16.7-12,18.8-10c3.9,3.7,119.8,53.1,150.6,68
		C1183.4,634.3,1207.6,602.5,1207.6,590.6z"/>
	<path id="XMLID_501_" fill-rule="evenodd" clip-rule="evenodd" fill="#E84F4D" d="M1093.7,530.2c0-16.7-0.7-14.9-14-24.9
		c-31-23.1-71.3-40.3-124.2-43.3c-53.3-2.9-78.2,6.1-78.2,6.3c0,0-0.9,33.1-1.5,71.2c74.8,0.3,148,15.4,217.9,40.4
		C1093.7,563.4,1093.7,546.8,1093.7,530.2z"/>
	<path id="XMLID_502_" fill-rule="evenodd" clip-rule="evenodd" fill="#CA4443" d="M875.8,539.6c-0.8,51.9-1.3,113.3,1.5,113.5
		c65.8,5.2,131.8,5.3,197.6,0.3c10.4-0.8,18.8-10,18.8-20.4c0-17.7,0-35.3,0-53C1023.8,555,950.6,539.9,875.8,539.6z"/>
	<path id="XMLID_500_" fill-rule="evenodd" clip-rule="evenodd" fill="#D97164" d="M867.8,542.1c0.3,46.9,2,101.5,2.6,110.9
		c9.1,12.2,20.9,0,20.9,0l-1.4-112C882.6,541.6,875.2,542.1,867.8,542.1z"/>
	<path id="XMLID_503_" fill-rule="evenodd" clip-rule="evenodd" fill="#ED7B6D" d="M886.5,462.3c-4,0.6-12.1,2.6-16,9.2
		c-2.3,3.9-2.9,35-2.6,70.5c7.4,0.1,14.7-0.4,22.1-1.1l-1-76.5C888.9,463.1,887.8,462.2,886.5,462.3z"/>
	<path id="XMLID_66_" fill-rule="evenodd" clip-rule="evenodd" fill="#EEEEEE" d="M822,567.8h11.3l22.2-44.4h82.6
		c1.7,0,3.1-1.4,3.1-3.1v-3.7c0-1.7-1.4-3.1-3.1-3.1h-77.7h-8.2h-3.1L822,567.8z"/>
	<path id="XMLID_58_" fill-rule="evenodd" clip-rule="evenodd" fill="#064B75" d="M946.7,505.1v-6c0-1.9-1.6-3.5-3.5-3.5h-98.4
		c-1.9,0-3.5,1.6-3.5,3.5v5.6C876.5,506.3,911.6,504.5,946.7,505.1z"/>
	<path id="XMLID_63_" fill-rule="evenodd" clip-rule="evenodd" fill="#0A5C8D" d="M841.4,504.7v5.5c0,1.9,1.6,3.5,3.5,3.5h98.4
		c1.9,0,3.5-1.6,3.5-3.5v-5.1C911.6,504.5,876.5,506.3,841.4,504.7z"/>
	<path id="XMLID_68_" fill-rule="evenodd" clip-rule="evenodd" fill="#DCDCDD" d="M869.5,864.5c31.4-26.2,72.8-78.4,113.7-78.5
		l22.8,0c0.3,0,0.5,0,0.8,0l-14.7,0c-40.9,0.1-82.3,52.4-113.7,78.5H869.5z"/>
	<polygon id="XMLID_69_" fill-rule="evenodd" clip-rule="evenodd" fill="#DCDCDD" points="611.4,333.8 606.8,348.7 617.5,340.9 	"/>
	<path id="XMLID_71_" fill-rule="evenodd" clip-rule="evenodd" fill="#090506" d="M1015.2,224.6c-19.6,0.4-15.3-22.4-15.3-22.4
		s7.1-2.9,17.7-2.5c10.6,0.4,13,1.5,13,1.5S1038.3,224.1,1015.2,224.6L1015.2,224.6z M954.3,199.6l-5.2-3.7l-0.9,2.5l5.2,6.3
		c-0.9,7.7,0.1,21.7,18.6,22c17.8,0.3,18.5-15.9,18-22.8c0.7-0.3,2.2-0.7,3.6-0.8c1.5,0,3,0.4,3.7,0.6c-0.5,6.8,0.1,23.3,18,23
		c18.7-0.3,19.6-14.3,18.6-22l5.2-6.3l-0.9-2.5l-5.2,3.7c0,0-2.8-1.4-15-1.8c-12.2-0.4-20.3,3-20.3,3s-2.2-0.6-4-0.6
		c-1.6,0-3.5,0.5-4,0.6l0,0c0,0-8.2-3.7-20.4-3.2C957,198,954.3,199.6,954.3,199.6L954.3,199.6z M956.6,201.2c0,0,2.4-1.3,12.9-1.7
		c10.6-0.4,17.7,2.7,17.7,2.7s4.2,23.2-15.3,22.4C949.2,223.7,956.6,201.2,956.6,201.2L956.6,201.2z"/>
	<path id="XMLID_506_" fill-rule="evenodd" clip-rule="evenodd" fill="#553527" d="M1000,159c10.7-8.2,24.2-10,37.7-9.5
		c0.7-0.2,1.6-0.4,2.9-0.4c0,0-8.2-5.2-22.3-7.2c-16.7-5.3-41.2-5.7-52.9,0.5c-14.6,7.7-14.6,13.6-14.6,13.6s-10.9,8.5-11.5,32.2
		c-0.5,19.5,9.2,33.8,9.2,33.8c0,0,1.4-18.6,2.7-28.7c1.2-9.1,2.8-16.1,2.8-16.1s4.8,2.5,13.4,5c13-12.5,31.7-17.6,49.6-21.2
		C1011,161,1006,158,1000,159z"/>
	<path id="XMLID_507_" fill-rule="evenodd" clip-rule="evenodd" fill="#3E2416" d="M1039.1,156.4c0-0.2-0.1-0.5-0.1-0.7
		c0-3.5,1.8-4.7,1.8-4.7s-1.3-0.8-2.8-0.6c-1.6,0.2-2.3,0.5-2.3,0.5s0.3-0.9,2-1.4c-13.5-0.5-27,1.3-37.7,9.5c6-1,11,2,17,2
		c-17.9,3.6-36.5,8.7-49.6,21.2c7.3,2.1,17.5,4.2,30,4.8c27.2,1.3,37.1,0.4,37.1,0.4s1.1,3.4,2.6,14.1c1.5,10.7,2.4,20.6,2.4,20.6
		c0,0,7.1-16.3,6.4-35.1C1045.4,174.1,1044.3,164.2,1039.1,156.4z"/>
	<path id="XMLID_1_" fill-rule="evenodd" clip-rule="evenodd" fill="#F9D0A9" d="M827,497.9c-10.6,0.2-20.9-4-28.3-11.6
		c-18.1-18.8-62.8-54.8-75.7-74c-18-26.7,17.3-56.7,43-28.7c16.3,17.7,38.3,44.8,54.6,62.7c7.8,8.6,15.8,17.1,27.2,19.5l70.7,10.5
		v19.2L827,497.9z"/>
	<path id="XMLID_47_" fill-rule="evenodd" clip-rule="evenodd" fill="#FFD800" d="M721.7,418.3c-27.9-33.3,20-68.7,48-38.7
		s34.7,42,34.7,42l-45.6,40.4L721.7,418.3z"/>
	<path id="XMLID_48_" fill-rule="evenodd" clip-rule="evenodd" fill="#F9D0A9" d="M913.4,475.7c0,0,32.6,3.1,46.6,7.1
		s37.6,26.1,37.6,26.1l-3.7,3.9l-27.4-17.1c0,0,2.2,10.6,3,13.6c0.8,3-12.2,13.2-12.2,13.2l-11.5-4.9V513l8.5,0.6l-10.4-18h-30.3
		V475.7z"/>
	<path id="XMLID_65_" fill-rule="evenodd" clip-rule="evenodd" fill="#E0E0E0" d="M809.8,158.2L809.8,158.2
		c-1.6-3.4-0.2-7.5,3.2-9.1l105.8-50.6c3.4-1.6,7.5-0.2,9.1,3.2v0c1.6,3.4,0.2,7.5-3.2,9.1l-105.8,50.6
		C815.5,163,811.4,161.6,809.8,158.2z"/>
	
		<rect id="XMLID_32_" x="805.8" y="186.8" transform="matrix(0.8538 0.5206 -0.5206 0.8538 222.233 -392.2029)" fill-rule="evenodd" clip-rule="evenodd" fill="#DCDCDD" width="7.2" height="25.4"/>
	<path id="XMLID_33_" fill-rule="evenodd" clip-rule="evenodd" fill="#EEEEEE" d="M816.2,194.9L816.2,194.9c-3.8,0-6.9-3.1-6.9-6.9
		v-32.6c0-3.8,3.1-6.9,6.9-6.9l0,0c3.8,0,6.9,3.1,6.9,6.9v32.6C823.1,191.9,820,194.9,816.2,194.9z"/>
	<path id="XMLID_37_" fill-rule="evenodd" clip-rule="evenodd" fill="#EEEEEE" d="M807.8,202.1c-22.9-14-37.5-14.1-44.3-9.1
		c-1.8,1.3-1.6,4,0.2,5.1l33.9,20.7l33.9,20.7c1.9,1.1,4.3,0,4.7-2.1C837.5,228.9,830.7,216,807.8,202.1z"/>
	<circle id="XMLID_35_" fill-rule="evenodd" clip-rule="evenodd" fill="#DCDCDD" cx="816.2" cy="186.9" r="3.9"/>
	<path id="XMLID_57_" fill-rule="evenodd" clip-rule="evenodd" fill="#EEEEEE" d="M799.3,197.3c-0.4-0.2,5-4.7,5-4.7l13.7,8.7
		l-1.8,6.3L799.3,197.3z"/>
	<path id="XMLID_7_" fill-rule="evenodd" clip-rule="evenodd" fill="#95C9E1" d="M959.7,292"/>
	<polygon id="XMLID_74_" fill-rule="evenodd" clip-rule="evenodd" fill="#FFFFFF" points="959.7,292 945,344.6 961.5,349 
		954.6,368.3 992.5,439.7 	"/>
	<polygon id="XMLID_76_" fill-rule="evenodd" clip-rule="evenodd" fill="#FFFFFF" points="1025.3,292 1040.1,344.6 1023.6,349 
		1030.5,368.3 992.5,439.7 	"/>
	<polygon id="XMLID_6_" fill-rule="evenodd" clip-rule="evenodd" fill="#054973" points="966.6,278.6 994.1,307.5 977.4,323.9 
		959.7,292 	"/>
	<polygon id="XMLID_9_" fill-rule="evenodd" clip-rule="evenodd" fill="#054973" points="1021.6,278.6 994.1,307.5 1010.8,323.9 
		1028.5,292 	"/>
	<path id="XMLID_51_" fill-rule="evenodd" clip-rule="evenodd" fill="#FFFFFF" d="M915.8,299.4L915.8,299.4
		c-24.8,4.9-38.7,25.1-41.9,50.2L856.5,447H911l5.1-42L915.8,299.4z"/>
	<path id="XMLID_64_" fill-rule="evenodd" clip-rule="evenodd" fill="#FFFFFF" d="M1069.3,299.4L1069.3,299.4
		c24.8,4.9,38.7,25.1,41.9,50.2l17.4,97.4h-54.5l-5.1-42L1069.3,299.4z"/>
	<rect id="XMLID_10_" x="1014.7" y="375.9" fill-rule="evenodd" clip-rule="evenodd" fill="#FFFFFF" width="51" height="11"/>
	<path id="XMLID_40_" fill-rule="evenodd" clip-rule="evenodd" fill="#3E3938" d="M841.4,873.1H1069l0,0c0-4.8-3.9-8.6-8.6-8.6H850
		C845.3,864.5,841.4,868.4,841.4,873.1L841.4,873.1z"/>
	<rect id="XMLID_46_" x="841.4" y="873.1" fill-rule="evenodd" clip-rule="evenodd" fill="#2F2B2A" width="227.6" height="16.9"/>
</g>
<rect id="XMLID_54_" y="890" fill-rule="evenodd" clip-rule="evenodd" fill="#0A5C8D" width="1400" height="90"/>
<path id="XMLID_55_" fill-rule="evenodd" clip-rule="evenodd" fill="#08517E" d="M1300.9,890H625.7c-14.8,0-26.7,12-26.7,26.7v0
	c0,14.8,12,26.7,26.7,26.7h675.2c14.8,0,26.7-12,26.7-26.7v0C1327.7,902,1315.7,890,1300.9,890z"/>
<rect id="XMLID_75_" x="71.3" y="181.1" fill-rule="evenodd" clip-rule="evenodd" fill="none" width="435.9" height="225"/>

</svg>
